<svg width="266" height="302" viewBox="0 0 266 302" fill="none" xmlns="http://www.w3.org/2000/svg">
<g clip-path="url(#clip0_598_267)">
<rect x="36.9668" y="214.785" width="63.1747" height="206.692" transform="rotate(-64.8567 36.9668 214.785)" fill="url(#paint0_linear_598_267)"/>
<rect x="62.0449" y="216.539" width="62.6043" height="188.148" transform="rotate(-118.11 62.0449 216.539)" fill="url(#paint1_linear_598_267)"/>
<rect x="50.8145" y="70.7969" width="63.1747" height="174.382" transform="rotate(-69.1632 50.8145 70.7969)" fill="url(#paint2_linear_598_267)"/>
<circle cx="216.788" cy="263.726" r="30.5874" transform="rotate(-34.8567 216.788 263.726)" fill="#662AF2" stroke="url(#paint3_linear_598_267)" stroke-width="2"/>
<circle cx="50.9281" cy="186.695" r="31.5874" transform="rotate(10.0809 50.9281 186.695)" fill="#662AF2"/>
<circle cx="215.732" cy="98.5653" r="31.5874" transform="rotate(-5.31223 215.732 98.5653)" fill="#662AF2"/>
<circle cx="61.1887" cy="41.1298" r="31.5874" transform="rotate(-5.31223 61.1887 41.1298)" fill="#662AF2"/>
</g>
<defs>
<linearGradient id="paint0_linear_598_267" x1="68.5542" y1="214.785" x2="68.5542" y2="421.477" gradientUnits="userSpaceOnUse">
<stop stop-color="#662AF2"/>
<stop offset="1" stop-color="white" stop-opacity="0.21"/>
</linearGradient>
<linearGradient id="paint1_linear_598_267" x1="93.3471" y1="216.539" x2="93.3471" y2="404.687" gradientUnits="userSpaceOnUse">
<stop stop-color="#662AF2"/>
<stop offset="1" stop-color="white" stop-opacity="0.21"/>
</linearGradient>
<linearGradient id="paint2_linear_598_267" x1="82.4018" y1="70.7969" x2="82.4018" y2="245.179" gradientUnits="userSpaceOnUse">
<stop stop-color="#662AF2"/>
<stop offset="1" stop-color="white" stop-opacity="0.21"/>
</linearGradient>
<linearGradient id="paint3_linear_598_267" x1="216.262" y1="207.725" x2="215.908" y2="308.593" gradientUnits="userSpaceOnUse">
<stop stop-color="white"/>
<stop offset="0.5751" stop-color="white" stop-opacity="0"/>
<stop offset="1" stop-color="white"/>
</linearGradient>
<clipPath id="clip0_598_267">
<rect width="266" height="302" fill="white"/>
</clipPath>
</defs>
</svg>
