<svg width="749" height="486" viewBox="0 0 749 486" fill="none" xmlns="http://www.w3.org/2000/svg">
<g clip-path="url(#clip0_614_3047)">
<rect width="161" height="40" rx="20" transform="matrix(0.866025 0.5 -0.866025 0.5 459.641 109.929)" fill="#DEE4F9"/>
<path d="M464.144 127.869C463.786 128.075 463.422 128.272 463.053 128.459C462.683 128.645 462.389 128.789 462.169 128.889L462.273 128.949C462.92 128.869 463.59 128.875 464.282 128.969C464.987 129.055 465.68 129.295 466.361 129.689C467.423 130.302 467.868 131.039 467.695 131.899C467.533 132.752 466.65 133.642 465.045 134.569C463.971 135.189 462.908 135.622 461.858 135.869C460.83 136.115 459.86 136.189 458.948 136.089C458.035 135.989 457.216 135.729 456.488 135.309C455.795 134.909 455.368 134.522 455.206 134.149C455.068 133.775 455.027 133.425 455.085 133.099L454.912 132.999L453.44 133.349L451.465 132.209L464.629 124.609L467.21 126.099L464.144 127.869ZM463.468 130.399C463.018 130.139 462.568 129.985 462.117 129.939C461.667 129.892 461.188 129.942 460.68 130.089C460.195 130.235 459.664 130.469 459.086 130.789L458.809 130.949C457.897 131.475 457.325 131.959 457.094 132.399C456.887 132.839 457.141 133.265 457.857 133.679C458.388 133.985 459.052 134.089 459.848 133.989C460.657 133.882 461.523 133.562 462.446 133.029C463.37 132.495 463.901 132.002 464.04 131.549C464.202 131.095 464.011 130.712 463.468 130.399ZM475.763 140.757C474.977 141.21 474.169 141.55 473.338 141.777C472.518 142.01 471.692 142.134 470.861 142.147C470.053 142.16 469.256 142.067 468.471 141.867C467.697 141.66 466.952 141.35 466.236 140.937C465.578 140.557 465.07 140.144 464.712 139.697C464.377 139.25 464.216 138.79 464.227 138.317C464.25 137.837 464.452 137.354 464.833 136.867C465.226 136.387 465.815 135.92 466.6 135.467C467.651 134.86 468.719 134.457 469.804 134.257C470.901 134.05 471.987 134.037 473.061 134.217C474.135 134.397 475.145 134.76 476.092 135.307C476.981 135.82 477.576 136.384 477.876 136.997C478.176 137.61 478.159 138.24 477.824 138.887C477.5 139.527 476.813 140.15 475.763 140.757ZM469.233 136.987C468.609 137.347 468.147 137.687 467.847 138.007C467.57 138.327 467.466 138.634 467.535 138.927C467.616 139.214 467.888 139.49 468.349 139.757C468.811 140.024 469.285 140.177 469.77 140.217C470.278 140.257 470.803 140.194 471.346 140.027C471.912 139.86 472.506 139.597 473.13 139.237C473.753 138.877 474.204 138.537 474.481 138.217C474.77 137.904 474.874 137.604 474.793 137.317C474.712 137.03 474.441 136.754 473.979 136.487C473.297 136.094 472.564 135.944 471.779 136.037C471.017 136.13 470.168 136.447 469.233 136.987ZM475.973 146.558C474.922 145.952 474.472 145.218 474.622 144.358C474.795 143.498 475.684 142.605 477.289 141.678C478.906 140.745 480.465 140.232 481.966 140.138C483.467 140.045 484.76 140.312 485.846 140.938C486.296 141.198 486.631 141.465 486.85 141.738C487.081 142.005 487.214 142.268 487.249 142.528C487.295 142.795 487.272 143.055 487.179 143.308L487.266 143.358C487.416 143.232 487.641 143.055 487.941 142.828C488.253 142.595 488.594 142.372 488.963 142.158L491.994 140.408L494.575 141.898L481.412 149.498L479.437 148.358L480.165 147.358L480.061 147.298C479.645 147.352 479.2 147.368 478.727 147.348C478.277 147.328 477.82 147.258 477.359 147.138C476.897 147.018 476.435 146.825 475.973 146.558ZM478.935 145.888C479.651 146.302 480.361 146.472 481.065 146.398C481.781 146.318 482.566 146.038 483.421 145.558L483.698 145.398C484.622 144.865 485.182 144.375 485.378 143.928C485.586 143.488 485.309 143.048 484.547 142.608C483.981 142.282 483.288 142.168 482.468 142.268C481.66 142.362 480.794 142.675 479.87 143.208C478.946 143.742 478.409 144.238 478.259 144.698C478.121 145.152 478.346 145.548 478.935 145.888ZM492.216 144.816L495.04 146.446L491.506 150.546C491.391 150.68 491.264 150.806 491.125 150.926C490.998 151.053 490.854 151.176 490.692 151.296C490.542 151.423 490.369 151.55 490.173 151.676L490.224 151.706C490.559 151.553 490.888 151.416 491.212 151.296C491.558 151.176 491.899 151.066 492.234 150.966L499.3 148.906L502.072 150.506L487.401 154.356C486.512 154.59 485.652 154.72 484.82 154.746C484.001 154.78 483.227 154.713 482.5 154.546C481.772 154.38 481.108 154.123 480.508 153.776C480.219 153.61 479.982 153.453 479.798 153.306C479.613 153.173 479.457 153.05 479.33 152.936L481.374 151.756C481.478 151.843 481.605 151.943 481.755 152.056C481.916 152.176 482.095 152.293 482.292 152.406C482.65 152.613 483.031 152.746 483.435 152.806C483.851 152.873 484.278 152.88 484.717 152.826C485.144 152.78 485.559 152.7 485.964 152.586L486.587 152.406L492.216 144.816ZM502.143 161.667C501.207 161.127 500.578 160.571 500.255 159.997C499.943 159.417 499.972 158.821 500.341 158.207C500.711 157.594 501.456 156.964 502.576 156.317C503.73 155.651 504.868 155.221 505.988 155.027C507.108 154.834 508.188 154.837 509.227 155.037C510.278 155.244 511.259 155.611 512.171 156.137C512.818 156.511 513.314 156.871 513.661 157.217C514.019 157.571 514.29 157.901 514.475 158.207L511.721 158.917C511.479 158.591 511.23 158.294 510.976 158.027C510.734 157.767 510.439 157.537 510.093 157.337C509.643 157.077 509.158 156.924 508.638 156.877C508.13 156.824 507.587 156.877 507.01 157.037C506.456 157.197 505.861 157.461 505.226 157.827C504.602 158.187 504.158 158.531 503.892 158.857C503.65 159.184 503.575 159.494 503.667 159.787C503.771 160.074 504.036 160.341 504.464 160.587C505.006 160.901 505.555 161.137 506.109 161.297C506.675 161.451 507.281 161.567 507.928 161.647L505.728 162.917C505.081 162.837 504.487 162.701 503.944 162.507C503.401 162.327 502.801 162.047 502.143 161.667ZM520.895 161.154C522.165 161.887 522.858 162.607 522.974 163.314C523.112 164.021 522.616 164.701 521.484 165.354L515.179 168.994L513.378 167.954L514.158 166.924L514.088 166.884C513.488 166.924 512.934 166.924 512.425 166.884C511.929 166.851 511.45 166.754 510.988 166.594C510.526 166.447 510.029 166.221 509.498 165.914C508.944 165.594 508.546 165.244 508.303 164.864C508.084 164.484 508.066 164.094 508.251 163.694C508.448 163.287 508.886 162.887 509.568 162.494C510.572 161.914 511.663 161.691 512.841 161.824C514.03 161.951 515.353 162.407 516.808 163.194L518.505 164.114L518.921 163.874C519.417 163.587 519.648 163.301 519.613 163.014C519.59 162.734 519.348 162.461 518.886 162.194C518.424 161.927 517.905 161.707 517.327 161.534C516.761 161.354 516.161 161.194 515.526 161.054L516.426 159.554C517.2 159.694 517.968 159.897 518.73 160.164C519.504 160.437 520.225 160.767 520.895 161.154ZM515.959 164.424C515.104 163.957 514.377 163.711 513.776 163.684C513.176 163.657 512.651 163.774 512.2 164.034C511.808 164.261 511.64 164.491 511.698 164.724C511.767 164.951 511.987 165.171 512.356 165.384C512.91 165.704 513.54 165.881 514.244 165.914C514.96 165.941 515.618 165.781 516.219 165.434L516.998 164.984L515.959 164.424ZM538.554 171.369C539.628 171.989 540.159 172.616 540.147 173.249C540.159 173.883 539.558 174.549 538.346 175.249L532.18 178.809L529.599 177.319L535.124 174.129C535.806 173.736 536.198 173.376 536.302 173.049C536.418 172.716 536.233 172.409 535.748 172.129C535.067 171.736 534.339 171.596 533.565 171.709C532.792 171.823 531.949 172.143 531.037 172.669L526.291 175.409L523.71 173.919L529.235 170.729C529.686 170.469 530.009 170.223 530.205 169.989C530.402 169.756 530.471 169.536 530.413 169.329C530.367 169.116 530.182 168.916 529.859 168.729C529.385 168.456 528.889 168.309 528.369 168.289C527.85 168.269 527.301 168.359 526.724 168.559C526.146 168.759 525.523 169.053 524.853 169.439L520.402 172.009L517.821 170.519L527.278 165.059L529.253 166.199L528.387 167.099L528.525 167.179C529.045 167.106 529.547 167.096 530.032 167.149C530.529 167.196 530.996 167.293 531.435 167.439C531.897 167.586 532.307 167.763 532.665 167.969C533.358 168.369 533.831 168.776 534.085 169.189C534.351 169.596 534.374 170.009 534.154 170.429L534.379 170.559C535.153 170.446 535.904 170.473 536.631 170.639C537.37 170.813 538.011 171.056 538.554 171.369ZM548.364 177.033C549.242 177.54 549.825 178.07 550.114 178.623C550.414 179.183 550.42 179.747 550.131 180.313C549.842 180.88 549.236 181.43 548.312 181.963L547.065 182.683L540.969 179.163C540.264 179.597 539.906 180.05 539.895 180.523C539.895 181.003 540.258 181.453 540.986 181.873C541.598 182.227 542.21 182.513 542.822 182.733C543.445 182.947 544.15 183.133 544.935 183.293L542.943 184.443C542.25 184.31 541.592 184.123 540.969 183.883C540.345 183.657 539.67 183.333 538.942 182.913C537.995 182.367 537.331 181.783 536.95 181.163C536.581 180.537 536.546 179.897 536.846 179.243C537.147 178.59 537.839 177.95 538.925 177.323C540.033 176.683 541.136 176.26 542.233 176.053C543.353 175.847 544.433 175.83 545.472 176.003C546.511 176.177 547.475 176.52 548.364 177.033ZM546.546 178.103C546.049 177.817 545.472 177.67 544.814 177.663C544.167 177.663 543.474 177.843 542.735 178.203L546.355 180.293C546.736 180.073 547.008 179.837 547.169 179.583C547.343 179.337 547.383 179.087 547.291 178.833C547.198 178.58 546.95 178.337 546.546 178.103ZM559.983 183.742C560.11 183.815 560.255 183.905 560.416 184.012C560.578 184.118 560.699 184.208 560.78 184.282L558.165 185.572C558.107 185.512 558.003 185.432 557.853 185.332C557.726 185.232 557.605 185.148 557.489 185.082C557.154 184.888 556.785 184.728 556.381 184.602C555.988 184.468 555.572 184.382 555.134 184.342C554.706 184.308 554.262 184.338 553.8 184.432C553.361 184.525 552.917 184.702 552.466 184.962L547.651 187.742L545.07 186.252L554.527 180.792L556.485 181.922L555.272 183.062L555.393 183.132C555.902 183.052 556.427 183.015 556.97 183.022C557.512 183.028 558.043 183.088 558.563 183.202C559.094 183.322 559.568 183.502 559.983 183.742ZM566.125 187.267C567.395 188.001 568.088 188.721 568.203 189.427C568.342 190.134 567.845 190.814 566.714 191.467L560.409 195.107L558.608 194.067L559.387 193.037L559.318 192.997C558.717 193.037 558.163 193.037 557.655 192.997C557.158 192.964 556.679 192.867 556.217 192.707C555.755 192.561 555.259 192.334 554.728 192.027C554.174 191.707 553.775 191.357 553.533 190.977C553.313 190.597 553.296 190.207 553.481 189.807C553.677 189.401 554.116 189.001 554.797 188.607C555.802 188.027 556.893 187.804 558.071 187.937C559.26 188.064 560.582 188.521 562.037 189.307L563.734 190.227L564.15 189.987C564.647 189.701 564.878 189.414 564.843 189.127C564.82 188.847 564.577 188.574 564.116 188.307C563.654 188.041 563.134 187.821 562.557 187.647C561.991 187.467 561.39 187.307 560.755 187.167L561.656 185.667C562.43 185.807 563.198 186.011 563.96 186.277C564.733 186.551 565.455 186.881 566.125 187.267ZM561.188 190.537C560.334 190.071 559.606 189.824 559.006 189.797C558.406 189.771 557.88 189.887 557.43 190.147C557.037 190.374 556.87 190.604 556.928 190.837C556.997 191.064 557.216 191.284 557.586 191.497C558.14 191.817 558.769 191.994 559.474 192.027C560.19 192.054 560.848 191.894 561.448 191.547L562.228 191.097L561.188 190.537Z" fill="#2D3339"/>
</g>
<g clip-path="url(#clip1_614_3047)">
<rect width="166" height="40" rx="20" transform="matrix(0.866025 0.5 -0.866025 0.5 477.641 327.929)" fill="#DEE4F9"/>
<path d="M481.503 346.239L472.046 351.699L469.465 350.209L478.922 344.749L481.503 346.239ZM483.928 343.359C484.309 343.579 484.546 343.822 484.638 344.089C484.742 344.349 484.551 344.619 484.066 344.899C483.593 345.172 483.125 345.282 482.663 345.229C482.202 345.175 481.78 345.039 481.399 344.819C481.006 344.592 480.764 344.345 480.672 344.079C480.591 343.819 480.787 343.552 481.261 343.279C481.745 342.999 482.207 342.885 482.646 342.939C483.108 342.992 483.535 343.132 483.928 343.359ZM489.742 350.796C490.758 351.382 491.295 352.012 491.353 352.686C491.422 353.352 490.851 354.036 489.638 354.736L483.472 358.296L480.891 356.806L486.417 353.616C487.098 353.222 487.485 352.859 487.577 352.526C487.681 352.186 487.467 351.862 486.936 351.556C486.151 351.102 485.343 350.949 484.511 351.096C483.692 351.236 482.779 351.596 481.775 352.176L477.323 354.746L474.743 353.256L484.2 347.796L486.174 348.936L485.308 349.836L485.447 349.916C485.978 349.849 486.492 349.846 486.988 349.906C487.496 349.959 487.981 350.066 488.443 350.226C488.917 350.379 489.35 350.569 489.742 350.796ZM488.88 357.278L490.993 356.058L495.531 358.678L493.418 359.898L488.88 357.278ZM495.38 365.371C494.445 364.831 493.815 364.274 493.492 363.701C493.18 363.121 493.209 362.524 493.579 361.911C493.948 361.297 494.693 360.667 495.813 360.021C496.968 359.354 498.105 358.924 499.225 358.731C500.345 358.537 501.425 358.541 502.464 358.741C503.515 358.947 504.496 359.314 505.408 359.841C506.055 360.214 506.552 360.574 506.898 360.921C507.256 361.274 507.527 361.604 507.712 361.911L504.958 362.621C504.716 362.294 504.467 361.997 504.213 361.731C503.971 361.471 503.676 361.241 503.33 361.041C502.88 360.781 502.395 360.627 501.875 360.581C501.367 360.527 500.824 360.581 500.247 360.741C499.693 360.901 499.098 361.164 498.463 361.531C497.839 361.891 497.395 362.234 497.129 362.561C496.887 362.887 496.812 363.197 496.904 363.491C497.008 363.777 497.274 364.044 497.701 364.291C498.243 364.604 498.792 364.841 499.346 365.001C499.912 365.154 500.518 365.271 501.165 365.351L498.965 366.621C498.319 366.541 497.724 366.404 497.181 366.211C496.638 366.031 496.038 365.751 495.38 365.371ZM514.132 364.857C515.402 365.591 516.095 366.311 516.211 367.017C516.349 367.724 515.853 368.404 514.721 369.057L508.416 372.697L506.615 371.657L507.395 370.627L507.325 370.587C506.725 370.627 506.171 370.627 505.663 370.587C505.166 370.554 504.687 370.457 504.225 370.297C503.763 370.151 503.267 369.924 502.735 369.617C502.181 369.297 501.783 368.947 501.54 368.567C501.321 368.187 501.304 367.797 501.488 367.397C501.685 366.991 502.123 366.591 502.805 366.197C503.809 365.617 504.9 365.394 506.078 365.527C507.268 365.654 508.59 366.111 510.045 366.897L511.742 367.817L512.158 367.577C512.654 367.291 512.885 367.004 512.851 366.717C512.827 366.437 512.585 366.164 512.123 365.897C511.661 365.631 511.142 365.411 510.564 365.237C509.998 365.057 509.398 364.897 508.763 364.757L509.664 363.257C510.437 363.397 511.205 363.601 511.967 363.867C512.741 364.141 513.463 364.471 514.132 364.857ZM509.196 368.127C508.341 367.661 507.614 367.414 507.014 367.387C506.413 367.361 505.888 367.477 505.437 367.737C505.045 367.964 504.877 368.194 504.935 368.427C505.004 368.654 505.224 368.874 505.593 369.087C506.148 369.407 506.777 369.584 507.481 369.617C508.197 369.644 508.855 369.484 509.456 369.137L510.235 368.687L509.196 368.127ZM525.971 371.712C526.098 371.786 526.242 371.876 526.404 371.982C526.566 372.089 526.687 372.179 526.768 372.252L524.152 373.542C524.095 373.482 523.991 373.402 523.841 373.302C523.714 373.202 523.592 373.119 523.477 373.052C523.142 372.859 522.773 372.699 522.368 372.572C521.976 372.439 521.56 372.352 521.121 372.312C520.694 372.279 520.25 372.309 519.788 372.402C519.349 372.496 518.904 372.672 518.454 372.932L513.639 375.712L511.058 374.222L520.515 368.762L522.472 369.892L521.26 371.032L521.381 371.102C521.889 371.022 522.415 370.986 522.957 370.992C523.5 370.999 524.031 371.059 524.551 371.172C525.082 371.292 525.555 371.472 525.971 371.712ZM532.828 383.551C532.193 383.918 531.5 384.144 530.749 384.231C530.01 384.311 529.225 384.244 528.394 384.031C527.562 383.818 526.702 383.454 525.813 382.941C525.155 382.561 524.635 382.208 524.254 381.881C523.861 381.561 523.527 381.208 523.249 380.821L525.38 379.591C525.657 380.018 526.015 380.444 526.454 380.871C526.893 381.298 527.337 381.641 527.787 381.901C528.296 382.194 528.729 382.358 529.086 382.391C529.456 382.431 529.762 382.381 530.004 382.241C530.166 382.148 530.264 382.038 530.299 381.911C530.345 381.791 530.305 381.601 530.178 381.341C530.051 381.081 529.808 380.701 529.45 380.201C529.115 379.714 528.879 379.291 528.74 378.931C528.613 378.564 528.63 378.228 528.792 377.921C528.965 377.608 529.317 377.298 529.849 376.991C530.726 376.484 531.725 376.301 532.845 376.441C533.965 376.581 535.091 376.978 536.223 377.631C536.811 377.971 537.314 378.328 537.729 378.701C538.145 379.074 538.503 379.501 538.803 379.981L536.171 380.601C535.997 380.341 535.818 380.098 535.634 379.871C535.449 379.644 535.247 379.434 535.027 379.241C534.82 379.054 534.571 378.878 534.283 378.711C533.902 378.491 533.561 378.354 533.261 378.301C532.972 378.254 532.724 378.291 532.516 378.411C532.366 378.498 532.273 378.604 532.239 378.731C532.227 378.858 532.291 379.041 532.429 379.281C532.579 379.528 532.816 379.878 533.139 380.331C533.463 380.771 533.7 381.174 533.85 381.541C534.011 381.901 534.017 382.244 533.867 382.571C533.74 382.898 533.394 383.224 532.828 383.551ZM540.138 380.092L542.961 381.722L539.428 385.822C539.313 385.955 539.186 386.082 539.047 386.202C538.92 386.328 538.776 386.452 538.614 386.572C538.464 386.698 538.291 386.825 538.094 386.952L538.146 386.982C538.481 386.828 538.81 386.692 539.134 386.572C539.48 386.452 539.821 386.342 540.156 386.242L547.222 384.182L549.994 385.782L535.323 389.632C534.434 389.865 533.574 389.995 532.742 390.022C531.923 390.055 531.149 389.988 530.421 389.822C529.694 389.655 529.03 389.398 528.43 389.052C528.141 388.885 527.904 388.728 527.719 388.582C527.535 388.448 527.379 388.325 527.252 388.212L529.296 387.032C529.399 387.118 529.526 387.218 529.677 387.332C529.838 387.452 530.017 387.568 530.214 387.682C530.572 387.888 530.953 388.022 531.357 388.082C531.772 388.148 532.2 388.155 532.638 388.102C533.066 388.055 533.481 387.975 533.885 387.862L534.509 387.682L540.138 380.092ZM551.298 394.215C550.663 394.582 549.971 394.808 549.22 394.895C548.481 394.975 547.696 394.908 546.864 394.695C546.033 394.482 545.173 394.118 544.284 393.605C543.625 393.225 543.106 392.872 542.725 392.545C542.332 392.225 541.997 391.872 541.72 391.485L543.851 390.255C544.128 390.682 544.486 391.108 544.924 391.535C545.363 391.962 545.808 392.305 546.258 392.565C546.766 392.858 547.199 393.022 547.557 393.055C547.927 393.095 548.233 393.045 548.475 392.905C548.637 392.812 548.735 392.702 548.77 392.575C548.816 392.455 548.775 392.265 548.648 392.005C548.521 391.745 548.279 391.365 547.921 390.865C547.586 390.378 547.349 389.955 547.211 389.595C547.084 389.228 547.101 388.892 547.263 388.585C547.436 388.272 547.788 387.962 548.319 387.655C549.197 387.148 550.196 386.965 551.316 387.105C552.436 387.245 553.562 387.642 554.693 388.295C555.282 388.635 555.784 388.992 556.2 389.365C556.616 389.738 556.974 390.165 557.274 390.645L554.641 391.265C554.468 391.005 554.289 390.762 554.104 390.535C553.92 390.308 553.718 390.098 553.498 389.905C553.29 389.718 553.042 389.542 552.753 389.375C552.372 389.155 552.032 389.018 551.731 388.965C551.443 388.918 551.194 388.955 550.987 389.075C550.837 389.162 550.744 389.268 550.71 389.395C550.698 389.522 550.761 389.705 550.9 389.945C551.05 390.192 551.287 390.542 551.61 390.995C551.934 391.435 552.17 391.838 552.32 392.205C552.482 392.565 552.488 392.908 552.338 393.235C552.211 393.562 551.864 393.888 551.298 394.215ZM556.375 398.206C556.663 398.372 556.969 398.516 557.293 398.636C557.616 398.756 557.951 398.869 558.297 398.976L556.375 400.086C555.982 399.992 555.537 399.849 555.041 399.656C554.544 399.476 554.054 399.246 553.569 398.966C553.003 398.639 552.587 398.292 552.322 397.926C552.068 397.566 552.033 397.179 552.218 396.766C552.425 396.352 552.934 395.912 553.742 395.446L558.297 392.816L557.067 392.106L558.159 391.476L560.445 391.796L563.182 391.076L564.827 392.026L562.818 393.186L565.468 394.716L563.528 395.836L560.878 394.306L556.323 396.936C555.965 397.142 555.797 397.359 555.82 397.586C555.855 397.806 556.04 398.012 556.375 398.206ZM571.54 398.022C572.418 398.528 573.001 399.058 573.29 399.612C573.59 400.172 573.596 400.735 573.307 401.302C573.018 401.868 572.412 402.418 571.488 402.952L570.241 403.672L564.144 400.152C563.44 400.585 563.082 401.038 563.071 401.512C563.071 401.992 563.434 402.442 564.162 402.862C564.774 403.215 565.386 403.502 565.998 403.722C566.621 403.935 567.326 404.122 568.111 404.282L566.119 405.432C565.426 405.298 564.768 405.112 564.144 404.872C563.521 404.645 562.845 404.322 562.118 403.902C561.171 403.355 560.507 402.772 560.126 402.152C559.757 401.525 559.722 400.885 560.022 400.232C560.322 399.578 561.015 398.938 562.101 398.312C563.209 397.672 564.312 397.248 565.409 397.042C566.529 396.835 567.609 396.818 568.648 396.992C569.687 397.165 570.651 397.508 571.54 398.022ZM569.722 399.092C569.225 398.805 568.648 398.658 567.99 398.652C567.343 398.652 566.65 398.832 565.911 399.192L569.531 401.282C569.912 401.062 570.184 400.825 570.345 400.572C570.518 400.325 570.559 400.075 570.466 399.822C570.374 399.568 570.126 399.325 569.722 399.092ZM588.979 408.09C590.053 408.71 590.584 409.337 590.572 409.97C590.584 410.603 589.984 411.27 588.771 411.97L582.605 415.53L580.024 414.04L585.549 410.85C586.231 410.457 586.623 410.097 586.727 409.77C586.843 409.437 586.658 409.13 586.173 408.85C585.492 408.457 584.764 408.317 583.991 408.43C583.217 408.543 582.374 408.863 581.462 409.39L576.716 412.13L574.135 410.64L579.66 407.45C580.111 407.19 580.434 406.943 580.63 406.71C580.827 406.477 580.896 406.257 580.838 406.05C580.792 405.837 580.607 405.637 580.284 405.45C579.811 405.177 579.314 405.03 578.794 405.01C578.275 404.99 577.726 405.08 577.149 405.28C576.572 405.48 575.948 405.773 575.278 406.16L570.827 408.73L568.246 407.24L577.703 401.78L579.678 402.92L578.812 403.82L578.95 403.9C579.47 403.827 579.972 403.817 580.457 403.87C580.954 403.917 581.421 404.013 581.86 404.16C582.322 404.307 582.732 404.483 583.09 404.69C583.783 405.09 584.256 405.497 584.51 405.91C584.776 406.317 584.799 406.73 584.58 407.15L584.805 407.28C585.578 407.167 586.329 407.193 587.056 407.36C587.795 407.533 588.436 407.777 588.979 408.09Z" fill="#2D3339"/>
</g>
<g clip-path="url(#clip2_614_3047)">
<rect width="144" height="40" rx="20" transform="matrix(0.866025 0.5 -0.866025 0.5 110.641 119.929)" fill="#DEE4F9"/>
<path d="M123.198 143.059C124.272 143.679 124.803 144.305 124.791 144.939C124.803 145.572 124.202 146.239 122.99 146.939L116.824 150.499L114.243 149.009L119.768 145.819C120.45 145.425 120.842 145.065 120.946 144.739C121.062 144.405 120.877 144.099 120.392 143.819C119.711 143.425 118.983 143.285 118.21 143.399C117.436 143.512 116.593 143.832 115.681 144.359L110.935 147.099L108.354 145.609L113.879 142.419C114.33 142.159 114.653 141.912 114.849 141.679C115.046 141.445 115.115 141.225 115.057 141.019C115.011 140.805 114.826 140.605 114.503 140.419C114.03 140.145 113.533 139.999 113.013 139.979C112.494 139.959 111.945 140.049 111.368 140.249C110.791 140.449 110.167 140.742 109.497 141.129L105.046 143.699L102.465 142.209L111.922 136.749L113.897 137.889L113.031 138.789L113.169 138.869C113.689 138.795 114.191 138.785 114.676 138.839C115.173 138.885 115.64 138.982 116.079 139.129C116.541 139.275 116.951 139.452 117.309 139.659C118.002 140.059 118.475 140.465 118.729 140.879C118.995 141.285 119.018 141.699 118.798 142.119L119.024 142.249C119.797 142.135 120.548 142.162 121.275 142.329C122.014 142.502 122.655 142.745 123.198 143.059ZM132.818 154.253C132.033 154.706 131.225 155.046 130.393 155.273C129.573 155.506 128.748 155.63 127.916 155.643C127.108 155.656 126.311 155.563 125.526 155.363C124.753 155.156 124.008 154.846 123.292 154.433C122.634 154.053 122.126 153.64 121.768 153.193C121.433 152.746 121.271 152.286 121.283 151.813C121.306 151.333 121.508 150.85 121.889 150.363C122.281 149.883 122.87 149.416 123.656 148.963C124.706 148.356 125.774 147.953 126.86 147.753C127.957 147.546 129.042 147.533 130.116 147.713C131.19 147.893 132.2 148.256 133.147 148.803C134.036 149.316 134.631 149.88 134.931 150.493C135.231 151.106 135.214 151.736 134.879 152.383C134.556 153.023 133.869 153.646 132.818 154.253ZM126.288 150.483C125.665 150.843 125.203 151.183 124.903 151.503C124.625 151.823 124.522 152.13 124.591 152.423C124.672 152.71 124.943 152.986 125.405 153.253C125.867 153.52 126.34 153.673 126.825 153.713C127.333 153.753 127.859 153.69 128.401 153.523C128.967 153.356 129.562 153.093 130.185 152.733C130.809 152.373 131.259 152.033 131.536 151.713C131.825 151.4 131.929 151.1 131.848 150.813C131.767 150.526 131.496 150.25 131.034 149.983C130.353 149.59 129.62 149.44 128.834 149.533C128.072 149.626 127.224 149.943 126.288 150.483ZM142.884 153.884C142.526 154.091 142.162 154.288 141.793 154.474C141.423 154.661 141.129 154.804 140.909 154.904L141.013 154.964C141.66 154.884 142.329 154.891 143.022 154.984C143.727 155.071 144.419 155.311 145.101 155.704C146.163 156.318 146.608 157.054 146.434 157.914C146.273 158.768 145.389 159.658 143.784 160.584C142.711 161.204 141.648 161.638 140.597 161.884C139.57 162.131 138.6 162.204 137.688 162.104C136.775 162.004 135.956 161.744 135.228 161.324C134.535 160.924 134.108 160.538 133.946 160.164C133.808 159.791 133.767 159.441 133.825 159.114L133.652 159.014L132.18 159.364L130.205 158.224L143.369 150.624L145.949 152.114L142.884 153.884ZM142.208 156.414C141.758 156.154 141.308 156.001 140.857 155.954C140.407 155.908 139.928 155.958 139.42 156.104C138.935 156.251 138.403 156.484 137.826 156.804L137.549 156.964C136.637 157.491 136.065 157.974 135.834 158.414C135.626 158.854 135.88 159.281 136.596 159.694C137.128 160.001 137.792 160.104 138.588 160.004C139.397 159.898 140.263 159.578 141.186 159.044C142.11 158.511 142.641 158.018 142.78 157.564C142.941 157.111 142.751 156.728 142.208 156.414ZM153.204 160.582L143.747 166.042L141.166 164.552L150.623 159.092L153.204 160.582ZM155.628 157.702C156.009 157.922 156.246 158.166 156.339 158.432C156.442 158.692 156.252 158.962 155.767 159.242C155.294 159.516 154.826 159.626 154.364 159.572C153.902 159.519 153.481 159.382 153.1 159.162C152.707 158.936 152.465 158.689 152.372 158.422C152.291 158.162 152.488 157.896 152.961 157.622C153.446 157.342 153.908 157.229 154.347 157.282C154.809 157.336 155.236 157.476 155.628 157.702ZM149.024 169.089L146.443 167.599L159.607 159.999L162.187 161.489L149.024 169.089ZM165.248 167.336C166.125 167.843 166.708 168.373 166.997 168.926C167.297 169.486 167.303 170.05 167.014 170.616C166.726 171.183 166.12 171.733 165.196 172.266L163.949 172.986L157.852 169.466C157.148 169.9 156.79 170.353 156.778 170.826C156.778 171.306 157.142 171.756 157.869 172.176C158.481 172.53 159.093 172.816 159.705 173.036C160.329 173.25 161.033 173.436 161.818 173.596L159.826 174.746C159.134 174.613 158.475 174.426 157.852 174.186C157.228 173.96 156.553 173.636 155.825 173.216C154.879 172.67 154.215 172.086 153.834 171.466C153.464 170.84 153.429 170.2 153.73 169.546C154.03 168.893 154.723 168.253 155.808 167.626C156.917 166.986 158.019 166.563 159.116 166.356C160.236 166.15 161.316 166.133 162.355 166.306C163.394 166.48 164.359 166.823 165.248 167.336ZM163.429 168.406C162.933 168.12 162.355 167.973 161.697 167.966C161.05 167.966 160.358 168.146 159.619 168.506L163.239 170.596C163.62 170.376 163.891 170.14 164.053 169.886C164.226 169.64 164.266 169.39 164.174 169.136C164.082 168.883 163.833 168.64 163.429 168.406ZM179.98 175.822C181.251 176.555 181.943 177.275 182.059 177.982C182.197 178.689 181.701 179.369 180.569 180.022L174.265 183.662L172.463 182.622L173.243 181.592L173.173 181.552C172.573 181.592 172.019 181.592 171.511 181.552C171.014 181.519 170.535 181.422 170.073 181.262C169.611 181.115 169.115 180.889 168.583 180.582C168.029 180.262 167.631 179.912 167.388 179.532C167.169 179.152 167.152 178.762 167.336 178.362C167.533 177.955 167.971 177.555 168.653 177.162C169.657 176.582 170.749 176.359 171.926 176.492C173.116 176.619 174.438 177.075 175.893 177.862L177.59 178.782L178.006 178.542C178.502 178.255 178.733 177.969 178.699 177.682C178.676 177.402 178.433 177.129 177.971 176.862C177.509 176.595 176.99 176.375 176.412 176.202C175.847 176.022 175.246 175.862 174.611 175.722L175.512 174.222C176.285 174.362 177.053 174.565 177.815 174.832C178.589 175.105 179.311 175.435 179.98 175.822ZM175.044 179.092C174.19 178.625 173.462 178.379 172.862 178.352C172.261 178.325 171.736 178.442 171.285 178.702C170.893 178.929 170.725 179.159 170.783 179.392C170.852 179.619 171.072 179.839 171.441 180.052C171.996 180.372 172.625 180.549 173.329 180.582C174.045 180.609 174.703 180.449 175.304 180.102L176.083 179.652L175.044 179.092ZM191.802 182.667C192.864 183.281 193.309 184.017 193.136 184.877C192.974 185.731 192.091 186.621 190.485 187.547C189.412 188.167 188.349 188.601 187.299 188.847C186.259 189.087 185.284 189.157 184.371 189.057C183.459 188.957 182.645 188.701 181.929 188.287C181.479 188.027 181.144 187.767 180.925 187.507C180.717 187.254 180.59 187.007 180.544 186.767C180.497 186.527 180.492 186.297 180.526 186.077L180.388 185.997C180.214 186.151 180.018 186.304 179.799 186.457C179.591 186.604 179.372 186.744 179.141 186.877L175.33 189.077L172.749 187.587L186.363 179.727L188.459 180.937L187.593 181.857L187.714 181.927C188.141 181.881 188.58 181.867 189.031 181.887C189.492 181.901 189.954 181.967 190.416 182.087C190.89 182.214 191.352 182.407 191.802 182.667ZM188.909 183.377C188.459 183.117 188.009 182.964 187.558 182.917C187.108 182.871 186.629 182.921 186.121 183.067C185.636 183.214 185.105 183.447 184.527 183.767L184.25 183.927C183.638 184.281 183.176 184.614 182.864 184.927C182.564 185.234 182.443 185.531 182.501 185.817C182.558 186.104 182.824 186.384 183.297 186.657C183.69 186.884 184.123 187.007 184.597 187.027C185.07 187.047 185.584 186.971 186.138 186.797C186.692 186.624 187.275 186.361 187.887 186.007C188.811 185.474 189.36 184.991 189.533 184.557C189.729 184.124 189.521 183.731 188.909 183.377ZM202.762 188.995C203.825 189.609 204.269 190.345 204.096 191.205C203.935 192.059 203.051 192.949 201.446 193.875C200.372 194.495 199.31 194.929 198.259 195.175C197.22 195.415 196.244 195.485 195.332 195.385C194.42 195.285 193.606 195.029 192.89 194.615C192.439 194.355 192.105 194.095 191.885 193.835C191.677 193.582 191.55 193.335 191.504 193.095C191.458 192.855 191.452 192.625 191.487 192.405L191.348 192.325C191.175 192.479 190.979 192.632 190.759 192.785C190.552 192.932 190.332 193.072 190.101 193.205L186.291 195.405L183.71 193.915L197.324 186.055L199.42 187.265L198.554 188.185L198.675 188.255C199.102 188.209 199.541 188.195 199.991 188.215C200.453 188.229 200.915 188.295 201.377 188.415C201.85 188.542 202.312 188.735 202.762 188.995ZM199.87 189.705C199.42 189.445 198.969 189.292 198.519 189.245C198.069 189.199 197.589 189.249 197.081 189.395C196.596 189.542 196.065 189.775 195.488 190.095L195.211 190.255C194.599 190.609 194.137 190.942 193.825 191.255C193.525 191.562 193.404 191.859 193.461 192.145C193.519 192.432 193.785 192.712 194.258 192.985C194.651 193.212 195.084 193.335 195.557 193.355C196.031 193.375 196.544 193.299 197.099 193.125C197.653 192.952 198.236 192.689 198.848 192.335C199.772 191.802 200.32 191.319 200.494 190.885C200.69 190.452 200.482 190.059 199.87 189.705Z" fill="#2D3339"/>
</g>
<g clip-path="url(#clip3_614_3047)">
<rect width="197" height="67" rx="33.5" transform="matrix(0.866025 0.5 -0.866025 0.5 95.0234 337.929)" fill="#DEE4F9"/>
<path d="M100.375 356.899C101.253 357.405 101.836 357.935 102.125 358.489C102.425 359.049 102.431 359.612 102.142 360.179C101.853 360.745 101.247 361.295 100.323 361.829L99.0763 362.549L92.9795 359.029C92.2752 359.462 91.9172 359.915 91.9056 360.389C91.9056 360.869 92.2694 361.319 92.9968 361.739C93.6088 362.092 94.2208 362.379 94.8328 362.599C95.4564 362.812 96.1607 362.999 96.9459 363.159L94.9541 364.309C94.2612 364.175 93.6031 363.989 92.9795 363.749C92.356 363.522 91.6805 363.199 90.953 362.779C90.0062 362.232 89.3422 361.649 88.9612 361.029C88.5917 360.402 88.557 359.762 88.8572 359.109C89.1575 358.455 89.8503 357.815 90.9357 357.189C92.0442 356.549 93.147 356.125 94.2439 355.919C95.364 355.712 96.4436 355.695 97.4829 355.869C98.5221 356.042 99.4863 356.385 100.375 356.899ZM98.5567 357.969C98.0602 357.682 97.4829 357.535 96.8247 357.529C96.178 357.529 95.4852 357.709 94.7462 358.069L98.3662 360.159C98.7472 359.939 99.0186 359.702 99.1803 359.449C99.3535 359.202 99.3939 358.952 99.3015 358.699C99.2091 358.445 98.9609 358.202 98.5567 357.969ZM98.9947 367.222L104.849 359.682L107.551 361.242L103.983 365.402C103.844 365.562 103.683 365.722 103.498 365.882C103.325 366.048 103.14 366.202 102.944 366.342C102.759 366.488 102.58 366.618 102.407 366.732L102.476 366.772C102.684 366.665 102.915 366.558 103.169 366.452C103.423 366.345 103.683 366.242 103.948 366.142C104.237 366.042 104.52 365.952 104.797 365.872L112.002 363.812L114.704 365.372L101.645 368.752L98.9947 367.222ZM118.642 367.645L109.185 373.105L106.604 371.615L116.061 366.155L118.642 367.645ZM121.067 364.765C121.448 364.985 121.685 365.228 121.777 365.495C121.881 365.755 121.69 366.025 121.205 366.305C120.732 366.578 120.264 366.688 119.802 366.635C119.341 366.582 118.919 366.445 118.538 366.225C118.145 365.998 117.903 365.752 117.811 365.485C117.73 365.225 117.926 364.958 118.4 364.685C118.885 364.405 119.346 364.292 119.785 364.345C120.247 364.398 120.674 364.538 121.067 364.765ZM114.705 376.492C113.654 375.885 113.204 375.152 113.354 374.292C113.527 373.432 114.416 372.539 116.021 371.612C117.638 370.679 119.197 370.165 120.698 370.072C122.199 369.979 123.492 370.245 124.578 370.872C125.028 371.132 125.363 371.399 125.582 371.672C125.813 371.939 125.946 372.202 125.981 372.462C126.027 372.729 126.004 372.989 125.911 373.242L125.998 373.292C126.148 373.165 126.373 372.989 126.673 372.762C126.985 372.529 127.326 372.305 127.695 372.092L130.726 370.342L133.307 371.832L120.143 379.432L118.169 378.292L118.896 377.292L118.792 377.232C118.377 377.285 117.932 377.302 117.459 377.282C117.008 377.262 116.552 377.192 116.09 377.072C115.629 376.952 115.167 376.759 114.705 376.492ZM117.667 375.822C118.383 376.235 119.093 376.405 119.797 376.332C120.513 376.252 121.298 375.972 122.153 375.492L122.43 375.332C123.354 374.799 123.914 374.309 124.11 373.862C124.318 373.422 124.041 372.982 123.279 372.542C122.713 372.215 122.02 372.102 121.2 372.202C120.392 372.295 119.526 372.609 118.602 373.142C117.678 373.675 117.141 374.172 116.991 374.632C116.853 375.085 117.078 375.482 117.667 375.822ZM136.37 377.68C137.247 378.187 137.83 378.717 138.119 379.27C138.419 379.83 138.425 380.393 138.136 380.96C137.848 381.527 137.241 382.077 136.318 382.61L135.071 383.33L128.974 379.81C128.269 380.243 127.911 380.697 127.9 381.17C127.9 381.65 128.264 382.1 128.991 382.52C129.603 382.873 130.215 383.16 130.827 383.38C131.451 383.593 132.155 383.78 132.94 383.94L130.948 385.09C130.255 384.957 129.597 384.77 128.974 384.53C128.35 384.303 127.675 383.98 126.947 383.56C126 383.013 125.336 382.43 124.955 381.81C124.586 381.183 124.551 380.543 124.851 379.89C125.152 379.237 125.844 378.597 126.93 377.97C128.038 377.33 129.141 376.907 130.238 376.7C131.358 376.493 132.438 376.477 133.477 376.65C134.516 376.823 135.48 377.167 136.37 377.68ZM134.551 378.75C134.054 378.463 133.477 378.317 132.819 378.31C132.172 378.31 131.479 378.49 130.74 378.85L134.36 380.94C134.741 380.72 135.013 380.483 135.174 380.23C135.348 379.983 135.388 379.733 135.296 379.48C135.203 379.227 134.955 378.983 134.551 378.75ZM148.075 384.438C149.091 385.025 149.628 385.655 149.686 386.328C149.755 386.995 149.184 387.678 147.971 388.378L141.805 391.938L139.224 390.448L144.75 387.258C145.431 386.865 145.818 386.501 145.91 386.168C146.014 385.828 145.8 385.505 145.269 385.198C144.484 384.745 143.676 384.591 142.844 384.738C142.024 384.878 141.112 385.238 140.108 385.818L135.656 388.388L133.076 386.898L142.533 381.438L144.507 382.578L143.641 383.478L143.78 383.558C144.311 383.491 144.825 383.488 145.321 383.548C145.829 383.601 146.314 383.708 146.776 383.868C147.249 384.021 147.683 384.211 148.075 384.438ZM148.131 395.79C147.196 395.25 146.566 394.694 146.243 394.12C145.931 393.54 145.96 392.944 146.33 392.33C146.699 391.717 147.444 391.087 148.564 390.44C149.719 389.774 150.856 389.344 151.976 389.15C153.096 388.957 154.176 388.96 155.215 389.16C156.266 389.367 157.247 389.734 158.16 390.26C158.806 390.634 159.303 390.994 159.649 391.34C160.007 391.694 160.278 392.024 160.463 392.33L157.709 393.04C157.467 392.714 157.218 392.417 156.964 392.15C156.722 391.89 156.428 391.66 156.081 391.46C155.631 391.2 155.146 391.047 154.626 391C154.118 390.947 153.575 391 152.998 391.16C152.444 391.32 151.849 391.584 151.214 391.95C150.591 392.31 150.146 392.654 149.88 392.98C149.638 393.307 149.563 393.617 149.655 393.91C149.759 394.197 150.025 394.464 150.452 394.71C150.995 395.024 151.543 395.26 152.097 395.42C152.663 395.574 153.269 395.69 153.916 395.77L151.716 397.04C151.07 396.96 150.475 396.824 149.932 396.63C149.39 396.45 148.789 396.17 148.131 395.79ZM166.883 395.297C167.761 395.804 168.344 396.334 168.633 396.887C168.933 397.447 168.939 398.01 168.65 398.577C168.361 399.144 167.755 399.694 166.831 400.227L165.584 400.947L159.488 397.427C158.783 397.86 158.425 398.314 158.414 398.787C158.414 399.267 158.777 399.717 159.505 400.137C160.117 400.49 160.729 400.777 161.341 400.997C161.964 401.21 162.669 401.397 163.454 401.557L161.462 402.707C160.769 402.574 160.111 402.387 159.488 402.147C158.864 401.92 158.189 401.597 157.461 401.177C156.514 400.63 155.85 400.047 155.469 399.427C155.1 398.8 155.065 398.16 155.365 397.507C155.666 396.854 156.358 396.214 157.444 395.587C158.552 394.947 159.655 394.524 160.752 394.317C161.872 394.11 162.952 394.094 163.991 394.267C165.03 394.44 165.994 394.784 166.883 395.297ZM165.065 396.367C164.568 396.08 163.991 395.934 163.333 395.927C162.686 395.927 161.993 396.107 161.254 396.467L164.874 398.557C165.255 398.337 165.527 398.1 165.688 397.847C165.862 397.6 165.902 397.35 165.81 397.097C165.717 396.844 165.469 396.6 165.065 396.367ZM188.821 407.963C189.895 408.583 190.426 409.21 190.415 409.843C190.426 410.476 189.826 411.143 188.613 411.843L182.447 415.403L179.867 413.913L185.392 410.723C186.073 410.33 186.466 409.97 186.57 409.643C186.685 409.31 186.5 409.003 186.015 408.723C185.334 408.33 184.607 408.19 183.833 408.303C183.059 408.416 182.216 408.736 181.304 409.263L176.558 412.003L173.978 410.513L179.503 407.323C179.953 407.063 180.277 406.816 180.473 406.583C180.669 406.35 180.738 406.13 180.681 405.923C180.635 405.71 180.45 405.51 180.126 405.323C179.653 405.05 179.156 404.903 178.637 404.883C178.117 404.863 177.569 404.953 176.991 405.153C176.414 405.353 175.791 405.646 175.121 406.033L170.669 408.603L168.089 407.113L177.546 401.653L179.52 402.793L178.654 403.693L178.793 403.773C179.312 403.7 179.815 403.69 180.3 403.743C180.796 403.79 181.264 403.886 181.703 404.033C182.164 404.18 182.574 404.356 182.932 404.563C183.625 404.963 184.099 405.37 184.353 405.783C184.618 406.19 184.641 406.603 184.422 407.023L184.647 407.153C185.421 407.04 186.171 407.066 186.899 407.233C187.638 407.406 188.279 407.65 188.821 407.963ZM197.801 413.147C198.378 413.481 198.782 413.847 199.013 414.247C199.244 414.647 199.29 415.074 199.152 415.527L199.221 415.567L200.641 414.987L202.824 416.247L193.349 421.717C192.449 422.237 191.513 422.571 190.543 422.717C189.585 422.871 188.598 422.834 187.582 422.607C186.554 422.387 185.52 421.977 184.481 421.377C183.811 420.991 183.228 420.607 182.732 420.227C182.247 419.854 181.837 419.451 181.502 419.017L183.563 417.827C183.794 418.147 184.054 418.451 184.343 418.737C184.631 419.037 184.96 419.321 185.33 419.587C185.699 419.867 186.098 420.131 186.525 420.377C187.195 420.764 187.87 420.947 188.552 420.927C189.244 420.914 189.949 420.701 190.665 420.287L190.855 420.177C191.051 420.064 191.259 419.951 191.479 419.837C191.71 419.731 191.912 419.634 192.085 419.547L192.016 419.507C191.196 419.607 190.451 419.591 189.781 419.457C189.112 419.324 188.494 419.094 187.928 418.767C186.808 418.121 186.358 417.367 186.577 416.507C186.819 415.647 187.709 414.774 189.244 413.887C190.284 413.287 191.311 412.861 192.327 412.607C193.355 412.347 194.331 412.264 195.255 412.357C196.201 412.451 197.05 412.714 197.801 413.147ZM196.519 414.827C196.115 414.594 195.664 414.461 195.168 414.427C194.695 414.394 194.175 414.461 193.609 414.627C193.066 414.794 192.477 415.061 191.842 415.427C190.896 415.974 190.336 416.471 190.162 416.917C190.001 417.357 190.237 417.761 190.872 418.127C191.207 418.321 191.536 418.464 191.86 418.557C192.195 418.644 192.535 418.674 192.882 418.647C193.251 418.621 193.638 418.537 194.042 418.397C194.446 418.257 194.879 418.054 195.341 417.787L195.653 417.607C196.334 417.214 196.813 416.857 197.091 416.537C197.368 416.217 197.454 415.921 197.35 415.647C197.258 415.367 196.981 415.094 196.519 414.827ZM216.798 424.115C217.872 424.735 218.403 425.362 218.391 425.995C218.403 426.629 217.803 427.295 216.59 427.995L210.424 431.555L207.843 430.065L213.369 426.875C214.05 426.482 214.442 426.122 214.546 425.795C214.662 425.462 214.477 425.155 213.992 424.875C213.311 424.482 212.583 424.342 211.81 424.455C211.036 424.569 210.193 424.889 209.281 425.415L204.535 428.155L201.954 426.665L207.48 423.475C207.93 423.215 208.253 422.969 208.45 422.735C208.646 422.502 208.715 422.282 208.657 422.075C208.611 421.862 208.426 421.662 208.103 421.475C207.63 421.202 207.133 421.055 206.614 421.035C206.094 421.015 205.545 421.105 204.968 421.305C204.391 421.505 203.767 421.799 203.097 422.185L198.646 424.755L196.065 423.265L205.522 417.805L207.497 418.945L206.631 419.845L206.769 419.925C207.289 419.852 207.791 419.842 208.276 419.895C208.773 419.942 209.24 420.039 209.679 420.185C210.141 420.332 210.551 420.509 210.909 420.715C211.602 421.115 212.075 421.522 212.329 421.935C212.595 422.342 212.618 422.755 212.399 423.175L212.624 423.305C213.397 423.192 214.148 423.219 214.875 423.385C215.614 423.559 216.255 423.802 216.798 424.115ZM218.953 434.3C219.242 434.466 219.548 434.61 219.871 434.73C220.194 434.85 220.529 434.963 220.876 435.07L218.953 436.18C218.56 436.086 218.116 435.943 217.619 435.75C217.123 435.57 216.632 435.34 216.147 435.06C215.581 434.733 215.166 434.386 214.9 434.02C214.646 433.66 214.611 433.273 214.796 432.86C215.004 432.446 215.512 432.006 216.32 431.54L220.876 428.91L219.646 428.2L220.737 427.57L223.023 427.89L225.76 427.17L227.405 428.12L225.396 429.28L228.046 430.81L226.106 431.93L223.456 430.4L218.901 433.03C218.543 433.236 218.376 433.453 218.399 433.68C218.433 433.9 218.618 434.106 218.953 434.3ZM79.1578 369.289C79.8275 369.675 80.3182 370.079 80.63 370.499C80.9418 370.919 81.0457 371.332 80.9418 371.739C80.8494 372.139 80.5145 372.505 79.9372 372.839C79.1404 373.299 78.234 373.549 77.2179 373.589C76.2017 373.629 75.1394 373.562 74.0309 373.389L74.1002 376.129C74.7237 376.035 75.3357 375.915 75.9361 375.769C76.5481 375.615 77.1313 375.445 77.6855 375.259L80.3702 376.809C79.5504 377.082 78.6035 377.335 77.5296 377.569C76.4558 377.802 75.3357 377.955 74.1694 378.029L74.2387 380.929L71.0518 379.089L71.0344 377.979C70.6072 377.932 70.1857 377.869 69.77 377.789C69.3543 377.709 68.9444 377.612 68.5403 377.499C68.1477 377.379 67.7609 377.235 67.3798 377.069C66.9872 376.909 66.6119 376.725 66.254 376.519C65.3187 375.979 64.6605 375.432 64.2794 374.879C63.9099 374.319 63.8118 373.782 63.985 373.269C64.1582 372.755 64.5912 372.299 65.284 371.899C65.8729 371.559 66.4618 371.319 67.0507 371.179C67.6627 371.039 68.292 370.975 68.9387 370.989C69.6084 371.002 70.3127 371.069 71.0518 371.189C71.0979 370.815 71.1788 370.489 71.2942 370.209C71.4328 369.929 71.6118 369.679 71.8312 369.459C72.0621 369.245 72.345 369.042 72.6799 368.849C73.2688 368.509 73.927 368.302 74.6544 368.229C75.3934 368.162 76.1498 368.219 76.9234 368.399C77.7086 368.585 78.4534 368.882 79.1578 369.289ZM71.0171 372.949C70.6361 372.915 70.2781 372.902 69.9432 372.909C69.6199 372.922 69.3139 372.959 69.0253 373.019C68.7481 373.085 68.4883 373.189 68.2458 373.329C67.7493 373.615 67.5415 373.949 67.6223 374.329C67.7147 374.702 68.038 375.049 68.5922 375.369C68.9617 375.582 69.3543 375.755 69.77 375.889C70.1857 376.022 70.6072 376.119 71.0344 376.179L71.0171 372.949ZM77.1486 370.429C76.8599 370.262 76.5077 370.145 76.092 370.079C75.6994 370.012 75.3011 370.095 74.8969 370.329C74.6082 370.495 74.4004 370.695 74.2734 370.929C74.1579 371.169 74.0828 371.439 74.0482 371.739C74.7988 371.865 75.4338 371.925 75.9535 371.919C76.4846 371.919 76.9234 371.819 77.2698 371.619C77.6162 371.419 77.749 371.209 77.6682 370.989C77.5874 370.769 77.4142 370.582 77.1486 370.429ZM92.8369 382.986L90.6025 381.696L83.0854 386.036L80.5047 384.546L88.0218 380.206L86.6015 379.386L87.8486 378.666L89.9617 379.086L90.6545 378.686C91.4628 378.22 92.2191 377.936 92.9235 377.836C93.651 377.736 94.3553 377.776 95.0366 377.956C95.7294 378.143 96.4165 378.433 97.0977 378.826C97.6058 379.12 98.0215 379.406 98.3448 379.686C98.6797 379.973 98.9222 380.22 99.0723 380.426L96.5262 381.136C96.3876 380.99 96.2259 380.836 96.0412 380.676C95.868 380.51 95.6313 380.34 95.331 380.166C94.9731 379.96 94.5978 379.87 94.2052 379.896C93.8242 379.93 93.4662 380.043 93.1313 380.236L92.5424 380.576L94.7768 381.866L92.8369 382.986ZM89.3728 389.666L86.792 388.176L99.9556 380.576L102.536 382.066L89.3728 389.666ZM105.609 387.92C106.486 388.427 107.069 388.957 107.358 389.51C107.658 390.07 107.664 390.634 107.375 391.2C107.087 391.767 106.481 392.317 105.557 392.85L104.31 393.57L98.2129 390.05C97.5085 390.484 97.1506 390.937 97.139 391.41C97.139 391.89 97.5027 392.34 98.2302 392.76C98.8422 393.114 99.4542 393.4 100.066 393.62C100.69 393.834 101.394 394.02 102.179 394.18L100.187 395.33C99.4946 395.197 98.8364 395.01 98.2129 394.77C97.5893 394.544 96.9138 394.22 96.1864 393.8C95.2395 393.254 94.5756 392.67 94.1945 392.05C93.825 391.424 93.7904 390.784 94.0906 390.13C94.3908 389.477 95.0836 388.837 96.1691 388.21C97.2776 387.57 98.3803 387.147 99.4773 386.94C100.597 386.734 101.677 386.717 102.716 386.89C103.755 387.064 104.72 387.407 105.609 387.92ZM103.79 388.99C103.294 388.704 102.716 388.557 102.058 388.55C101.411 388.55 100.719 388.73 99.9796 389.09L103.6 391.18C103.981 390.96 104.252 390.724 104.414 390.47C104.587 390.224 104.627 389.974 104.535 389.72C104.442 389.467 104.194 389.224 103.79 388.99ZM115.842 393.828C116.72 394.335 117.303 394.865 117.591 395.418C117.892 395.978 117.897 396.542 117.609 397.108C117.32 397.675 116.714 398.225 115.79 398.758L114.543 399.478L108.446 395.958C107.742 396.392 107.384 396.845 107.372 397.318C107.372 397.798 107.736 398.248 108.464 398.668C109.076 399.022 109.687 399.308 110.299 399.528C110.923 399.742 111.627 399.928 112.413 400.088L110.421 401.238C109.728 401.105 109.07 400.918 108.446 400.678C107.823 400.452 107.147 400.128 106.42 399.708C105.473 399.162 104.809 398.578 104.428 397.958C104.058 397.332 104.024 396.692 104.324 396.038C104.624 395.385 105.317 394.745 106.402 394.118C107.511 393.478 108.614 393.055 109.711 392.848C110.831 392.642 111.91 392.625 112.95 392.798C113.989 392.972 114.953 393.315 115.842 393.828ZM114.023 394.898C113.527 394.612 112.95 394.465 112.291 394.458C111.645 394.458 110.952 394.638 110.213 394.998L113.833 397.088C114.214 396.868 114.485 396.632 114.647 396.378C114.82 396.132 114.861 395.882 114.768 395.628C114.676 395.375 114.428 395.132 114.023 394.898ZM118.42 404.257C118.708 404.423 119.014 404.567 119.338 404.687C119.661 404.807 119.996 404.92 120.342 405.027L118.42 406.137C118.027 406.043 117.583 405.9 117.086 405.707C116.589 405.527 116.099 405.297 115.614 405.017C115.048 404.69 114.632 404.343 114.367 403.977C114.113 403.617 114.078 403.23 114.263 402.817C114.471 402.403 114.979 401.963 115.787 401.497L120.342 398.867L119.113 398.157L120.204 397.527L122.49 397.847L125.227 397.127L126.872 398.077L124.863 399.237L127.513 400.767L125.573 401.887L122.923 400.357L118.368 402.987C118.01 403.193 117.842 403.41 117.865 403.637C117.9 403.857 118.085 404.063 118.42 404.257ZM145.29 410.83C146.364 411.45 146.895 412.077 146.884 412.71C146.895 413.344 146.295 414.01 145.082 414.71L138.916 418.27L136.335 416.78L141.861 413.59C142.542 413.197 142.934 412.837 143.038 412.51C143.154 412.177 142.969 411.87 142.484 411.59C141.803 411.197 141.075 411.057 140.302 411.17C139.528 411.284 138.685 411.604 137.773 412.13L133.027 414.87L130.446 413.38L135.972 410.19C136.422 409.93 136.745 409.684 136.942 409.45C137.138 409.217 137.207 408.997 137.149 408.79C137.103 408.577 136.918 408.377 136.595 408.19C136.122 407.917 135.625 407.77 135.106 407.75C134.586 407.73 134.037 407.82 133.46 408.02C132.883 408.22 132.259 408.514 131.59 408.9L127.138 411.47L124.557 409.98L134.014 404.52L135.989 405.66L135.123 406.56L135.261 406.64C135.781 406.567 136.283 406.557 136.768 406.61C137.265 406.657 137.733 406.754 138.171 406.9C138.633 407.047 139.043 407.224 139.401 407.43C140.094 407.83 140.567 408.237 140.821 408.65C141.087 409.057 141.11 409.47 140.891 409.89L141.116 410.02C141.889 409.907 142.64 409.934 143.367 410.1C144.106 410.274 144.747 410.517 145.29 410.83ZM154.269 416.014C154.847 416.348 155.251 416.714 155.482 417.114C155.713 417.514 155.759 417.941 155.62 418.394L155.69 418.434L157.11 417.854L159.292 419.114L149.818 424.584C148.917 425.104 147.982 425.438 147.012 425.584C146.054 425.738 145.066 425.701 144.05 425.474C143.023 425.254 141.989 424.844 140.95 424.244C140.28 423.858 139.697 423.474 139.201 423.094C138.716 422.721 138.306 422.318 137.971 421.884L140.032 420.694C140.263 421.014 140.523 421.318 140.811 421.604C141.1 421.904 141.429 422.188 141.799 422.454C142.168 422.734 142.566 422.998 142.994 423.244C143.663 423.631 144.339 423.814 145.02 423.794C145.713 423.781 146.417 423.568 147.133 423.154L147.324 423.044C147.52 422.931 147.728 422.818 147.947 422.704C148.178 422.598 148.38 422.501 148.554 422.414L148.484 422.374C147.664 422.474 146.92 422.458 146.25 422.324C145.58 422.191 144.962 421.961 144.397 421.634C143.277 420.988 142.826 420.234 143.046 419.374C143.288 418.514 144.177 417.641 145.713 416.754C146.752 416.154 147.78 415.728 148.796 415.474C149.824 415.214 150.799 415.131 151.723 415.224C152.67 415.318 153.519 415.581 154.269 416.014ZM152.988 417.694C152.583 417.461 152.133 417.328 151.637 417.294C151.163 417.261 150.644 417.328 150.078 417.494C149.535 417.661 148.946 417.928 148.311 418.294C147.364 418.841 146.804 419.338 146.631 419.784C146.469 420.224 146.706 420.628 147.341 420.994C147.676 421.188 148.005 421.331 148.328 421.424C148.663 421.511 149.004 421.541 149.35 421.514C149.72 421.488 150.107 421.404 150.511 421.264C150.915 421.124 151.348 420.921 151.81 420.654L152.122 420.474C152.803 420.081 153.282 419.724 153.559 419.404C153.836 419.084 153.923 418.788 153.819 418.514C153.727 418.234 153.45 417.961 152.988 417.694ZM173.267 426.983C174.341 427.603 174.872 428.229 174.86 428.863C174.872 429.496 174.271 430.163 173.059 430.863L166.893 434.423L164.312 432.933L169.837 429.743C170.519 429.349 170.911 428.989 171.015 428.663C171.131 428.329 170.946 428.023 170.461 427.743C169.78 427.349 169.052 427.209 168.278 427.323C167.505 427.436 166.662 427.756 165.75 428.283L161.004 431.023L158.423 429.533L163.948 426.343C164.399 426.083 164.722 425.836 164.918 425.603C165.115 425.369 165.184 425.149 165.126 424.943C165.08 424.729 164.895 424.529 164.572 424.343C164.098 424.069 163.602 423.923 163.082 423.903C162.563 423.883 162.014 423.973 161.437 424.173C160.859 424.373 160.236 424.666 159.566 425.053L155.115 427.623L152.534 426.133L161.991 420.673L163.966 421.813L163.1 422.713L163.238 422.793C163.758 422.719 164.26 422.709 164.745 422.763C165.242 422.809 165.709 422.906 166.148 423.053C166.61 423.199 167.02 423.376 167.378 423.583C168.071 423.983 168.544 424.389 168.798 424.803C169.064 425.209 169.087 425.623 168.867 426.043L169.092 426.173C169.866 426.059 170.617 426.086 171.344 426.253C172.083 426.426 172.724 426.669 173.267 426.983ZM175.422 437.167C175.71 437.333 176.016 437.477 176.34 437.597C176.663 437.717 176.998 437.83 177.344 437.937L175.422 439.047C175.029 438.953 174.585 438.81 174.088 438.617C173.592 438.437 173.101 438.207 172.616 437.927C172.05 437.6 171.634 437.253 171.369 436.887C171.115 436.527 171.08 436.14 171.265 435.727C171.473 435.313 171.981 434.873 172.789 434.407L177.344 431.777L176.115 431.067L177.206 430.437L179.492 430.757L182.229 430.037L183.874 430.987L181.865 432.147L184.515 433.677L182.575 434.797L179.925 433.267L175.37 435.897C175.012 436.103 174.844 436.32 174.867 436.547C174.902 436.767 175.087 436.973 175.422 437.167ZM190.964 445.08C190.329 445.447 189.637 445.674 188.886 445.76C188.147 445.84 187.362 445.774 186.53 445.56C185.699 445.347 184.839 444.984 183.95 444.47C183.291 444.09 182.772 443.737 182.391 443.41C181.998 443.09 181.663 442.737 181.386 442.35L183.517 441.12C183.794 441.547 184.152 441.974 184.591 442.4C185.029 442.827 185.474 443.17 185.924 443.43C186.432 443.724 186.865 443.887 187.223 443.92C187.593 443.96 187.899 443.91 188.141 443.77C188.303 443.677 188.401 443.567 188.436 443.44C188.482 443.32 188.441 443.13 188.314 442.87C188.187 442.61 187.945 442.23 187.587 441.73C187.252 441.244 187.015 440.82 186.877 440.46C186.75 440.094 186.767 439.757 186.929 439.45C187.102 439.137 187.454 438.827 187.985 438.52C188.863 438.014 189.862 437.83 190.982 437.97C192.102 438.11 193.228 438.507 194.359 439.16C194.948 439.5 195.45 439.857 195.866 440.23C196.282 440.604 196.64 441.03 196.94 441.51L194.307 442.13C194.134 441.87 193.955 441.627 193.77 441.4C193.586 441.174 193.384 440.964 193.164 440.77C192.956 440.584 192.708 440.407 192.419 440.24C192.038 440.02 191.698 439.884 191.397 439.83C191.109 439.784 190.861 439.82 190.653 439.94C190.503 440.027 190.41 440.134 190.376 440.26C190.364 440.387 190.428 440.57 190.566 440.81C190.716 441.057 190.953 441.407 191.276 441.86C191.6 442.3 191.836 442.704 191.986 443.07C192.148 443.43 192.154 443.774 192.004 444.1C191.877 444.427 191.53 444.754 190.964 445.08ZM200.527 450.021C200.677 449.881 200.896 449.674 201.185 449.401C201.497 449.128 201.82 448.834 202.155 448.521C202.501 448.201 202.813 447.908 203.09 447.641C203.379 447.368 203.592 447.171 203.731 447.051L203.662 447.011C203.454 447.091 203.113 447.214 202.64 447.381C202.189 447.548 201.687 447.731 201.133 447.931C200.59 448.124 200.076 448.308 199.591 448.481C199.106 448.654 198.737 448.788 198.483 448.881L194.447 450.331L191.676 448.731L198.448 441.721L201.012 443.201L197.911 446.251C197.703 446.464 197.426 446.704 197.08 446.971C196.745 447.244 196.416 447.508 196.093 447.761C195.781 448.008 195.527 448.201 195.33 448.341L195.4 448.381C195.573 448.294 195.81 448.184 196.11 448.051C196.422 447.911 196.745 447.771 197.08 447.631C197.426 447.498 197.732 447.374 197.998 447.261C198.286 447.148 198.483 447.074 198.587 447.041L204.285 445.091L207.126 446.731L203.696 449.991C203.581 450.111 203.373 450.291 203.073 450.531C202.784 450.778 202.478 451.021 202.155 451.261C201.843 451.508 201.577 451.694 201.358 451.821L201.427 451.861C201.647 451.761 201.97 451.621 202.397 451.441C202.836 451.254 203.298 451.061 203.783 450.861C204.279 450.668 204.712 450.511 205.082 450.391L210.399 448.621L212.928 450.081L200.752 453.971L197.946 452.351L200.527 450.021Z" fill="#2D3339"/>
</g>
<path d="M174.752 55.8916C176.205 55.0421 177.949 55.3139 179.484 56.2002L207.521 72.3877C209.059 73.2752 210.367 74.7374 211.286 76.3301C212.206 77.9228 212.818 79.7865 212.818 81.5615V142.812C212.818 143.794 212.688 144.7 212.188 145.511C211.704 146.298 210.982 146.808 210.266 147.246C210.255 147.253 210.244 147.259 210.233 147.266L202.028 152.003C201.139 152.517 200.176 152.555 199.383 152.428C198.589 152.3 197.852 151.992 197.271 151.657L169.234 135.47C167.697 134.582 166.389 133.12 165.47 131.527C164.55 129.935 163.938 128.071 163.938 126.296V65.0459C163.938 62.9776 164.833 61.0851 166.744 60.4834L174.752 55.8926V55.8916Z" fill="#474C59" stroke="#474C59" stroke-width="3" stroke-linejoin="round"/>
<path d="M167.075 62.038L174.117 66.1034L174.117 121.429C174.117 123.91 175.608 126.851 177.612 128.556L169.79 133.018L200.491 150.598C200.8 150.775 201.179 150.775 201.488 150.597L209.413 146.021C210.772 145.19 211.248 144.592 211.248 142.866L211.248 81.6161C211.248 78.7166 209.212 75.1908 206.701 73.7411L178.663 57.5536C177.402 56.8256 176.262 56.7595 175.438 57.2412L167.075 62.038Z" fill="url(#paint0_linear_614_3047)"/>
<path d="M165.366 65.1005C165.366 62.201 167.402 61.0257 169.913 62.4755L197.95 78.663C200.461 80.1127 202.497 83.6385 202.497 86.538V147.788C202.497 150.687 200.461 151.863 197.95 150.413L169.913 134.225C167.402 132.776 165.366 129.25 165.366 126.35L165.366 65.1005Z" fill="url(#paint1_linear_614_3047)"/>
<ellipse cx="3.9375" cy="3.9375" rx="3.9375" ry="3.9375" transform="matrix(0.866025 0.5 -2.20305e-08 1 179.646 128.647)" fill="url(#paint2_linear_614_3047)"/>
<path d="M169.7 72.2099C169.7 70.2769 171.057 69.4934 172.731 70.4599L193.949 82.7099C195.623 83.6764 196.98 86.0269 196.98 87.9599V131.71C196.98 133.643 195.623 134.426 193.949 133.46L172.731 121.21C171.057 120.243 169.7 117.893 169.7 115.96L169.7 72.2099Z" fill="url(#paint3_linear_614_3047)"/>
<path d="M260.684 88.6445L339.743 42.9998C349.308 37.477 364.818 37.477 374.384 42.9998L453.443 88.6445" stroke="#3479FF" stroke-width="4" stroke-dasharray="4 4"/>
<path d="M251.521 92.4971C251.521 93.2781 252.618 93.9113 253.971 93.9113L276.016 93.9113C277.369 93.9113 278.466 93.2781 278.466 92.4971C278.466 91.716 277.369 91.0829 276.016 91.0829L256.42 91.0829L256.42 79.7692C256.42 78.9881 255.324 78.3549 253.971 78.3549C252.618 78.3549 251.521 78.9881 251.521 79.7692L251.521 92.4971ZM253.971 92.4971L255.703 93.4971L257.6 92.4017L255.868 91.4017L254.136 90.4017L252.239 91.4971L253.971 92.4971ZM259.662 89.211L261.394 90.211L263.292 89.1156L261.56 88.1156L259.828 87.1156L257.93 88.211L259.662 89.211Z" fill="#3479FF"/>
<path d="M460.155 93.9109C461.508 93.9109 462.605 93.2778 462.605 92.4967L462.605 79.7688C462.605 78.9877 461.508 78.3546 460.155 78.3546C458.803 78.3546 457.706 78.9877 457.706 79.7688L457.706 91.0825H438.11C436.757 91.0825 435.66 91.7157 435.66 92.4967C435.66 93.2778 436.757 93.9109 438.11 93.9109L460.155 93.9109ZM452.566 88.1152L450.834 89.1152L452.732 90.2106L454.464 89.2106L456.196 88.2106L454.298 87.1152L452.566 88.1152ZM458.258 91.4013L456.526 92.4013L458.423 93.4967L460.155 92.4967L461.887 91.4967L459.99 90.4013L458.258 91.4013Z" fill="#3479FF"/>
<path d="M617.621 180.072L696.68 225.717C706.246 231.24 706.246 240.194 696.68 245.717L617.621 291.362" stroke="#3479FF" stroke-width="4" stroke-dasharray="4 4"/>
<path d="M607.582 295.744C607.582 296.525 608.678 297.158 610.031 297.158L632.077 297.158C633.429 297.158 634.526 296.525 634.526 295.744C634.526 294.963 633.429 294.33 632.077 294.33L612.481 294.33L612.481 283.016C612.481 282.235 611.384 281.602 610.031 281.602C608.678 281.602 607.582 282.235 607.582 283.016L607.582 295.744ZM610.031 295.744L611.763 296.744L613.661 295.649L611.928 294.649L610.196 293.649L608.299 294.744L610.031 295.744ZM615.723 292.458L617.455 293.458L619.352 292.363L617.62 291.363L615.888 290.363L613.991 291.458L615.723 292.458Z" fill="#3479FF"/>
<path d="M610.321 174.422C608.968 174.422 607.872 175.055 607.872 175.836L607.872 188.564C607.872 189.345 608.968 189.978 610.321 189.978C611.674 189.978 612.771 189.345 612.771 188.564L612.771 177.25L632.367 177.25C633.72 177.25 634.816 176.617 634.816 175.836C634.816 175.055 633.72 174.422 632.367 174.422L610.321 174.422ZM610.321 175.836L608.589 176.836L610.486 177.931L612.219 176.931L613.951 175.931L612.053 174.836L610.321 175.836ZM616.013 179.122L614.281 180.122L616.178 181.217L617.91 180.217L619.642 179.217L617.745 178.122L616.013 179.122Z" fill="#3479FF"/>
<path d="M468.217 179.378C417.839 150.427 336.161 150.427 285.783 179.378C264.468 191.627 252.172 207.096 248.894 223.06H248.001L248.001 231.58C247.904 250.624 260.498 269.685 285.783 284.216C336.161 313.166 417.839 313.166 468.217 284.216C493.649 269.601 506.242 250.401 505.996 231.246V223.06H505.106C501.828 207.096 489.532 191.627 468.217 179.378Z" fill="url(#paint4_linear_614_3047)"/>
<path d="M285.783 170.641C336.161 141.691 417.839 141.691 468.217 170.641C518.594 199.592 518.594 246.529 468.217 275.48C417.839 304.43 336.161 304.43 285.783 275.48C235.406 246.529 235.406 199.592 285.783 170.641Z" fill="#CDDBFD"/>
<path d="M237.571 352.743L236.818 353.176L227.205 358.694L226.458 359.123L225.712 358.694L221.282 356.15V360.05L220.529 360.482L191.689 377.038L190.942 377.467L190.196 377.038L147.47 352.511L146.717 352.078V343.341L147.47 342.909L168.08 331.077V325.609L131.181 304.427L130.428 303.994V223.77L131.181 223.337L140.794 217.818L141.541 217.39L142.288 217.818L236.818 272.086L237.571 272.518V352.743Z" fill="#474C59" stroke="#474C59" stroke-width="3"/>
<path d="M148.218 344.21L190.944 368.738L190.944 375.738L148.218 351.21L148.218 344.21Z" fill="url(#paint5_linear_614_3047)"/>
<rect width="33.2542" height="7" transform="matrix(0.867254 -0.497865 2.21564e-08 1 190.943 368.737)" fill="url(#paint6_linear_614_3047)"/>
<path d="M177.058 327.653L219.783 352.181L190.943 368.737L148.218 344.209L177.058 327.653Z" fill="url(#paint7_linear_614_3047)"/>
<path d="M193.079 319.07L199.176 315.57L199.176 353.588L193.079 357.088L193.079 319.07Z" fill="url(#paint8_linear_614_3047)"/>
<path d="M169.58 305.58L193.079 319.07L193.079 357.088L169.58 343.598L169.58 305.58Z" fill="url(#paint9_linear_614_3047)"/>
<path d="M226.459 278.905L236.072 273.387L236.072 351.875L226.459 357.393L226.459 278.905Z" fill="url(#paint10_linear_614_3047)"/>
<path d="M141.541 219.119L236.072 273.386L226.458 278.905L131.928 224.638L141.541 219.119Z" fill="url(#paint11_linear_614_3047)"/>
<path d="M131.928 224.639L226.458 278.906L226.458 357.394L131.928 303.127L131.928 224.639Z" fill="url(#paint12_linear_614_3047)"/>
<path d="M138.585 239.516C138.585 238.411 139.362 237.961 140.319 238.511L216.961 282.509C217.919 283.059 218.696 284.4 218.696 285.505L218.696 342.824C218.696 343.928 217.919 344.378 216.961 343.828L140.319 299.83C139.362 299.28 138.585 297.939 138.585 296.835L138.585 239.516Z" fill="url(#paint13_linear_614_3047)"/>
<path d="M262.734 383.956L341.793 429.601C351.359 435.124 366.868 435.124 376.434 429.601L455.493 383.956" stroke="#3479FF" stroke-width="4" stroke-dasharray="4 4"/>
<path d="M465.531 379.454C465.531 378.673 464.434 378.04 463.081 378.04L441.036 378.04C439.683 378.04 438.586 378.673 438.586 379.454C438.586 380.236 439.683 380.869 441.036 380.869L460.632 380.869V392.182C460.632 392.963 461.728 393.597 463.081 393.597C464.434 393.597 465.531 392.963 465.531 392.182L465.531 379.454ZM455.492 383.836L457.224 384.836L459.121 383.741L457.389 382.741L455.657 381.741L453.76 382.836L455.492 383.836ZM461.184 380.55L462.916 381.55L464.813 380.454L463.081 379.454L461.349 378.454L459.452 379.55L461.184 380.55Z" fill="#3479FF"/>
<path d="M116.38 300.27L37.3209 254.625C27.755 249.102 27.755 240.148 37.3209 234.625L116.38 188.98" stroke="#3479FF" stroke-width="4" stroke-dasharray="4 4"/>
<path d="M126.418 184.6C126.418 183.819 125.322 183.186 123.969 183.186L101.923 183.186C100.571 183.186 99.4739 183.819 99.4739 184.6C99.4739 185.381 100.571 186.014 101.923 186.014L121.519 186.014V197.328C121.519 198.109 122.616 198.742 123.969 198.742C125.322 198.742 126.418 198.109 126.418 197.328L126.418 184.6ZM116.38 188.981L118.112 189.981L120.009 188.886L118.277 187.886L116.545 186.886L114.648 187.981L116.38 188.981ZM122.072 185.695L123.804 186.695L125.701 185.6L123.969 184.6L122.237 183.6L120.34 184.695L122.072 185.695Z" fill="#3479FF"/>
<path d="M546.27 62.7948L515.162 47.0215L509.85 54.47V115.372L515.162 124.574L546.27 140.347L551.583 132.898V71.9959L546.27 62.7948Z" fill="url(#paint14_linear_614_3047)"/>
<ellipse cx="7.55921" cy="12.5238" rx="7.55921" ry="12.5238" transform="matrix(-0.866025 0.5 0.5 0.866025 528.199 66.2988)" fill="#8899CA"/>
<path d="M522.695 42.6396L515.106 47.0211L546.653 63.2326L551.473 72.4337V132.898L546.653 140.347L554.102 135.965L559.359 128.955V67.614L554.102 58.413L522.695 42.6396Z" fill="url(#paint15_linear_614_3047)"/>
<path d="M555.273 57.874L560.05 66.1689V128.551L555.334 135.104L547.8 139.103L515.275 123.348L509.596 114.583V53.166L515.251 45.6846L522.333 41.7041L555.273 57.874Z" stroke="#474C59" stroke-width="3"/>
<path d="M598.406 375.752L597.656 376.186L594.409 378.061L593.659 378.493L592.909 378.061L512.343 331.545L511.593 331.112V262.104L512.343 261.672L515.591 259.797L516.341 259.363L517.091 259.797L597.656 306.312L598.406 306.744V375.752Z" fill="#474C59" stroke="#474C59" stroke-width="3"/>
<path d="M593.659 309.485L596.907 307.61L596.907 374.886L593.659 376.761L593.659 309.485Z" fill="url(#paint16_linear_614_3047)"/>
<path d="M516.341 261.096L596.907 307.61L593.659 309.485L513.093 262.971L516.341 261.096Z" fill="url(#paint17_linear_614_3047)"/>
<path d="M513.093 262.971L593.659 309.485L593.659 376.761L513.093 330.246L513.093 262.971Z" fill="url(#paint18_linear_614_3047)"/>
<path d="M517.267 277.054C517.267 275.949 518.042 275.501 518.999 276.054L586.982 315.304C587.938 315.856 588.714 317.199 588.714 318.304L588.714 366.804C588.714 367.908 587.938 368.356 586.982 367.804L518.999 328.554C518.042 328.001 517.267 326.658 517.267 325.554L517.267 277.054Z" fill="url(#paint19_linear_614_3047)"/>
<path d="M415.715 233.17L414.965 233.603L377.076 255.478L376.326 255.911L375.576 255.478L337.688 233.603L336.938 233.17V185.062L337.688 184.63L375.576 162.755L376.326 162.321L377.076 162.755L414.965 184.63L415.715 185.062V233.17Z" fill="#474C59" stroke="#474C59" stroke-width="3"/>
<path d="M338.438 210.429L376.326 232.304L376.326 254.179L338.437 232.304L338.438 210.429Z" fill="url(#paint20_linear_614_3047)"/>
<path d="M376.326 232.304L414.215 210.429L414.215 232.304L376.326 254.179L376.326 232.304Z" fill="url(#paint21_linear_614_3047)"/>
<path d="M376.326 188.554L414.215 210.429L376.326 232.304L338.438 210.429L376.326 188.554Z" fill="url(#paint22_linear_614_3047)"/>
<path d="M356.812 232.304C356.813 231.337 357.491 230.945 358.328 231.429L371.21 238.866C372.047 239.349 372.725 240.525 372.726 241.491C372.726 242.458 372.047 242.849 371.21 242.366L358.328 234.929C357.491 234.445 356.812 233.27 356.812 232.304ZM347.625 226.616C347.625 225.167 348.643 224.579 349.898 225.304C351.154 226.028 352.172 227.791 352.172 229.241C352.172 230.691 351.154 231.278 349.898 230.554C348.643 229.829 347.625 228.066 347.625 226.616ZM341.5 223.116C341.5 221.667 342.518 221.079 343.773 221.804C345.029 222.528 346.047 224.291 346.047 225.741C346.047 227.191 345.029 227.778 343.773 227.054C342.518 226.329 341.5 224.566 341.5 223.116Z" fill="#7587BA"/>
<path d="M338.438 185.929L376.326 207.804L376.326 229.679L338.437 207.804L338.438 185.929Z" fill="url(#paint23_linear_614_3047)"/>
<path d="M376.326 207.804L414.215 185.929L414.215 207.804L376.326 229.679L376.326 207.804Z" fill="url(#paint24_linear_614_3047)"/>
<path d="M376.326 164.054L414.215 185.929L376.326 207.804L338.438 185.929L376.326 164.054Z" fill="url(#paint25_linear_614_3047)"/>
<path d="M356.812 208.241C356.813 207.275 357.491 206.883 358.328 207.366L371.21 214.804C372.047 215.287 372.725 216.462 372.726 217.429C372.726 218.395 372.047 218.787 371.21 218.304L358.328 210.866C357.491 210.383 356.812 209.208 356.812 208.241ZM347.625 202.991C347.625 201.542 348.643 200.954 349.898 201.679C351.154 202.403 352.172 204.166 352.172 205.616C352.172 207.066 351.154 207.653 349.898 206.929C348.643 206.204 347.625 204.441 347.625 202.991ZM341.5 199.491C341.5 198.042 342.518 197.454 343.773 198.179C345.029 198.903 346.047 200.666 346.047 202.116C346.047 203.566 345.029 204.153 343.773 203.429C342.518 202.704 341.5 200.941 341.5 199.491Z" fill="#7587BA"/>
<defs>
<linearGradient id="paint0_linear_614_3047" x1="207.273" y1="150.884" x2="165.203" y2="61.4795" gradientUnits="userSpaceOnUse">
<stop stop-color="#D2D9F1"/>
<stop offset="0.63737" stop-color="#D6DBE9"/>
<stop offset="0.693237" stop-color="#E3E9F7"/>
<stop offset="1" stop-color="#EDF1FD"/>
</linearGradient>
<linearGradient id="paint1_linear_614_3047" x1="185.907" y1="151.783" x2="141.835" y2="115.083" gradientUnits="userSpaceOnUse">
<stop stop-color="#CAD1E7"/>
<stop offset="1" stop-color="#B4BDD8"/>
</linearGradient>
<linearGradient id="paint2_linear_614_3047" x1="3.52176" y1="-0.010849" x2="7.34747" y2="4.85823" gradientUnits="userSpaceOnUse">
<stop stop-color="#8495C7"/>
<stop offset="1" stop-color="#92A2D0"/>
</linearGradient>
<linearGradient id="paint3_linear_614_3047" x1="181.9" y1="69.958" x2="208.692" y2="84.5318" gradientUnits="userSpaceOnUse">
<stop stop-color="#8495C7"/>
<stop offset="1" stop-color="#92A2D0"/>
</linearGradient>
<linearGradient id="paint4_linear_614_3047" x1="509.166" y1="284.216" x2="315.421" y2="396.597" gradientUnits="userSpaceOnUse">
<stop stop-color="#BDCEF8"/>
<stop offset="1" stop-color="#A4B5DE"/>
</linearGradient>
<linearGradient id="paint5_linear_614_3047" x1="171.854" y1="364.837" x2="174.641" y2="359.174" gradientUnits="userSpaceOnUse">
<stop stop-color="#CAD1E7"/>
<stop offset="1" stop-color="#B4BDD8"/>
</linearGradient>
<linearGradient id="paint6_linear_614_3047" x1="16.6271" y1="0.0699997" x2="15.8984" y2="6.99331" gradientUnits="userSpaceOnUse">
<stop stop-color="#CFD8EF"/>
<stop offset="1" stop-color="#D5DAE9"/>
</linearGradient>
<linearGradient id="paint7_linear_614_3047" x1="177.015" y1="327.649" x2="163.384" y2="355.035" gradientUnits="userSpaceOnUse">
<stop stop-color="#EDF1FD"/>
<stop offset="1" stop-color="#E1E5F1"/>
</linearGradient>
<linearGradient id="paint8_linear_614_3047" x1="196.128" y1="317.7" x2="183.183" y2="322.789" gradientUnits="userSpaceOnUse">
<stop stop-color="#CFD8EF"/>
<stop offset="1" stop-color="#D5DAE9"/>
</linearGradient>
<linearGradient id="paint9_linear_614_3047" x1="182.58" y1="351.38" x2="174.076" y2="315.169" gradientUnits="userSpaceOnUse">
<stop stop-color="#CAD1E7"/>
<stop offset="1" stop-color="#B4BDD8"/>
</linearGradient>
<linearGradient id="paint10_linear_614_3047" x1="231.266" y1="276.931" x2="210.574" y2="282.829" gradientUnits="userSpaceOnUse">
<stop stop-color="#CFD8EF"/>
<stop offset="1" stop-color="#D5DAE9"/>
</linearGradient>
<linearGradient id="paint11_linear_614_3047" x1="141.479" y1="219.09" x2="136.324" y2="228.266" gradientUnits="userSpaceOnUse">
<stop stop-color="#EDF1FD"/>
<stop offset="1" stop-color="#E1E5F1"/>
</linearGradient>
<linearGradient id="paint12_linear_614_3047" x1="184.222" y1="333.807" x2="196.45" y2="256.869" gradientUnits="userSpaceOnUse">
<stop stop-color="#CAD1E7"/>
<stop offset="1" stop-color="#B4BDD8"/>
</linearGradient>
<linearGradient id="paint13_linear_614_3047" x1="174.411" y1="257.998" x2="176.086" y2="319.271" gradientUnits="userSpaceOnUse">
<stop stop-color="#8495C7"/>
<stop offset="1" stop-color="#92A2D0"/>
</linearGradient>
<linearGradient id="paint14_linear_614_3047" x1="513.793" y1="47.0215" x2="543.149" y2="144.29" gradientUnits="userSpaceOnUse">
<stop stop-color="#B4BDD8"/>
<stop offset="1" stop-color="#CAD1E7"/>
</linearGradient>
<linearGradient id="paint15_linear_614_3047" x1="522.555" y1="50.9644" x2="555.416" y2="142.537" gradientUnits="userSpaceOnUse">
<stop stop-color="#ECF0FD"/>
<stop offset="1" stop-color="#D2D9F0"/>
</linearGradient>
<linearGradient id="paint16_linear_614_3047" x1="595.283" y1="309.221" x2="588.476" y2="309.917" gradientUnits="userSpaceOnUse">
<stop stop-color="#CFD8EF"/>
<stop offset="1" stop-color="#D5DAE9"/>
</linearGradient>
<linearGradient id="paint17_linear_614_3047" x1="516.291" y1="261.069" x2="514.511" y2="264.178" gradientUnits="userSpaceOnUse">
<stop stop-color="#EDF1FD"/>
<stop offset="1" stop-color="#E1E5F1"/>
</linearGradient>
<linearGradient id="paint18_linear_614_3047" x1="557.662" y1="356.543" x2="568.199" y2="290.616" gradientUnits="userSpaceOnUse">
<stop stop-color="#CAD1E7"/>
<stop offset="1" stop-color="#B4BDD8"/>
</linearGradient>
<linearGradient id="paint19_linear_614_3047" x1="549.218" y1="293.429" x2="549.218" y2="345.929" gradientUnits="userSpaceOnUse">
<stop stop-color="#8495C7"/>
<stop offset="1" stop-color="#92A2D0"/>
</linearGradient>
<linearGradient id="paint20_linear_614_3047" x1="359.398" y1="244.589" x2="365.256" y2="224.295" gradientUnits="userSpaceOnUse">
<stop stop-color="#CAD1E7"/>
<stop offset="1" stop-color="#B4BDD8"/>
</linearGradient>
<linearGradient id="paint21_linear_614_3047" x1="395.27" y1="221.585" x2="401.099" y2="241.777" gradientUnits="userSpaceOnUse">
<stop stop-color="#CFD8EF"/>
<stop offset="1" stop-color="#D5DAE9"/>
</linearGradient>
<linearGradient id="paint22_linear_614_3047" x1="376.281" y1="188.554" x2="376.281" y2="232.226" gradientUnits="userSpaceOnUse">
<stop stop-color="#9DA4B9"/>
<stop offset="1" stop-color="#808BAB"/>
</linearGradient>
<linearGradient id="paint23_linear_614_3047" x1="359.398" y1="220.089" x2="365.256" y2="199.795" gradientUnits="userSpaceOnUse">
<stop stop-color="#CAD1E7"/>
<stop offset="1" stop-color="#B4BDD8"/>
</linearGradient>
<linearGradient id="paint24_linear_614_3047" x1="395.27" y1="197.085" x2="401.099" y2="217.277" gradientUnits="userSpaceOnUse">
<stop stop-color="#CFD8EF"/>
<stop offset="1" stop-color="#D5DAE9"/>
</linearGradient>
<linearGradient id="paint25_linear_614_3047" x1="376.281" y1="164.054" x2="359.504" y2="199.966" gradientUnits="userSpaceOnUse">
<stop stop-color="#EDF1FD"/>
<stop offset="1" stop-color="#E1E5F1"/>
</linearGradient>
<clipPath id="clip0_614_3047">
<rect width="161" height="40" rx="20" transform="matrix(0.866025 0.5 -0.866025 0.5 459.641 109.929)" fill="white"/>
</clipPath>
<clipPath id="clip1_614_3047">
<rect width="166" height="40" rx="20" transform="matrix(0.866025 0.5 -0.866025 0.5 477.641 327.929)" fill="white"/>
</clipPath>
<clipPath id="clip2_614_3047">
<rect width="144" height="40" rx="20" transform="matrix(0.866025 0.5 -0.866025 0.5 110.641 119.929)" fill="white"/>
</clipPath>
<clipPath id="clip3_614_3047">
<rect width="197" height="67" rx="33.5" transform="matrix(0.866025 0.5 -0.866025 0.5 95.0234 337.929)" fill="white"/>
</clipPath>
</defs>
</svg>
