<svg width="849" height="171" viewBox="0 0 849 171" fill="none" xmlns="http://www.w3.org/2000/svg">
<circle cx="75.9633" cy="57.4101" r="10.6215" fill="#662AF2"/>
<circle cx="75.9633" cy="57.4106" r="18.4106" fill="#662AF2" fill-opacity="0.35"/>
<path d="M81.3426 82.8549V74.0036M81.3426 74.0036V61.6119C77.2544 54.5309 73.5023 58.6615 72.1373 61.6119V90.644L66.4727 80.8909C61.1619 79.4679 59.7456 81.0846 59.3915 84.9792C59.1083 88.0948 67.7707 102.328 72.1373 109.055V119.322H103.294V109.055C109.667 92.0602 106.834 80.0225 106.834 79.6684C103.435 76.2696 99.7532 78.2522 98.337 79.6684M81.3426 74.0036C82.6943 71.6433 86.2152 68.3388 89.4858 74.0036V75.4198M89.4858 84.9792V75.4198M89.4858 75.4198C91.2097 73.2955 95.3935 70.3215 98.337 75.4198V79.6684M98.337 86.7494V79.6684" stroke="black" stroke-width="3" stroke-linecap="round"/>
<rect x="17" y="17" width="118.96" height="102" rx="16" stroke="black" stroke-width="4"/>
<path fill-rule="evenodd" clip-rule="evenodd" d="M162.099 33.9328C167.432 30.8538 174.097 34.7023 174.098 40.8605L174.099 96.2804C174.099 102.439 167.432 106.288 162.099 103.209L137.959 89.2716V84.6525L164.099 99.7443C166.765 101.284 170.099 99.3596 170.099 96.2804L170.098 40.8605C170.098 37.7815 166.765 35.8573 164.099 37.3966L137.959 52.4875V47.8683L162.099 33.9328Z" fill="black"/>
<circle cx="42.5602" cy="42.5598" r="8.904" fill="black"/>
<path d="M23.7088 143.818V144.884H19.4688V143.818H23.7088ZM20.7045 141.858H21.9616V149.656C21.9616 150.011 22.0131 150.278 22.1161 150.455C22.2227 150.629 22.3576 150.746 22.521 150.807C22.6879 150.864 22.8636 150.892 23.0483 150.892C23.1868 150.892 23.3004 150.885 23.3892 150.871C23.478 150.853 23.549 150.839 23.6023 150.828L23.858 151.957C23.7727 151.989 23.6538 152.021 23.5011 152.053C23.3484 152.089 23.1548 152.107 22.9205 152.107C22.5653 152.107 22.2173 152.03 21.8764 151.877C21.5391 151.725 21.2585 151.492 21.0348 151.18C20.8146 150.867 20.7045 150.473 20.7045 149.997V141.858ZM25.5998 152V143.818H26.8143V145.054H26.8995C27.0487 144.649 27.3185 144.321 27.7092 144.069C28.0998 143.816 28.5401 143.69 29.0302 143.69C29.1225 143.69 29.2379 143.692 29.3764 143.696C29.5149 143.699 29.6197 143.705 29.6907 143.712V144.99C29.6481 144.979 29.5504 144.963 29.3977 144.942C29.2486 144.917 29.0906 144.905 28.9237 144.905C28.5259 144.905 28.1708 144.988 27.8583 145.155C27.5494 145.319 27.3043 145.546 27.1232 145.837C26.9457 146.125 26.8569 146.453 26.8569 146.822V152H25.5998ZM31.1808 152V143.818H32.4379V152H31.1808ZM31.82 142.455C31.575 142.455 31.3637 142.371 31.1862 142.204C31.0122 142.037 30.9252 141.837 30.9252 141.602C30.9252 141.368 31.0122 141.167 31.1862 141C31.3637 140.833 31.575 140.75 31.82 140.75C32.0651 140.75 32.2746 140.833 32.4486 141C32.6262 141.167 32.7149 141.368 32.7149 141.602C32.7149 141.837 32.6262 142.037 32.4486 142.204C32.2746 142.371 32.0651 142.455 31.82 142.455ZM38.043 155.239C37.4357 155.239 36.9137 155.161 36.4769 155.004C36.0401 154.852 35.6761 154.649 35.3849 154.397C35.0973 154.148 34.8683 153.882 34.6978 153.598L35.6992 152.895C35.8129 153.044 35.9567 153.214 36.1307 153.406C36.3047 153.602 36.5426 153.77 36.8445 153.912C37.1499 154.058 37.5494 154.131 38.043 154.131C38.7035 154.131 39.2486 153.971 39.6783 153.651C40.108 153.332 40.3228 152.831 40.3228 152.149V150.487H40.2163C40.1239 150.636 39.9925 150.821 39.8221 151.041C39.6552 151.258 39.4137 151.451 39.0977 151.622C38.7852 151.789 38.3626 151.872 37.8299 151.872C37.1694 151.872 36.5763 151.716 36.0508 151.403C35.5288 151.091 35.1151 150.636 34.8097 150.04C34.5078 149.443 34.3569 148.719 34.3569 147.866C34.3569 147.028 34.5043 146.299 34.799 145.677C35.0938 145.052 35.5039 144.569 36.0295 144.228C36.555 143.884 37.1623 143.712 37.8512 143.712C38.3839 143.712 38.8065 143.8 39.119 143.978C39.435 144.152 39.6765 144.351 39.8434 144.575C40.0138 144.795 40.1452 144.976 40.2376 145.118H40.3654V143.818H41.5799V152.234C41.5799 152.938 41.4201 153.509 41.1005 153.95C40.7844 154.393 40.3583 154.718 39.8221 154.924C39.2894 155.134 38.6964 155.239 38.043 155.239ZM38.0004 150.743C38.5046 150.743 38.9308 150.627 39.2788 150.397C39.6268 150.166 39.8913 149.834 40.0724 149.401C40.2536 148.967 40.3441 148.449 40.3441 147.845C40.3441 147.256 40.2553 146.735 40.0778 146.284C39.9002 145.833 39.6374 145.48 39.2894 145.224C38.9414 144.969 38.5117 144.841 38.0004 144.841C37.4677 144.841 37.0238 144.976 36.6687 145.246C36.3171 145.516 36.0526 145.878 35.875 146.332C35.701 146.787 35.614 147.291 35.614 147.845C35.614 148.413 35.7028 148.916 35.8803 149.353C36.0614 149.786 36.3278 150.127 36.6793 150.375C37.0344 150.62 37.4748 150.743 38.0004 150.743ZM47.1836 155.239C46.5763 155.239 46.0543 155.161 45.6175 155.004C45.1808 154.852 44.8168 154.649 44.5256 154.397C44.2379 154.148 44.0089 153.882 43.8384 153.598L44.8398 152.895C44.9535 153.044 45.0973 153.214 45.2713 153.406C45.4453 153.602 45.6832 153.77 45.9851 153.912C46.2905 154.058 46.69 154.131 47.1836 154.131C47.8441 154.131 48.3892 153.971 48.8189 153.651C49.2486 153.332 49.4634 152.831 49.4634 152.149V150.487H49.3569C49.2646 150.636 49.1332 150.821 48.9627 151.041C48.7958 151.258 48.5543 151.451 48.2383 151.622C47.9258 151.789 47.5032 151.872 46.9705 151.872C46.31 151.872 45.717 151.716 45.1914 151.403C44.6694 151.091 44.2557 150.636 43.9503 150.04C43.6484 149.443 43.4975 148.719 43.4975 147.866C43.4975 147.028 43.6449 146.299 43.9396 145.677C44.2344 145.052 44.6445 144.569 45.1701 144.228C45.6957 143.884 46.3029 143.712 46.9918 143.712C47.5245 143.712 47.9471 143.8 48.2596 143.978C48.5756 144.152 48.8171 144.351 48.984 144.575C49.1545 144.795 49.2859 144.976 49.3782 145.118H49.506V143.818H50.7205V152.234C50.7205 152.938 50.5607 153.509 50.2411 153.95C49.9251 154.393 49.4989 154.718 48.9627 154.924C48.43 155.134 47.837 155.239 47.1836 155.239ZM47.141 150.743C47.6452 150.743 48.0714 150.627 48.4194 150.397C48.7674 150.166 49.032 149.834 49.2131 149.401C49.3942 148.967 49.4847 148.449 49.4847 147.845C49.4847 147.256 49.396 146.735 49.2184 146.284C49.0408 145.833 48.7781 145.48 48.43 145.224C48.082 144.969 47.6523 144.841 47.141 144.841C46.6083 144.841 46.1644 144.976 45.8093 145.246C45.4577 145.516 45.1932 145.878 45.0156 146.332C44.8416 146.787 44.7546 147.291 44.7546 147.845C44.7546 148.413 44.8434 148.916 45.021 149.353C45.2021 149.786 45.4684 150.127 45.82 150.375C46.1751 150.62 46.6154 150.743 47.141 150.743ZM56.4521 152.17C55.6637 152.17 54.9837 151.996 54.4119 151.648C53.8438 151.297 53.4052 150.807 53.0962 150.178C52.7908 149.546 52.6381 148.811 52.6381 147.973C52.6381 147.135 52.7908 146.396 53.0962 145.757C53.4052 145.114 53.8349 144.614 54.3853 144.255C54.9393 143.893 55.5856 143.712 56.3242 143.712C56.7504 143.712 57.1712 143.783 57.5866 143.925C58.0021 144.067 58.3803 144.298 58.7212 144.617C59.0621 144.933 59.3338 145.352 59.5362 145.874C59.7386 146.396 59.8398 147.039 59.8398 147.803V148.335H53.533V147.249H58.5614C58.5614 146.787 58.4691 146.375 58.2844 146.013C58.1033 145.651 57.8441 145.365 57.5067 145.155C57.1729 144.946 56.7788 144.841 56.3242 144.841C55.8235 144.841 55.3903 144.965 55.0245 145.214C54.6623 145.459 54.3835 145.778 54.1882 146.173C53.9929 146.567 53.8952 146.989 53.8952 147.44V148.165C53.8952 148.783 54.0018 149.306 54.2148 149.736C54.4315 150.162 54.7315 150.487 55.1151 150.711C55.4986 150.931 55.9442 151.041 56.4521 151.041C56.7823 151.041 57.0806 150.995 57.3469 150.903C57.6168 150.807 57.8494 150.665 58.0447 150.477C58.2401 150.285 58.391 150.047 58.4975 149.763L59.712 150.104C59.5842 150.516 59.3693 150.878 59.0675 151.19C58.7656 151.499 58.3928 151.741 57.9489 151.915C57.505 152.085 57.006 152.17 56.4521 152.17ZM61.7521 152V143.818H62.9666V145.054H63.0518C63.201 144.649 63.4709 144.321 63.8615 144.069C64.2521 143.816 64.6925 143.69 65.1825 143.69C65.2749 143.69 65.3903 143.692 65.5288 143.696C65.6673 143.699 65.772 143.705 65.843 143.712V144.99C65.8004 144.979 65.7028 144.963 65.5501 144.942C65.4009 144.917 65.2429 144.905 65.076 144.905C64.6783 144.905 64.3232 144.988 64.0107 145.155C63.7017 145.319 63.4567 145.546 63.2756 145.837C63.098 146.125 63.0092 146.453 63.0092 146.822V152H61.7521ZM71.5519 152V143.818H72.7664V145.054H72.8517C73.0008 144.649 73.2707 144.321 73.6613 144.069C74.0519 143.816 74.4923 143.69 74.9823 143.69C75.0747 143.69 75.1901 143.692 75.3286 143.696C75.4671 143.699 75.5718 143.705 75.6428 143.712V144.99C75.6002 144.979 75.5026 144.963 75.3499 144.942C75.2007 144.917 75.0427 144.905 74.8758 144.905C74.4781 144.905 74.123 144.988 73.8105 145.155C73.5015 145.319 73.2565 145.546 73.0754 145.837C72.8978 146.125 72.809 146.453 72.809 146.822V152H71.5519ZM80.3144 152.17C79.526 152.17 78.846 151.996 78.2742 151.648C77.7061 151.297 77.2675 150.807 76.9585 150.178C76.6531 149.546 76.5004 148.811 76.5004 147.973C76.5004 147.135 76.6531 146.396 76.9585 145.757C77.2675 145.114 77.6972 144.614 78.2476 144.255C78.8016 143.893 79.4479 143.712 80.1865 143.712C80.6127 143.712 81.0335 143.783 81.449 143.925C81.8644 144.067 82.2426 144.298 82.5835 144.617C82.9244 144.933 83.1961 145.352 83.3985 145.874C83.6009 146.396 83.7021 147.039 83.7021 147.803V148.335H77.3953V147.249H82.4237C82.4237 146.787 82.3314 146.375 82.1468 146.013C81.9656 145.651 81.7064 145.365 81.3691 145.155C81.0352 144.946 80.6411 144.841 80.1865 144.841C79.6858 144.841 79.2526 144.965 78.8868 145.214C78.5246 145.459 78.2458 145.778 78.0505 146.173C77.8552 146.567 77.7575 146.989 77.7575 147.44V148.165C77.7575 148.783 77.8641 149.306 78.0771 149.736C78.2938 150.162 78.5938 150.487 78.9774 150.711C79.3609 150.931 79.8066 151.041 80.3144 151.041C80.6446 151.041 80.9429 150.995 81.2093 150.903C81.4791 150.807 81.7117 150.665 81.907 150.477C82.1024 150.285 82.2533 150.047 82.3598 149.763L83.5743 150.104C83.4465 150.516 83.2316 150.878 82.9298 151.19C82.6279 151.499 82.2551 151.741 81.8112 151.915C81.3673 152.085 80.8683 152.17 80.3144 152.17ZM88.9383 152.17C88.1713 152.17 87.5107 151.989 86.9568 151.627C86.4028 151.265 85.9767 150.766 85.6784 150.13C85.3801 149.495 85.2309 148.768 85.2309 147.952C85.2309 147.121 85.3836 146.387 85.689 145.752C85.998 145.113 86.4276 144.614 86.9781 144.255C87.532 143.893 88.1784 143.712 88.917 143.712C89.4923 143.712 90.0107 143.818 90.4724 144.031C90.934 144.244 91.3122 144.543 91.607 144.926C91.9017 145.31 92.0846 145.757 92.1556 146.268H90.8985C90.8026 145.896 90.5896 145.565 90.2593 145.278C89.9326 144.987 89.4923 144.841 88.9383 144.841C88.4482 144.841 88.0186 144.969 87.6492 145.224C87.2835 145.477 86.9976 145.833 86.7916 146.295C86.5892 146.753 86.488 147.291 86.488 147.909C86.488 148.541 86.5874 149.092 86.7863 149.56C86.9887 150.029 87.2728 150.393 87.6386 150.652C88.0079 150.912 88.4411 151.041 88.9383 151.041C89.265 151.041 89.5615 150.984 89.8279 150.871C90.0942 150.757 90.3197 150.594 90.5044 150.381C90.689 150.168 90.8204 149.912 90.8985 149.614H92.1556C92.0846 150.097 91.9088 150.532 91.6283 150.919C91.3513 151.302 90.9838 151.608 90.5257 151.835C90.0711 152.059 89.542 152.17 88.9383 152.17ZM97.3172 152.17C96.5786 152.17 95.9305 151.995 95.373 151.643C94.819 151.292 94.3857 150.8 94.0732 150.168C93.7643 149.536 93.6098 148.797 93.6098 147.952C93.6098 147.099 93.7643 146.355 94.0732 145.72C94.3857 145.084 94.819 144.591 95.373 144.239C95.9305 143.887 96.5786 143.712 97.3172 143.712C98.0558 143.712 98.7021 143.887 99.2561 144.239C99.8137 144.591 100.247 145.084 100.556 145.72C100.868 146.355 101.025 147.099 101.025 147.952C101.025 148.797 100.868 149.536 100.556 150.168C100.247 150.8 99.8137 151.292 99.2561 151.643C98.7021 151.995 98.0558 152.17 97.3172 152.17ZM97.3172 151.041C97.8783 151.041 98.3399 150.897 98.7021 150.61C99.0644 150.322 99.3325 149.944 99.5065 149.475C99.6805 149.006 99.7675 148.499 99.7675 147.952C99.7675 147.405 99.6805 146.895 99.5065 146.423C99.3325 145.951 99.0644 145.569 98.7021 145.278C98.3399 144.987 97.8783 144.841 97.3172 144.841C96.7561 144.841 96.2945 144.987 95.9323 145.278C95.57 145.569 95.3019 145.951 95.1279 146.423C94.9539 146.895 94.8669 147.405 94.8669 147.952C94.8669 148.499 94.9539 149.006 95.1279 149.475C95.3019 149.944 95.57 150.322 95.9323 150.61C96.2945 150.897 96.7561 151.041 97.3172 151.041ZM102.944 152V143.818H104.158V145.054H104.243C104.392 144.649 104.662 144.321 105.053 144.069C105.444 143.816 105.884 143.69 106.374 143.69C106.466 143.69 106.582 143.692 106.72 143.696C106.859 143.699 106.963 143.705 107.034 143.712V144.99C106.992 144.979 106.894 144.963 106.741 144.942C106.592 144.917 106.434 144.905 106.267 144.905C105.87 144.905 105.515 144.988 105.202 145.155C104.893 145.319 104.648 145.546 104.467 145.837C104.289 146.125 104.201 146.453 104.201 146.822V152H102.944ZM111.365 152.17C110.683 152.17 110.081 151.998 109.559 151.654C109.037 151.306 108.629 150.816 108.334 150.184C108.039 149.548 107.892 148.797 107.892 147.93C107.892 147.071 108.039 146.325 108.334 145.693C108.629 145.061 109.039 144.573 109.565 144.228C110.09 143.884 110.697 143.712 111.386 143.712C111.919 143.712 112.34 143.8 112.649 143.978C112.961 144.152 113.199 144.351 113.363 144.575C113.529 144.795 113.659 144.976 113.751 145.118H113.858V141.091H115.115V152H113.901V150.743H113.751C113.659 150.892 113.528 151.08 113.357 151.308C113.187 151.531 112.944 151.732 112.627 151.909C112.311 152.083 111.891 152.17 111.365 152.17ZM111.536 151.041C112.04 151.041 112.466 150.91 112.814 150.647C113.162 150.381 113.426 150.013 113.608 149.544C113.789 149.072 113.879 148.527 113.879 147.909C113.879 147.298 113.79 146.764 113.613 146.306C113.435 145.844 113.173 145.485 112.825 145.23C112.477 144.971 112.047 144.841 111.536 144.841C111.003 144.841 110.559 144.978 110.204 145.251C109.852 145.521 109.588 145.888 109.41 146.354C109.236 146.815 109.149 147.334 109.149 147.909C109.149 148.491 109.238 149.021 109.415 149.496C109.597 149.969 109.863 150.345 110.214 150.626C110.57 150.903 111.01 151.041 111.536 151.041ZM117.592 152V143.818H118.849V152H117.592ZM118.231 142.455C117.986 142.455 117.775 142.371 117.597 142.204C117.423 142.037 117.336 141.837 117.336 141.602C117.336 141.368 117.423 141.167 117.597 141C117.775 140.833 117.986 140.75 118.231 140.75C118.476 140.75 118.686 140.833 118.86 141C119.037 141.167 119.126 141.368 119.126 141.602C119.126 141.837 119.037 142.037 118.86 142.204C118.686 142.371 118.476 142.455 118.231 142.455ZM122.409 147.078V152H121.152V143.818H122.366V145.097H122.473C122.664 144.681 122.956 144.347 123.346 144.095C123.737 143.839 124.241 143.712 124.859 143.712C125.413 143.712 125.898 143.825 126.313 144.053C126.729 144.276 127.052 144.617 127.283 145.075C127.513 145.53 127.629 146.105 127.629 146.801V152H126.372V146.886C126.372 146.244 126.205 145.743 125.871 145.384C125.537 145.022 125.079 144.841 124.497 144.841C124.095 144.841 123.737 144.928 123.421 145.102C123.108 145.276 122.861 145.53 122.68 145.864C122.499 146.197 122.409 146.602 122.409 147.078ZM133.229 155.239C132.621 155.239 132.099 155.161 131.662 155.004C131.226 154.852 130.862 154.649 130.57 154.397C130.283 154.148 130.054 153.882 129.883 153.598L130.885 152.895C130.998 153.044 131.142 153.214 131.316 153.406C131.49 153.602 131.728 153.77 132.03 153.912C132.335 154.058 132.735 154.131 133.229 154.131C133.889 154.131 134.434 153.971 134.864 153.651C135.294 153.332 135.508 152.831 135.508 152.149V150.487H135.402C135.309 150.636 135.178 150.821 135.008 151.041C134.841 151.258 134.599 151.451 134.283 151.622C133.971 151.789 133.548 151.872 133.015 151.872C132.355 151.872 131.762 151.716 131.236 151.403C130.714 151.091 130.301 150.636 129.995 150.04C129.693 149.443 129.542 148.719 129.542 147.866C129.542 147.028 129.69 146.299 129.985 145.677C130.279 145.052 130.689 144.569 131.215 144.228C131.741 143.884 132.348 143.712 133.037 143.712C133.569 143.712 133.992 143.8 134.305 143.978C134.621 144.152 134.862 144.351 135.029 144.575C135.199 144.795 135.331 144.976 135.423 145.118H135.551V143.818H136.765V152.234C136.765 152.938 136.606 153.509 136.286 153.95C135.97 154.393 135.544 154.718 135.008 154.924C134.475 155.134 133.882 155.239 133.229 155.239ZM133.186 150.743C133.69 150.743 134.116 150.627 134.464 150.397C134.812 150.166 135.077 149.834 135.258 149.401C135.439 148.967 135.53 148.449 135.53 147.845C135.53 147.256 135.441 146.735 135.263 146.284C135.086 145.833 134.823 145.48 134.475 145.224C134.127 144.969 133.697 144.841 133.186 144.841C132.653 144.841 132.209 144.976 131.854 145.246C131.503 145.516 131.238 145.878 131.061 146.332C130.887 146.787 130.8 147.291 130.8 147.845C130.8 148.413 130.888 148.916 131.066 149.353C131.247 149.786 131.513 150.127 131.865 150.375C132.22 150.62 132.66 150.743 133.186 150.743ZM144.862 145.651L143.733 145.97C143.662 145.782 143.557 145.599 143.419 145.422C143.284 145.24 143.099 145.091 142.865 144.974C142.63 144.857 142.33 144.798 141.964 144.798C141.464 144.798 141.046 144.914 140.713 145.145C140.382 145.372 140.217 145.661 140.217 146.013C140.217 146.325 140.331 146.572 140.558 146.753C140.785 146.934 141.14 147.085 141.623 147.206L142.838 147.504C143.569 147.682 144.115 147.953 144.473 148.319C144.832 148.681 145.011 149.148 145.011 149.72C145.011 150.189 144.876 150.608 144.606 150.977C144.34 151.347 143.967 151.638 143.488 151.851C143.008 152.064 142.451 152.17 141.815 152.17C140.981 152.17 140.29 151.989 139.743 151.627C139.196 151.265 138.85 150.736 138.704 150.04L139.898 149.741C140.011 150.182 140.226 150.512 140.542 150.732C140.862 150.952 141.279 151.062 141.794 151.062C142.38 151.062 142.845 150.938 143.189 150.69C143.537 150.437 143.711 150.136 143.711 149.784C143.711 149.5 143.612 149.262 143.413 149.07C143.214 148.875 142.909 148.729 142.497 148.634L141.133 148.314C140.384 148.136 139.834 147.861 139.482 147.488C139.134 147.112 138.96 146.641 138.96 146.077C138.96 145.615 139.09 145.207 139.349 144.852C139.612 144.496 139.969 144.218 140.42 144.015C140.874 143.813 141.389 143.712 141.964 143.712C142.774 143.712 143.41 143.889 143.871 144.244C144.336 144.599 144.667 145.068 144.862 145.651Z" fill="black"/>
<rect x="260" y="17" width="119.179" height="102.189" rx="16" stroke="black" stroke-width="4"/>
<path fill-rule="evenodd" clip-rule="evenodd" d="M405.382 33.9537C410.715 30.8747 417.382 34.7241 417.382 40.8824V96.4507C417.382 102.513 410.922 106.337 405.633 103.518L405.382 103.379L381.178 89.4048V84.7857L407.382 99.9146C410.048 101.454 413.382 99.5297 413.382 96.4507V40.8824C413.382 37.8032 410.048 35.8779 407.381 37.4175L381.178 52.5464V47.9273L405.382 33.9537Z" fill="black"/>
<circle cx="285.609" cy="42.6093" r="8.91986" fill="black"/>
<rect x="290" y="87" width="79" height="18" rx="9" fill="#D9D9D9"/>
<path d="M297.151 101V92.8182H298.365V94.054H298.45C298.599 93.6491 298.869 93.3207 299.26 93.0685C299.651 92.8164 300.091 92.6903 300.581 92.6903C300.673 92.6903 300.789 92.6921 300.927 92.6957C301.066 92.6992 301.17 92.7045 301.241 92.7116V93.9901C301.199 93.9794 301.101 93.9634 300.949 93.9421C300.799 93.9173 300.641 93.9048 300.474 93.9048C300.077 93.9048 299.722 93.9883 299.409 94.1552C299.1 94.3185 298.855 94.5458 298.674 94.837C298.496 95.1246 298.408 95.4531 298.408 95.8224V101H297.151ZM305.913 101.17C305.125 101.17 304.445 100.996 303.873 100.648C303.305 100.297 302.866 99.8068 302.557 99.1783C302.252 98.5462 302.099 97.8111 302.099 96.973C302.099 96.1349 302.252 95.3963 302.557 94.7571C302.866 94.1143 303.296 93.6136 303.846 93.255C304.4 92.8928 305.047 92.7116 305.785 92.7116C306.211 92.7116 306.632 92.7827 307.048 92.9247C307.463 93.0668 307.841 93.2976 308.182 93.6172C308.523 93.9332 308.795 94.3523 308.997 94.8743C309.2 95.3963 309.301 96.0391 309.301 96.8026V97.3352H302.994V96.2486H308.022C308.022 95.7869 307.93 95.375 307.745 95.0128C307.564 94.6506 307.305 94.3647 306.968 94.1552C306.634 93.9457 306.24 93.8409 305.785 93.8409C305.284 93.8409 304.851 93.9652 304.485 94.2138C304.123 94.4588 303.844 94.7784 303.649 95.1726C303.454 95.5668 303.356 95.9893 303.356 96.4403V97.1648C303.356 97.7827 303.463 98.3065 303.676 98.7362C303.892 99.1623 304.192 99.4872 304.576 99.7109C304.96 99.9311 305.405 100.041 305.913 100.041C306.243 100.041 306.542 99.995 306.808 99.9027C307.078 99.8068 307.31 99.6648 307.506 99.4766C307.701 99.2848 307.852 99.0469 307.958 98.7628L309.173 99.1037C309.045 99.5156 308.83 99.8778 308.528 100.19C308.227 100.499 307.854 100.741 307.41 100.915C306.966 101.085 306.467 101.17 305.913 101.17ZM314.537 101.17C313.77 101.17 313.109 100.989 312.555 100.627C312.001 100.265 311.575 99.766 311.277 99.1303C310.979 98.4947 310.83 97.7685 310.83 96.9517C310.83 96.1207 310.982 95.3874 311.288 94.7518C311.597 94.1126 312.026 93.6136 312.577 93.255C313.131 92.8928 313.777 92.7116 314.516 92.7116C315.091 92.7116 315.609 92.8182 316.071 93.0312C316.533 93.2443 316.911 93.5426 317.206 93.9261C317.5 94.3097 317.683 94.7571 317.754 95.2685H316.497C316.401 94.8956 316.188 94.5653 315.858 94.2777C315.531 93.9865 315.091 93.8409 314.537 93.8409C314.047 93.8409 313.617 93.9687 313.248 94.2244C312.882 94.4766 312.596 94.8335 312.39 95.2951C312.188 95.7532 312.087 96.2912 312.087 96.9091C312.087 97.5412 312.186 98.0916 312.385 98.5604C312.587 99.0291 312.871 99.3931 313.237 99.6523C313.607 99.9116 314.04 100.041 314.537 100.041C314.864 100.041 315.16 99.9844 315.426 99.8707C315.693 99.7571 315.918 99.5938 316.103 99.3807C316.288 99.1676 316.419 98.9119 316.497 98.6136H317.754C317.683 99.0966 317.507 99.5316 317.227 99.9187C316.95 100.302 316.582 100.608 316.124 100.835C315.67 101.059 315.141 101.17 314.537 101.17ZM322.916 101.17C322.177 101.17 321.529 100.995 320.972 100.643C320.418 100.292 319.984 99.7997 319.672 99.1676C319.363 98.5355 319.208 97.7969 319.208 96.9517C319.208 96.0994 319.363 95.3555 319.672 94.7198C319.984 94.0842 320.418 93.5906 320.972 93.239C321.529 92.8874 322.177 92.7116 322.916 92.7116C323.654 92.7116 324.301 92.8874 324.855 93.239C325.412 93.5906 325.846 94.0842 326.154 94.7198C326.467 95.3555 326.623 96.0994 326.623 96.9517C326.623 97.7969 326.467 98.5355 326.154 99.1676C325.846 99.7997 325.412 100.292 324.855 100.643C324.301 100.995 323.654 101.17 322.916 101.17ZM322.916 100.041C323.477 100.041 323.939 99.8974 324.301 99.6097C324.663 99.3221 324.931 98.9439 325.105 98.4751C325.279 98.0064 325.366 97.4986 325.366 96.9517C325.366 96.4048 325.279 95.8952 325.105 95.4229C324.931 94.9506 324.663 94.5689 324.301 94.2777C323.939 93.9865 323.477 93.8409 322.916 93.8409C322.355 93.8409 321.893 93.9865 321.531 94.2777C321.169 94.5689 320.901 94.9506 320.727 95.4229C320.553 95.8952 320.466 96.4048 320.466 96.9517C320.466 97.4986 320.553 98.0064 320.727 98.4751C320.901 98.9439 321.169 99.3221 321.531 99.6097C321.893 99.8974 322.355 100.041 322.916 100.041ZM328.542 101V92.8182H329.757V94.054H329.842C329.991 93.6491 330.261 93.3207 330.652 93.0685C331.042 92.8164 331.483 92.6903 331.973 92.6903C332.065 92.6903 332.18 92.6921 332.319 92.6957C332.457 92.6992 332.562 92.7045 332.633 92.7116V93.9901C332.59 93.9794 332.493 93.9634 332.34 93.9421C332.191 93.9173 332.033 93.9048 331.866 93.9048C331.468 93.9048 331.113 93.9883 330.801 94.1552C330.492 94.3185 330.247 94.5458 330.066 94.837C329.888 95.1246 329.799 95.4531 329.799 95.8224V101H328.542ZM336.964 101.17C336.282 101.17 335.68 100.998 335.158 100.654C334.636 100.306 334.228 99.8157 333.933 99.1836C333.638 98.5479 333.491 97.7969 333.491 96.9304C333.491 96.071 333.638 95.3253 333.933 94.6932C334.228 94.0611 334.638 93.5728 335.163 93.2283C335.689 92.8839 336.296 92.7116 336.985 92.7116C337.518 92.7116 337.938 92.8004 338.247 92.978C338.56 93.152 338.798 93.3509 338.961 93.5746C339.128 93.7947 339.258 93.9759 339.35 94.1179H339.457V90.0909H340.714V101H339.499V99.7429H339.35C339.258 99.892 339.126 100.08 338.956 100.308C338.785 100.531 338.542 100.732 338.226 100.909C337.91 101.083 337.489 101.17 336.964 101.17ZM337.134 100.041C337.638 100.041 338.065 99.9098 338.413 99.647C338.761 99.3807 339.025 99.0131 339.206 98.5444C339.387 98.0721 339.478 97.527 339.478 96.9091C339.478 96.2983 339.389 95.7638 339.212 95.3058C339.034 94.8441 338.771 94.4854 338.423 94.2298C338.075 93.9705 337.646 93.8409 337.134 93.8409C336.601 93.8409 336.158 93.9776 335.802 94.2511C335.451 94.521 335.186 94.8885 335.009 95.3537C334.835 95.8153 334.748 96.3338 334.748 96.9091C334.748 97.4915 334.837 98.0206 335.014 98.4964C335.195 98.9687 335.462 99.3452 335.813 99.6257C336.168 99.9027 336.609 100.041 337.134 100.041ZM343.191 101V92.8182H344.448V101H343.191ZM343.83 91.4545C343.585 91.4545 343.373 91.3711 343.196 91.2042C343.022 91.0373 342.935 90.8366 342.935 90.6023C342.935 90.3679 343.022 90.1673 343.196 90.0004C343.373 89.8335 343.585 89.75 343.83 89.75C344.075 89.75 344.284 89.8335 344.458 90.0004C344.636 90.1673 344.725 90.3679 344.725 90.6023C344.725 90.8366 344.636 91.0373 344.458 91.2042C344.284 91.3711 344.075 91.4545 343.83 91.4545ZM348.007 96.0781V101H346.75V92.8182H347.965V94.0966H348.071C348.263 93.6811 348.554 93.3473 348.945 93.0952C349.335 92.8395 349.84 92.7116 350.458 92.7116C351.012 92.7116 351.496 92.8253 351.912 93.0526C352.327 93.2763 352.65 93.6172 352.881 94.0753C353.112 94.5298 353.227 95.1051 353.227 95.8011V101H351.97V95.8864C351.97 95.2436 351.803 94.7429 351.47 94.3842C351.136 94.022 350.678 93.8409 350.095 93.8409C349.694 93.8409 349.335 93.9279 349.019 94.1019C348.707 94.2759 348.46 94.5298 348.279 94.8636C348.098 95.1974 348.007 95.6023 348.007 96.0781ZM358.827 104.239C358.22 104.239 357.698 104.161 357.261 104.004C356.824 103.852 356.46 103.649 356.169 103.397C355.881 103.148 355.652 102.882 355.482 102.598L356.483 101.895C356.597 102.044 356.741 102.214 356.915 102.406C357.089 102.602 357.327 102.77 357.629 102.912C357.934 103.058 358.334 103.131 358.827 103.131C359.488 103.131 360.033 102.971 360.462 102.651C360.892 102.332 361.107 101.831 361.107 101.149V99.4872H361C360.908 99.6364 360.777 99.821 360.606 100.041C360.439 100.258 360.198 100.451 359.882 100.622C359.569 100.789 359.147 100.872 358.614 100.872C357.954 100.872 357.361 100.716 356.835 100.403C356.313 100.091 355.899 99.6364 355.594 99.0398C355.292 98.4432 355.141 97.7187 355.141 96.8665C355.141 96.0284 355.288 95.2987 355.583 94.6772C355.878 94.0522 356.288 93.5692 356.814 93.2283C357.339 92.8839 357.946 92.7116 358.635 92.7116C359.168 92.7116 359.591 92.8004 359.903 92.978C360.219 93.152 360.461 93.3509 360.628 93.5746C360.798 93.7947 360.929 93.9759 361.022 94.1179H361.15V92.8182H362.364V101.234C362.364 101.938 362.204 102.509 361.885 102.95C361.569 103.393 361.142 103.718 360.606 103.924C360.074 104.134 359.481 104.239 358.827 104.239ZM358.785 99.7429C359.289 99.7429 359.715 99.6275 360.063 99.3967C360.411 99.1658 360.676 98.8338 360.857 98.4006C361.038 97.9673 361.128 97.4489 361.128 96.8452C361.128 96.2557 361.04 95.7354 360.862 95.2844C360.684 94.8335 360.422 94.4801 360.074 94.2244C359.726 93.9687 359.296 93.8409 358.785 93.8409C358.252 93.8409 357.808 93.9759 357.453 94.2457C357.101 94.5156 356.837 94.8778 356.659 95.3324C356.485 95.7869 356.398 96.2912 356.398 96.8452C356.398 97.4134 356.487 97.9158 356.665 98.3526C356.846 98.7859 357.112 99.1268 357.464 99.3754C357.819 99.6204 358.259 99.7429 358.785 99.7429Z" fill="black"/>
<rect x="336" y="31" width="33" height="18" rx="8" fill="#D9D9D9"/>
<path d="M348.474 44.1705C347.736 44.1705 347.088 43.9947 346.53 43.6431C345.976 43.2915 345.543 42.7997 345.23 42.1676C344.922 41.5355 344.767 40.7969 344.767 39.9517C344.767 39.0994 344.922 38.3555 345.23 37.7198C345.543 37.0842 345.976 36.5906 346.53 36.239C347.088 35.8874 347.736 35.7116 348.474 35.7116C349.213 35.7116 349.859 35.8874 350.413 36.239C350.971 36.5906 351.404 37.0842 351.713 37.7198C352.026 38.3555 352.182 39.0994 352.182 39.9517C352.182 40.7969 352.026 41.5355 351.713 42.1676C351.404 42.7997 350.971 43.2915 350.413 43.6431C349.859 43.9947 349.213 44.1705 348.474 44.1705ZM348.474 43.0412C349.036 43.0412 349.497 42.8974 349.859 42.6097C350.222 42.3221 350.49 41.9439 350.664 41.4751C350.838 41.0064 350.925 40.4986 350.925 39.9517C350.925 39.4048 350.838 38.8952 350.664 38.4229C350.49 37.9506 350.222 37.5689 349.859 37.2777C349.497 36.9865 349.036 36.8409 348.474 36.8409C347.913 36.8409 347.452 36.9865 347.089 37.2777C346.727 37.5689 346.459 37.9506 346.285 38.4229C346.111 38.8952 346.024 39.4048 346.024 39.9517C346.024 40.4986 346.111 41.0064 346.285 41.4751C346.459 41.9439 346.727 42.3221 347.089 42.6097C347.452 42.8974 347.913 43.0412 348.474 43.0412ZM355.358 39.0781V44H354.101V35.8182H355.315V37.0966H355.422C355.614 36.6811 355.905 36.3473 356.295 36.0952C356.686 35.8395 357.19 35.7116 357.808 35.7116C358.362 35.7116 358.847 35.8253 359.262 36.0526C359.678 36.2763 360.001 36.6172 360.232 37.0753C360.463 37.5298 360.578 38.1051 360.578 38.8011V44H359.321V38.8864C359.321 38.2436 359.154 37.7429 358.82 37.3842C358.486 37.022 358.028 36.8409 357.446 36.8409C357.045 36.8409 356.686 36.9279 356.37 37.1019C356.057 37.2759 355.811 37.5298 355.63 37.8636C355.448 38.1974 355.358 38.6023 355.358 39.0781Z" fill="black"/>
<rect x="336" y="59" width="33" height="18" rx="8" fill="#D9D9D9"/>
<path d="M346.474 73.1705C345.736 73.1705 345.088 72.9947 344.53 72.6431C343.976 72.2915 343.543 71.7997 343.23 71.1676C342.922 70.5355 342.767 69.7969 342.767 68.9517C342.767 68.0994 342.922 67.3555 343.23 66.7198C343.543 66.0842 343.976 65.5906 344.53 65.239C345.088 64.8874 345.736 64.7116 346.474 64.7116C347.213 64.7116 347.859 64.8874 348.413 65.239C348.971 65.5906 349.404 66.0842 349.713 66.7198C350.026 67.3555 350.182 68.0994 350.182 68.9517C350.182 69.7969 350.026 70.5355 349.713 71.1676C349.404 71.7997 348.971 72.2915 348.413 72.6431C347.859 72.9947 347.213 73.1705 346.474 73.1705ZM346.474 72.0412C347.036 72.0412 347.497 71.8974 347.859 71.6097C348.222 71.3221 348.49 70.9439 348.664 70.4751C348.838 70.0064 348.925 69.4986 348.925 68.9517C348.925 68.4048 348.838 67.8952 348.664 67.4229C348.49 66.9506 348.222 66.5689 347.859 66.2777C347.497 65.9865 347.036 65.8409 346.474 65.8409C345.913 65.8409 345.452 65.9865 345.089 66.2777C344.727 66.5689 344.459 66.9506 344.285 67.4229C344.111 67.8952 344.024 68.4048 344.024 68.9517C344.024 69.4986 344.111 70.0064 344.285 70.4751C344.459 70.9439 344.727 71.3221 345.089 71.6097C345.452 71.8974 345.913 72.0412 346.474 72.0412ZM355.744 64.8182V65.8835H351.334V64.8182H355.744ZM352.655 73V63.6889C352.655 63.2202 352.765 62.8295 352.985 62.517C353.205 62.2045 353.491 61.9702 353.843 61.8139C354.194 61.6577 354.565 61.5795 354.956 61.5795C355.265 61.5795 355.517 61.6044 355.712 61.6541C355.908 61.7038 356.053 61.75 356.149 61.7926L355.787 62.8793C355.723 62.858 355.634 62.8313 355.521 62.7994C355.41 62.7674 355.265 62.7514 355.084 62.7514C354.668 62.7514 354.368 62.8562 354.184 63.0657C354.002 63.2752 353.912 63.5824 353.912 63.9872V73H352.655ZM361.15 64.8182V65.8835H356.739V64.8182H361.15ZM358.06 73V63.6889C358.06 63.2202 358.17 62.8295 358.39 62.517C358.61 62.2045 358.896 61.9702 359.248 61.8139C359.599 61.6577 359.971 61.5795 360.361 61.5795C360.67 61.5795 360.922 61.6044 361.118 61.6541C361.313 61.7038 361.458 61.75 361.554 61.7926L361.192 62.8793C361.128 62.858 361.039 62.8313 360.926 62.7994C360.816 62.7674 360.67 62.7514 360.489 62.7514C360.074 62.7514 359.773 62.8562 359.589 63.0657C359.408 63.2752 359.317 63.5824 359.317 63.9872V73H358.06Z" fill="black"/>
<path d="M265.458 143.818L262.433 152H261.154L258.129 143.818H259.492L261.751 150.338H261.836L264.094 143.818H265.458ZM270.255 152.17C269.466 152.17 268.786 151.996 268.215 151.648C267.646 151.297 267.208 150.807 266.899 150.178C266.594 149.546 266.441 148.811 266.441 147.973C266.441 147.135 266.594 146.396 266.899 145.757C267.208 145.114 267.638 144.614 268.188 144.255C268.742 143.893 269.388 143.712 270.127 143.712C270.553 143.712 270.974 143.783 271.389 143.925C271.805 144.067 272.183 144.298 272.524 144.617C272.865 144.933 273.137 145.352 273.339 145.874C273.541 146.396 273.643 147.039 273.643 147.803V148.335H267.336V147.249H272.364C272.364 146.787 272.272 146.375 272.087 146.013C271.906 145.651 271.647 145.365 271.309 145.155C270.976 144.946 270.581 144.841 270.127 144.841C269.626 144.841 269.193 144.965 268.827 145.214C268.465 145.459 268.186 145.778 267.991 146.173C267.796 146.567 267.698 146.989 267.698 147.44V148.165C267.698 148.783 267.805 149.306 268.018 149.736C268.234 150.162 268.534 150.487 268.918 150.711C269.301 150.931 269.747 151.041 270.255 151.041C270.585 151.041 270.883 150.995 271.15 150.903C271.42 150.807 271.652 150.665 271.847 150.477C272.043 150.285 272.194 150.047 272.3 149.763L273.515 150.104C273.387 150.516 273.172 150.878 272.87 151.19C272.568 151.499 272.195 151.741 271.752 151.915C271.308 152.085 270.809 152.17 270.255 152.17ZM275.555 152V143.818H276.769V145.054H276.855C277.004 144.649 277.274 144.321 277.664 144.069C278.055 143.816 278.495 143.69 278.985 143.69C279.078 143.69 279.193 143.692 279.331 143.696C279.47 143.699 279.575 143.705 279.646 143.712V144.99C279.603 144.979 279.506 144.963 279.353 144.942C279.204 144.917 279.046 144.905 278.879 144.905C278.481 144.905 278.126 144.988 277.813 145.155C277.504 145.319 277.259 145.546 277.078 145.837C276.901 146.125 276.812 146.453 276.812 146.822V152H275.555ZM281.136 152V143.818H282.393V152H281.136ZM281.775 142.455C281.53 142.455 281.319 142.371 281.141 142.204C280.967 142.037 280.88 141.837 280.88 141.602C280.88 141.368 280.967 141.167 281.141 141C281.319 140.833 281.53 140.75 281.775 140.75C282.02 140.75 282.23 140.833 282.404 141C282.581 141.167 282.67 141.368 282.67 141.602C282.67 141.837 282.581 142.037 282.404 142.204C282.23 142.371 282.02 142.455 281.775 142.455ZM288.339 143.818V144.884H283.928V143.818H288.339ZM285.249 152V142.689C285.249 142.22 285.36 141.83 285.58 141.517C285.8 141.205 286.086 140.97 286.437 140.814C286.789 140.658 287.16 140.58 287.551 140.58C287.86 140.58 288.112 140.604 288.307 140.654C288.502 140.704 288.648 140.75 288.744 140.793L288.382 141.879C288.318 141.858 288.229 141.831 288.115 141.799C288.005 141.767 287.86 141.751 287.678 141.751C287.263 141.751 286.963 141.856 286.778 142.066C286.597 142.275 286.507 142.582 286.507 142.987V152H285.249ZM290.91 155.068C290.697 155.068 290.507 155.05 290.34 155.015C290.174 154.983 290.058 154.951 289.994 154.919L290.314 153.811C290.619 153.889 290.889 153.918 291.123 153.896C291.358 153.875 291.566 153.77 291.747 153.582C291.931 153.397 292.1 153.097 292.253 152.682L292.487 152.043L289.462 143.818H290.825L293.084 150.338H293.169L295.427 143.818H296.791L293.318 153.193C293.162 153.616 292.968 153.966 292.737 154.243C292.507 154.523 292.239 154.731 291.933 154.866C291.631 155.001 291.29 155.068 290.91 155.068ZM305.993 152.17C305.226 152.17 304.565 151.989 304.011 151.627C303.457 151.265 303.031 150.766 302.733 150.13C302.435 149.495 302.286 148.768 302.286 147.952C302.286 147.121 302.438 146.387 302.744 145.752C303.053 145.113 303.482 144.614 304.033 144.255C304.587 143.893 305.233 143.712 305.972 143.712C306.547 143.712 307.065 143.818 307.527 144.031C307.989 144.244 308.367 144.543 308.662 144.926C308.956 145.31 309.139 145.757 309.21 146.268H307.953C307.857 145.896 307.644 145.565 307.314 145.278C306.987 144.987 306.547 144.841 305.993 144.841C305.503 144.841 305.073 144.969 304.704 145.224C304.338 145.477 304.052 145.833 303.846 146.295C303.644 146.753 303.543 147.291 303.543 147.909C303.543 148.541 303.642 149.092 303.841 149.56C304.043 150.029 304.328 150.393 304.693 150.652C305.063 150.912 305.496 151.041 305.993 151.041C306.32 151.041 306.616 150.984 306.883 150.871C307.149 150.757 307.374 150.594 307.559 150.381C307.744 150.168 307.875 149.912 307.953 149.614H309.21C309.139 150.097 308.964 150.532 308.683 150.919C308.406 151.302 308.038 151.608 307.58 151.835C307.126 152.059 306.597 152.17 305.993 152.17ZM313.456 152.192C312.937 152.192 312.467 152.094 312.044 151.899C311.622 151.7 311.286 151.414 311.037 151.041C310.789 150.665 310.665 150.21 310.665 149.678C310.665 149.209 310.757 148.829 310.941 148.538C311.126 148.243 311.373 148.012 311.682 147.845C311.991 147.678 312.332 147.554 312.705 147.472C313.081 147.387 313.459 147.32 313.839 147.27C314.336 147.206 314.739 147.158 315.048 147.126C315.361 147.091 315.588 147.032 315.73 146.95C315.876 146.869 315.949 146.727 315.949 146.524V146.482C315.949 145.956 315.805 145.548 315.517 145.256C315.233 144.965 314.802 144.82 314.223 144.82C313.623 144.82 313.152 144.951 312.811 145.214C312.47 145.477 312.231 145.757 312.092 146.055L310.899 145.629C311.112 145.132 311.396 144.745 311.751 144.468C312.11 144.187 312.5 143.992 312.923 143.882C313.349 143.768 313.768 143.712 314.18 143.712C314.443 143.712 314.745 143.744 315.086 143.808C315.43 143.868 315.762 143.994 316.082 144.186C316.405 144.377 316.673 144.667 316.886 145.054C317.099 145.441 317.206 145.96 317.206 146.609V152H315.949V150.892H315.885C315.799 151.07 315.657 151.26 315.459 151.462C315.26 151.664 314.995 151.837 314.665 151.979C314.335 152.121 313.932 152.192 313.456 152.192ZM313.647 151.062C314.145 151.062 314.564 150.965 314.905 150.77C315.249 150.574 315.508 150.322 315.682 150.013C315.86 149.704 315.949 149.379 315.949 149.038V147.888C315.895 147.952 315.778 148.01 315.597 148.064C315.419 148.113 315.214 148.158 314.979 148.197C314.748 148.232 314.523 148.264 314.303 148.293C314.086 148.317 313.91 148.339 313.775 148.357C313.449 148.399 313.143 148.468 312.859 148.564C312.579 148.657 312.351 148.797 312.177 148.985C312.007 149.17 311.922 149.422 311.922 149.741C311.922 150.178 312.083 150.509 312.406 150.732C312.733 150.952 313.147 151.062 313.647 151.062ZM319.5 152V143.818H320.715V145.097H320.821C320.992 144.66 321.267 144.321 321.647 144.079C322.027 143.834 322.483 143.712 323.016 143.712C323.556 143.712 324.005 143.834 324.363 144.079C324.726 144.321 325.008 144.66 325.21 145.097H325.296C325.505 144.674 325.819 144.338 326.238 144.09C326.657 143.838 327.16 143.712 327.746 143.712C328.477 143.712 329.076 143.941 329.541 144.399C330.006 144.853 330.239 145.562 330.239 146.524V152H328.982V146.524C328.982 145.92 328.817 145.489 328.486 145.23C328.156 144.971 327.767 144.841 327.32 144.841C326.744 144.841 326.299 145.015 325.983 145.363C325.667 145.707 325.509 146.144 325.509 146.673V152H324.23V146.396C324.23 145.931 324.079 145.556 323.778 145.272C323.476 144.985 323.087 144.841 322.611 144.841C322.284 144.841 321.979 144.928 321.695 145.102C321.414 145.276 321.187 145.517 321.013 145.826C320.843 146.132 320.757 146.485 320.757 146.886V152H319.5ZM335.968 152.17C335.179 152.17 334.499 151.996 333.928 151.648C333.359 151.297 332.921 150.807 332.612 150.178C332.306 149.546 332.154 148.811 332.154 147.973C332.154 147.135 332.306 146.396 332.612 145.757C332.921 145.114 333.35 144.614 333.901 144.255C334.455 143.893 335.101 143.712 335.84 143.712C336.266 143.712 336.687 143.783 337.102 143.925C337.518 144.067 337.896 144.298 338.237 144.617C338.578 144.933 338.849 145.352 339.052 145.874C339.254 146.396 339.355 147.039 339.355 147.803V148.335H333.049V147.249H338.077C338.077 146.787 337.985 146.375 337.8 146.013C337.619 145.651 337.36 145.365 337.022 145.155C336.689 144.946 336.294 144.841 335.84 144.841C335.339 144.841 334.906 144.965 334.54 145.214C334.178 145.459 333.899 145.778 333.704 146.173C333.509 146.567 333.411 146.989 333.411 147.44V148.165C333.411 148.783 333.517 149.306 333.73 149.736C333.947 150.162 334.247 150.487 334.631 150.711C335.014 150.931 335.46 151.041 335.968 151.041C336.298 151.041 336.596 150.995 336.863 150.903C337.132 150.807 337.365 150.665 337.56 150.477C337.756 150.285 337.907 150.047 338.013 149.763L339.228 150.104C339.1 150.516 338.885 150.878 338.583 151.19C338.281 151.499 337.908 151.741 337.464 151.915C337.021 152.085 336.522 152.17 335.968 152.17ZM341.268 152V143.818H342.482V145.054H342.567C342.717 144.649 342.987 144.321 343.377 144.069C343.768 143.816 344.208 143.69 344.698 143.69C344.79 143.69 344.906 143.692 345.044 143.696C345.183 143.699 345.288 143.705 345.359 143.712V144.99C345.316 144.979 345.218 144.963 345.066 144.942C344.917 144.917 344.759 144.905 344.592 144.905C344.194 144.905 343.839 144.988 343.526 145.155C343.217 145.319 342.972 145.546 342.791 145.837C342.614 146.125 342.525 146.453 342.525 146.822V152H341.268ZM349.256 152.192C348.738 152.192 348.267 152.094 347.845 151.899C347.422 151.7 347.087 151.414 346.838 151.041C346.59 150.665 346.465 150.21 346.465 149.678C346.465 149.209 346.558 148.829 346.742 148.538C346.927 148.243 347.174 148.012 347.483 147.845C347.792 147.678 348.133 147.554 348.505 147.472C348.882 147.387 349.26 147.32 349.64 147.27C350.137 147.206 350.54 147.158 350.849 147.126C351.162 147.091 351.389 147.032 351.531 146.95C351.677 146.869 351.749 146.727 351.749 146.524V146.482C351.749 145.956 351.606 145.548 351.318 145.256C351.034 144.965 350.602 144.82 350.024 144.82C349.423 144.82 348.953 144.951 348.612 145.214C348.271 145.477 348.031 145.757 347.893 146.055L346.7 145.629C346.913 145.132 347.197 144.745 347.552 144.468C347.911 144.187 348.301 143.992 348.724 143.882C349.15 143.768 349.569 143.712 349.981 143.712C350.244 143.712 350.546 143.744 350.886 143.808C351.231 143.868 351.563 143.994 351.883 144.186C352.206 144.377 352.474 144.667 352.687 145.054C352.9 145.441 353.006 145.96 353.006 146.609V152H351.749V150.892H351.685C351.6 151.07 351.458 151.26 351.259 151.462C351.06 151.664 350.796 151.837 350.466 151.979C350.135 152.121 349.732 152.192 349.256 152.192ZM349.448 151.062C349.945 151.062 350.364 150.965 350.705 150.77C351.05 150.574 351.309 150.322 351.483 150.013C351.661 149.704 351.749 149.379 351.749 149.038V147.888C351.696 147.952 351.579 148.01 351.398 148.064C351.22 148.113 351.014 148.158 350.78 148.197C350.549 148.232 350.324 148.264 350.103 148.293C349.887 148.317 349.711 148.339 349.576 148.357C349.249 148.399 348.944 148.468 348.66 148.564C348.379 148.657 348.152 148.797 347.978 148.985C347.808 149.17 347.722 149.422 347.722 149.741C347.722 150.178 347.884 150.509 348.207 150.732C348.534 150.952 348.948 151.062 349.448 151.062ZM365.315 145.651L364.186 145.97C364.115 145.782 364.01 145.599 363.872 145.422C363.737 145.24 363.552 145.091 363.318 144.974C363.083 144.857 362.783 144.798 362.417 144.798C361.917 144.798 361.499 144.914 361.166 145.145C360.835 145.372 360.67 145.661 360.67 146.013C360.67 146.325 360.784 146.572 361.011 146.753C361.238 146.934 361.594 147.085 362.077 147.206L363.291 147.504C364.023 147.682 364.568 147.953 364.926 148.319C365.285 148.681 365.464 149.148 365.464 149.72C365.464 150.189 365.329 150.608 365.059 150.977C364.793 151.347 364.42 151.638 363.941 151.851C363.461 152.064 362.904 152.17 362.268 152.17C361.434 152.17 360.743 151.989 360.196 151.627C359.649 151.265 359.303 150.736 359.157 150.04L360.351 149.741C360.464 150.182 360.679 150.512 360.995 150.732C361.315 150.952 361.732 151.062 362.247 151.062C362.833 151.062 363.298 150.938 363.643 150.69C363.991 150.437 364.165 150.136 364.165 149.784C364.165 149.5 364.065 149.262 363.866 149.07C363.667 148.875 363.362 148.729 362.95 148.634L361.586 148.314C360.837 148.136 360.287 147.861 359.935 147.488C359.587 147.112 359.413 146.641 359.413 146.077C359.413 145.615 359.543 145.207 359.802 144.852C360.065 144.496 360.422 144.218 360.873 144.015C361.327 143.813 361.842 143.712 362.417 143.712C363.227 143.712 363.863 143.889 364.324 144.244C364.79 144.599 365.12 145.068 365.315 145.651ZM370.915 143.818V144.884H366.675V143.818H370.915ZM367.911 141.858H369.168V149.656C369.168 150.011 369.219 150.278 369.322 150.455C369.429 150.629 369.564 150.746 369.727 150.807C369.894 150.864 370.07 150.892 370.254 150.892C370.393 150.892 370.506 150.885 370.595 150.871C370.684 150.853 370.755 150.839 370.808 150.828L371.064 151.957C370.979 151.989 370.86 152.021 370.707 152.053C370.554 152.089 370.361 152.107 370.127 152.107C369.771 152.107 369.423 152.03 369.082 151.877C368.745 151.725 368.465 151.492 368.241 151.18C368.021 150.867 367.911 150.473 367.911 149.997V141.858ZM375.214 152.192C374.695 152.192 374.225 152.094 373.802 151.899C373.379 151.7 373.044 151.414 372.795 151.041C372.547 150.665 372.422 150.21 372.422 149.678C372.422 149.209 372.515 148.829 372.699 148.538C372.884 148.243 373.131 148.012 373.44 147.845C373.749 147.678 374.09 147.554 374.462 147.472C374.839 147.387 375.217 147.32 375.597 147.27C376.094 147.206 376.497 147.158 376.806 147.126C377.119 147.091 377.346 147.032 377.488 146.95C377.634 146.869 377.706 146.727 377.706 146.524V146.482C377.706 145.956 377.563 145.548 377.275 145.256C376.991 144.965 376.559 144.82 375.981 144.82C375.38 144.82 374.91 144.951 374.569 145.214C374.228 145.477 373.988 145.757 373.85 146.055L372.657 145.629C372.87 145.132 373.154 144.745 373.509 144.468C373.868 144.187 374.258 143.992 374.681 143.882C375.107 143.768 375.526 143.712 375.938 143.712C376.201 143.712 376.503 143.744 376.843 143.808C377.188 143.868 377.52 143.994 377.84 144.186C378.163 144.377 378.431 144.667 378.644 145.054C378.857 145.441 378.964 145.96 378.964 146.609V152H377.706V150.892H377.642C377.557 151.07 377.415 151.26 377.216 151.462C377.017 151.664 376.753 151.837 376.423 151.979C376.092 152.121 375.689 152.192 375.214 152.192ZM375.405 151.062C375.902 151.062 376.321 150.965 376.662 150.77C377.007 150.574 377.266 150.322 377.44 150.013C377.618 149.704 377.706 149.379 377.706 149.038V147.888C377.653 147.952 377.536 148.01 377.355 148.064C377.177 148.113 376.971 148.158 376.737 148.197C376.506 148.232 376.281 148.264 376.06 148.293C375.844 148.317 375.668 148.339 375.533 148.357C375.206 148.399 374.901 148.468 374.617 148.564C374.336 148.657 374.109 148.797 373.935 148.985C373.765 149.17 373.679 149.422 373.679 149.741C373.679 150.178 373.841 150.509 374.164 150.732C374.491 150.952 374.905 151.062 375.405 151.062ZM384.816 143.818V144.884H380.576V143.818H384.816ZM381.812 141.858H383.069V149.656C383.069 150.011 383.121 150.278 383.224 150.455C383.33 150.629 383.465 150.746 383.628 150.807C383.795 150.864 383.971 150.892 384.156 150.892C384.294 150.892 384.408 150.885 384.497 150.871C384.585 150.853 384.656 150.839 384.71 150.828L384.965 151.957C384.88 151.989 384.761 152.021 384.608 152.053C384.456 152.089 384.262 152.107 384.028 152.107C383.673 152.107 383.325 152.03 382.984 151.877C382.646 151.725 382.366 151.492 382.142 151.18C381.922 150.867 381.812 150.473 381.812 149.997V141.858ZM391.863 148.655V143.818H393.121V152H391.863V150.615H391.778C391.586 151.031 391.288 151.384 390.883 151.675C390.479 151.963 389.967 152.107 389.349 152.107C388.838 152.107 388.383 151.995 387.986 151.771C387.588 151.544 387.275 151.203 387.048 150.748C386.821 150.29 386.707 149.713 386.707 149.017V143.818H387.964V148.932C387.964 149.528 388.131 150.004 388.465 150.359C388.802 150.714 389.232 150.892 389.754 150.892C390.067 150.892 390.384 150.812 390.708 150.652C391.034 150.493 391.308 150.248 391.528 149.917C391.752 149.587 391.863 149.166 391.863 148.655ZM401.218 145.651L400.089 145.97C400.018 145.782 399.913 145.599 399.775 145.422C399.64 145.24 399.455 145.091 399.221 144.974C398.987 144.857 398.687 144.798 398.321 144.798C397.82 144.798 397.403 144.914 397.069 145.145C396.739 145.372 396.574 145.661 396.574 146.013C396.574 146.325 396.687 146.572 396.915 146.753C397.142 146.934 397.497 147.085 397.98 147.206L399.194 147.504C399.926 147.682 400.471 147.953 400.83 148.319C401.188 148.681 401.368 149.148 401.368 149.72C401.368 150.189 401.233 150.608 400.963 150.977C400.696 151.347 400.324 151.638 399.844 151.851C399.365 152.064 398.807 152.17 398.172 152.17C397.337 152.17 396.646 151.989 396.1 151.627C395.553 151.265 395.206 150.736 395.061 150.04L396.254 149.741C396.368 150.182 396.582 150.512 396.899 150.732C397.218 150.952 397.635 151.062 398.15 151.062C398.736 151.062 399.201 150.938 399.546 150.69C399.894 150.437 400.068 150.136 400.068 149.784C400.068 149.5 399.968 149.262 399.77 149.07C399.571 148.875 399.265 148.729 398.853 148.634L397.49 148.314C396.741 148.136 396.19 147.861 395.839 147.488C395.491 147.112 395.316 146.641 395.316 146.077C395.316 145.615 395.446 145.207 395.705 144.852C395.968 144.496 396.325 144.218 396.776 144.015C397.231 143.813 397.745 143.712 398.321 143.712C399.13 143.712 399.766 143.889 400.228 144.244C400.693 144.599 401.023 145.068 401.218 145.651Z" fill="black"/>
<rect x="500.5" y="18.5" width="128.733" height="101" rx="10.5" stroke="black" stroke-width="3"/>
<path d="M517.199 19.1665V118.833" stroke="black" stroke-width="3" stroke-linecap="round"/>
<path d="M500.732 35.2002H516.332" stroke="black" stroke-width="3" stroke-linecap="round"/>
<path d="M612.533 35.2002H628.133" stroke="black" stroke-width="3" stroke-linecap="round"/>
<path d="M500.732 87.2002H516.332" stroke="black" stroke-width="3" stroke-linecap="round"/>
<path d="M612.533 87.2002H628.133" stroke="black" stroke-width="3" stroke-linecap="round"/>
<path d="M500.732 52.5332H516.332" stroke="black" stroke-width="3" stroke-linecap="round"/>
<path d="M612.533 52.5332H628.133" stroke="black" stroke-width="3" stroke-linecap="round"/>
<path d="M500.732 104.533H516.332" stroke="black" stroke-width="3" stroke-linecap="round"/>
<path d="M612.533 104.533H628.133" stroke="black" stroke-width="3" stroke-linecap="round"/>
<path d="M500.732 69.8667H516.332" stroke="black" stroke-width="3" stroke-linecap="round"/>
<path d="M612.533 69.8667H628.133" stroke="black" stroke-width="3" stroke-linecap="round"/>
<path d="M612.533 19.1665V118.833" stroke="black" stroke-width="3" stroke-linecap="round"/>
<path d="M587.893 62.9307C588.567 63.3141 588.567 64.2865 587.893 64.6699L553.411 84.2803C552.744 84.6594 551.917 84.178 551.917 83.4111L551.917 44.1895C551.917 43.4225 552.744 42.9412 553.411 43.3203L587.893 62.9307Z" fill="black" stroke="black" stroke-width="4"/>
<path d="M530.199 104.533H599.533" stroke="black" stroke-width="3" stroke-linecap="round"/>
<circle cx="544.066" cy="104.534" r="4.33333" fill="black"/>
<path d="M513.385 152V143.818H514.599V145.054H514.685C514.834 144.649 515.104 144.321 515.494 144.069C515.885 143.816 516.325 143.69 516.815 143.69C516.908 143.69 517.023 143.692 517.162 143.696C517.3 143.699 517.405 143.705 517.476 143.712V144.99C517.433 144.979 517.336 144.963 517.183 144.942C517.034 144.917 516.876 144.905 516.709 144.905C516.311 144.905 515.956 144.988 515.643 145.155C515.335 145.319 515.089 145.546 514.908 145.837C514.731 146.125 514.642 146.453 514.642 146.822V152H513.385ZM522.147 152.17C521.359 152.17 520.679 151.996 520.107 151.648C519.539 151.297 519.1 150.807 518.792 150.178C518.486 149.546 518.333 148.811 518.333 147.973C518.333 147.135 518.486 146.396 518.792 145.757C519.1 145.114 519.53 144.614 520.081 144.255C520.635 143.893 521.281 143.712 522.02 143.712C522.446 143.712 522.866 143.783 523.282 143.925C523.697 144.067 524.076 144.298 524.417 144.617C524.757 144.933 525.029 145.352 525.232 145.874C525.434 146.396 525.535 147.039 525.535 147.803V148.335H519.228V147.249H524.257C524.257 146.787 524.164 146.375 523.98 146.013C523.799 145.651 523.539 145.365 523.202 145.155C522.868 144.946 522.474 144.841 522.02 144.841C521.519 144.841 521.086 144.965 520.72 145.214C520.358 145.459 520.079 145.778 519.884 146.173C519.688 146.567 519.591 146.989 519.591 147.44V148.165C519.591 148.783 519.697 149.306 519.91 149.736C520.127 150.162 520.427 150.487 520.81 150.711C521.194 150.931 521.64 151.041 522.147 151.041C522.478 151.041 522.776 150.995 523.042 150.903C523.312 150.807 523.545 150.665 523.74 150.477C523.935 150.285 524.086 150.047 524.193 149.763L525.407 150.104C525.279 150.516 525.065 150.878 524.763 151.19C524.461 151.499 524.088 151.741 523.644 151.915C523.2 152.085 522.701 152.17 522.147 152.17ZM533.889 143.818L530.863 152H529.585L526.559 143.818H527.923L530.181 150.338H530.267L532.525 143.818H533.889ZM535.548 152V143.818H536.805V152H535.548ZM536.187 142.455C535.942 142.455 535.731 142.371 535.553 142.204C535.379 142.037 535.292 141.837 535.292 141.602C535.292 141.368 535.379 141.167 535.553 141C535.731 140.833 535.942 140.75 536.187 140.75C536.432 140.75 536.642 140.833 536.816 141C536.993 141.167 537.082 141.368 537.082 141.602C537.082 141.837 536.993 142.037 536.816 142.204C536.642 142.371 536.432 142.455 536.187 142.455ZM542.538 152.17C541.75 152.17 541.07 151.996 540.498 151.648C539.93 151.297 539.491 150.807 539.182 150.178C538.877 149.546 538.724 148.811 538.724 147.973C538.724 147.135 538.877 146.396 539.182 145.757C539.491 145.114 539.921 144.614 540.471 144.255C541.025 143.893 541.672 143.712 542.41 143.712C542.836 143.712 543.257 143.783 543.673 143.925C544.088 144.067 544.466 144.298 544.807 144.617C545.148 144.933 545.42 145.352 545.622 145.874C545.825 146.396 545.926 147.039 545.926 147.803V148.335H539.619V147.249H544.647C544.647 146.787 544.555 146.375 544.37 146.013C544.189 145.651 543.93 145.365 543.593 145.155C543.259 144.946 542.865 144.841 542.41 144.841C541.909 144.841 541.476 144.965 541.11 145.214C540.748 145.459 540.469 145.778 540.274 146.173C540.079 146.567 539.981 146.989 539.981 147.44V148.165C539.981 148.783 540.088 149.306 540.301 149.736C540.517 150.162 540.817 150.487 541.201 150.711C541.585 150.931 542.03 151.041 542.538 151.041C542.868 151.041 543.167 150.995 543.433 150.903C543.703 150.807 543.935 150.665 544.131 150.477C544.326 150.285 544.477 150.047 544.583 149.763L545.798 150.104C545.67 150.516 545.455 150.878 545.153 151.19C544.852 151.499 544.479 151.741 544.035 151.915C543.591 152.085 543.092 152.17 542.538 152.17ZM549.692 152L547.199 143.818H548.52L550.288 150.082H550.374L552.121 143.818H553.463L555.189 150.061H555.274L557.043 143.818H558.364L555.871 152H554.635L552.845 145.714H552.717L550.928 152H549.692ZM567.888 143.818V144.884H563.477V143.818H567.888ZM564.798 152V142.689C564.798 142.22 564.908 141.83 565.129 141.517C565.349 141.205 565.635 140.97 565.986 140.814C566.338 140.658 566.709 140.58 567.099 140.58C567.408 140.58 567.661 140.604 567.856 140.654C568.051 140.704 568.197 140.75 568.293 140.793L567.93 141.879C567.866 141.858 567.778 141.831 567.664 141.799C567.554 141.767 567.408 141.751 567.227 141.751C566.812 141.751 566.512 141.856 566.327 142.066C566.146 142.275 566.055 142.582 566.055 142.987V152H564.798ZM572.637 152.17C571.898 152.17 571.25 151.995 570.692 151.643C570.138 151.292 569.705 150.8 569.393 150.168C569.084 149.536 568.929 148.797 568.929 147.952C568.929 147.099 569.084 146.355 569.393 145.72C569.705 145.084 570.138 144.591 570.692 144.239C571.25 143.887 571.898 143.712 572.637 143.712C573.375 143.712 574.021 143.887 574.575 144.239C575.133 144.591 575.566 145.084 575.875 145.72C576.188 146.355 576.344 147.099 576.344 147.952C576.344 148.797 576.188 149.536 575.875 150.168C575.566 150.8 575.133 151.292 574.575 151.643C574.021 151.995 573.375 152.17 572.637 152.17ZM572.637 151.041C573.198 151.041 573.659 150.897 574.021 150.61C574.384 150.322 574.652 149.944 574.826 149.475C575 149.006 575.087 148.499 575.087 147.952C575.087 147.405 575 146.895 574.826 146.423C574.652 145.951 574.384 145.569 574.021 145.278C573.659 144.987 573.198 144.841 572.637 144.841C572.075 144.841 571.614 144.987 571.252 145.278C570.889 145.569 570.621 145.951 570.447 146.423C570.273 146.895 570.186 147.405 570.186 147.952C570.186 148.499 570.273 149.006 570.447 149.475C570.621 149.944 570.889 150.322 571.252 150.61C571.614 150.897 572.075 151.041 572.637 151.041ZM581.587 152.17C580.848 152.17 580.2 151.995 579.642 151.643C579.089 151.292 578.655 150.8 578.343 150.168C578.034 149.536 577.879 148.797 577.879 147.952C577.879 147.099 578.034 146.355 578.343 145.72C578.655 145.084 579.089 144.591 579.642 144.239C580.2 143.887 580.848 143.712 581.587 143.712C582.325 143.712 582.972 143.887 583.526 144.239C584.083 144.591 584.516 145.084 584.825 145.72C585.138 146.355 585.294 147.099 585.294 147.952C585.294 148.797 585.138 149.536 584.825 150.168C584.516 150.8 584.083 151.292 583.526 151.643C582.972 151.995 582.325 152.17 581.587 152.17ZM581.587 151.041C582.148 151.041 582.609 150.897 582.972 150.61C583.334 150.322 583.602 149.944 583.776 149.475C583.95 149.006 584.037 148.499 584.037 147.952C584.037 147.405 583.95 146.895 583.776 146.423C583.602 145.951 583.334 145.569 582.972 145.278C582.609 144.987 582.148 144.841 581.587 144.841C581.026 144.841 580.564 144.987 580.202 145.278C579.84 145.569 579.571 145.951 579.397 146.423C579.223 146.895 579.136 147.405 579.136 147.952C579.136 148.499 579.223 149.006 579.397 149.475C579.571 149.944 579.84 150.322 580.202 150.61C580.564 150.897 581.026 151.041 581.587 151.041ZM590.771 143.818V144.884H586.531V143.818H590.771ZM587.767 141.858H589.024V149.656C589.024 150.011 589.076 150.278 589.179 150.455C589.285 150.629 589.42 150.746 589.583 150.807C589.75 150.864 589.926 150.892 590.111 150.892C590.249 150.892 590.363 150.885 590.452 150.871C590.54 150.853 590.612 150.839 590.665 150.828L590.92 151.957C590.835 151.989 590.716 152.021 590.564 152.053C590.411 152.089 590.217 152.107 589.983 152.107C589.628 152.107 589.28 152.03 588.939 151.877C588.602 151.725 588.321 151.492 588.097 151.18C587.877 150.867 587.767 150.473 587.767 149.997V141.858ZM595.07 152.192C594.551 152.192 594.081 152.094 593.658 151.899C593.236 151.7 592.9 151.414 592.652 151.041C592.403 150.665 592.279 150.21 592.279 149.678C592.279 149.209 592.371 148.829 592.556 148.538C592.74 148.243 592.987 148.012 593.296 147.845C593.605 147.678 593.946 147.554 594.319 147.472C594.695 147.387 595.074 147.32 595.453 147.27C595.951 147.206 596.354 147.158 596.663 147.126C596.975 147.091 597.202 147.032 597.344 146.95C597.49 146.869 597.563 146.727 597.563 146.524V146.482C597.563 145.956 597.419 145.548 597.131 145.256C596.847 144.965 596.416 144.82 595.837 144.82C595.237 144.82 594.766 144.951 594.425 145.214C594.085 145.477 593.845 145.757 593.706 146.055L592.513 145.629C592.726 145.132 593.01 144.745 593.365 144.468C593.724 144.187 594.115 143.992 594.537 143.882C594.963 143.768 595.382 143.712 595.794 143.712C596.057 143.712 596.359 143.744 596.7 143.808C597.044 143.868 597.376 143.994 597.696 144.186C598.019 144.377 598.287 144.667 598.5 145.054C598.713 145.441 598.82 145.96 598.82 146.609V152H597.563V150.892H597.499C597.414 151.07 597.272 151.26 597.073 151.462C596.874 151.664 596.609 151.837 596.279 151.979C595.949 152.121 595.546 152.192 595.07 152.192ZM595.262 151.062C595.759 151.062 596.178 150.965 596.519 150.77C596.863 150.574 597.123 150.322 597.297 150.013C597.474 149.704 597.563 149.379 597.563 149.038V147.888C597.51 147.952 597.392 148.01 597.211 148.064C597.034 148.113 596.828 148.158 596.593 148.197C596.363 148.232 596.137 148.264 595.917 148.293C595.7 148.317 595.525 148.339 595.39 148.357C595.063 148.399 594.757 148.468 594.473 148.564C594.193 148.657 593.966 148.797 593.792 148.985C593.621 149.17 593.536 149.422 593.536 149.741C593.536 150.178 593.697 150.509 594.021 150.732C594.347 150.952 594.761 151.062 595.262 151.062ZM604.417 155.239C603.81 155.239 603.288 155.161 602.851 155.004C602.414 154.852 602.05 154.649 601.759 154.397C601.471 154.148 601.242 153.882 601.072 153.598L602.073 152.895C602.187 153.044 602.331 153.214 602.505 153.406C602.679 153.602 602.917 153.77 603.218 153.912C603.524 154.058 603.923 154.131 604.417 154.131C605.078 154.131 605.623 153.971 606.052 153.651C606.482 153.332 606.697 152.831 606.697 152.149V150.487H606.59C606.498 150.636 606.367 150.821 606.196 151.041C606.029 151.258 605.788 151.451 605.472 151.622C605.159 151.789 604.737 151.872 604.204 151.872C603.543 151.872 602.95 151.716 602.425 151.403C601.903 151.091 601.489 150.636 601.184 150.04C600.882 149.443 600.731 148.719 600.731 147.866C600.731 147.028 600.878 146.299 601.173 145.677C601.468 145.052 601.878 144.569 602.403 144.228C602.929 143.884 603.536 143.712 604.225 143.712C604.758 143.712 605.18 143.8 605.493 143.978C605.809 144.152 606.051 144.351 606.217 144.575C606.388 144.795 606.519 144.976 606.612 145.118H606.739V143.818H607.954V152.234C607.954 152.938 607.794 153.509 607.475 153.95C607.158 154.393 606.732 154.718 606.196 154.924C605.663 155.134 605.07 155.239 604.417 155.239ZM604.374 150.743C604.879 150.743 605.305 150.627 605.653 150.397C606.001 150.166 606.265 149.834 606.446 149.401C606.628 148.967 606.718 148.449 606.718 147.845C606.718 147.256 606.629 146.735 606.452 146.284C606.274 145.833 606.011 145.48 605.663 145.224C605.315 144.969 604.886 144.841 604.374 144.841C603.842 144.841 603.398 144.976 603.043 145.246C602.691 145.516 602.427 145.878 602.249 146.332C602.075 146.787 601.988 147.291 601.988 147.845C601.988 148.413 602.077 148.916 602.254 149.353C602.435 149.786 602.702 150.127 603.053 150.375C603.408 150.62 603.849 150.743 604.374 150.743ZM613.685 152.17C612.897 152.17 612.217 151.996 611.645 151.648C611.077 151.297 610.639 150.807 610.33 150.178C610.024 149.546 609.872 148.811 609.872 147.973C609.872 147.135 610.024 146.396 610.33 145.757C610.639 145.114 611.068 144.614 611.619 144.255C612.173 143.893 612.819 143.712 613.558 143.712C613.984 143.712 614.405 143.783 614.82 143.925C615.236 144.067 615.614 144.298 615.955 144.617C616.296 144.933 616.567 145.352 616.77 145.874C616.972 146.396 617.073 147.039 617.073 147.803V148.335H610.766V147.249H615.795C615.795 146.787 615.703 146.375 615.518 146.013C615.337 145.651 615.078 145.365 614.74 145.155C614.406 144.946 614.012 144.841 613.558 144.841C613.057 144.841 612.624 144.965 612.258 145.214C611.896 145.459 611.617 145.778 611.422 146.173C611.226 146.567 611.129 146.989 611.129 147.44V148.165C611.129 148.783 611.235 149.306 611.448 149.736C611.665 150.162 611.965 150.487 612.348 150.711C612.732 150.931 613.178 151.041 613.685 151.041C614.016 151.041 614.314 150.995 614.58 150.903C614.85 150.807 615.083 150.665 615.278 150.477C615.473 150.285 615.624 150.047 615.731 149.763L616.945 150.104C616.818 150.516 616.603 150.878 616.301 151.19C615.999 151.499 615.626 151.741 615.182 151.915C614.738 152.085 614.239 152.17 613.685 152.17Z" fill="black"/>
<rect x="702.234" y="60" width="93" height="18" rx="9" fill="#662AF2" fill-opacity="0.21"/>
<path d="M708.959 64.2628V63.0909H717.141V64.2628H713.71V74H712.389V64.2628H708.959ZM718.159 74V65.8182H719.374V67.054H719.459C719.608 66.6491 719.878 66.3207 720.269 66.0685C720.659 65.8164 721.1 65.6903 721.59 65.6903C721.682 65.6903 721.797 65.6921 721.936 65.6957C722.074 65.6992 722.179 65.7045 722.25 65.7116V66.9901C722.208 66.9794 722.11 66.9634 721.957 66.9421C721.808 66.9173 721.65 66.9048 721.483 66.9048C721.085 66.9048 720.73 66.9883 720.418 67.1552C720.109 67.3185 719.864 67.5458 719.683 67.837C719.505 68.1246 719.416 68.4531 719.416 68.8224V74H718.159ZM726.148 74.1918C725.63 74.1918 725.159 74.0941 724.737 73.8988C724.314 73.6999 723.978 73.4141 723.73 73.0412C723.481 72.6648 723.357 72.2102 723.357 71.6776C723.357 71.2088 723.449 70.8288 723.634 70.5376C723.819 70.2429 724.065 70.0121 724.374 69.8452C724.683 69.6783 725.024 69.554 725.397 69.4723C725.773 69.3871 726.152 69.3196 726.532 69.2699C727.029 69.206 727.432 69.158 727.741 69.1261C728.053 69.0906 728.281 69.032 728.423 68.9503C728.568 68.8686 728.641 68.7266 728.641 68.5241V68.4815C728.641 67.956 728.497 67.5476 728.21 67.2564C727.925 66.9652 727.494 66.8196 726.915 66.8196C726.315 66.8196 725.844 66.951 725.504 67.2138C725.163 67.4766 724.923 67.7571 724.784 68.0554L723.591 67.6293C723.804 67.1321 724.088 66.745 724.444 66.468C724.802 66.1875 725.193 65.9922 725.615 65.8821C726.042 65.7685 726.461 65.7116 726.873 65.7116C727.135 65.7116 727.437 65.7436 727.778 65.8075C728.123 65.8679 728.455 65.994 728.774 66.1857C729.097 66.3775 729.365 66.6669 729.578 67.054C729.792 67.4411 729.898 67.9595 729.898 68.6094V74H728.641V72.892H728.577C728.492 73.0696 728.35 73.2596 728.151 73.462C727.952 73.6644 727.688 73.8366 727.357 73.9787C727.027 74.1207 726.624 74.1918 726.148 74.1918ZM726.34 73.0625C726.837 73.0625 727.256 72.9648 727.597 72.7695C727.941 72.5742 728.201 72.3221 728.375 72.0131C728.552 71.7042 728.641 71.3793 728.641 71.0384V69.8878C728.588 69.9517 728.471 70.0103 728.289 70.0636C728.112 70.1133 727.906 70.1577 727.672 70.1967C727.441 70.2322 727.215 70.2642 726.995 70.2926C726.778 70.3175 726.603 70.3388 726.468 70.3565C726.141 70.3991 725.836 70.4684 725.551 70.5643C725.271 70.6566 725.044 70.7969 724.87 70.9851C724.699 71.1697 724.614 71.4219 724.614 71.7415C724.614 72.1783 724.776 72.5085 725.099 72.7322C725.425 72.9524 725.839 73.0625 726.34 73.0625ZM735.836 65.8182V66.8835H731.426V65.8182H735.836ZM732.747 74V64.6889C732.747 64.2202 732.857 63.8295 733.077 63.517C733.297 63.2045 733.583 62.9702 733.934 62.8139C734.286 62.6577 734.657 62.5795 735.048 62.5795C735.357 62.5795 735.609 62.6044 735.804 62.6541C735.999 62.7038 736.145 62.75 736.241 62.7926L735.879 63.8793C735.815 63.858 735.726 63.8313 735.612 63.7994C735.502 63.7674 735.357 63.7514 735.176 63.7514C734.76 63.7514 734.46 63.8562 734.275 64.0657C734.094 64.2752 734.004 64.5824 734.004 64.9872V74H732.747ZM741.241 65.8182V66.8835H736.831V65.8182H741.241ZM738.152 74V64.6889C738.152 64.2202 738.262 63.8295 738.482 63.517C738.702 63.2045 738.988 62.9702 739.34 62.8139C739.691 62.6577 740.062 62.5795 740.453 62.5795C740.762 62.5795 741.014 62.6044 741.209 62.6541C741.405 62.7038 741.55 62.75 741.646 62.7926L741.284 63.8793C741.22 63.858 741.131 63.8313 741.018 63.7994C740.907 63.7674 740.762 63.7514 740.581 63.7514C740.165 63.7514 739.865 63.8562 739.681 64.0657C739.499 64.2752 739.409 64.5824 739.409 64.9872V74H738.152ZM743.003 74V65.8182H744.26V74H743.003ZM743.642 64.4545C743.397 64.4545 743.186 64.3711 743.008 64.2042C742.834 64.0373 742.747 63.8366 742.747 63.6023C742.747 63.3679 742.834 63.1673 743.008 63.0004C743.186 62.8335 743.397 62.75 743.642 62.75C743.887 62.75 744.097 62.8335 744.271 63.0004C744.448 63.1673 744.537 63.3679 744.537 63.6023C744.537 63.8366 744.448 64.0373 744.271 64.2042C744.097 64.3711 743.887 64.4545 743.642 64.4545ZM749.887 74.1705C749.119 74.1705 748.459 73.9893 747.905 73.6271C747.351 73.2649 746.925 72.766 746.627 72.1303C746.328 71.4947 746.179 70.7685 746.179 69.9517C746.179 69.1207 746.332 68.3874 746.637 67.7518C746.946 67.1126 747.376 66.6136 747.926 66.255C748.48 65.8928 749.127 65.7116 749.865 65.7116C750.441 65.7116 750.959 65.8182 751.421 66.0312C751.882 66.2443 752.26 66.5426 752.555 66.9261C752.85 67.3097 753.033 67.7571 753.104 68.2685H751.847C751.751 67.8956 751.538 67.5653 751.208 67.2777C750.881 66.9865 750.441 66.8409 749.887 66.8409C749.396 66.8409 748.967 66.9687 748.597 67.2244C748.232 67.4766 747.946 67.8335 747.74 68.2951C747.537 68.7532 747.436 69.2912 747.436 69.9091C747.436 70.5412 747.536 71.0916 747.735 71.5604C747.937 72.0291 748.221 72.3931 748.587 72.6523C748.956 72.9116 749.389 73.0412 749.887 73.0412C750.213 73.0412 750.51 72.9844 750.776 72.8707C751.042 72.7571 751.268 72.5938 751.453 72.3807C751.637 72.1676 751.769 71.9119 751.847 71.6136H753.104C753.033 72.0966 752.857 72.5316 752.577 72.9187C752.3 73.3022 751.932 73.6076 751.474 73.8349C751.019 74.0586 750.49 74.1705 749.887 74.1705ZM764.956 67.6506L763.827 67.9702C763.756 67.782 763.651 67.5991 763.512 67.4215C763.377 67.2404 763.193 67.0913 762.958 66.9741C762.724 66.8569 762.424 66.7983 762.058 66.7983C761.557 66.7983 761.14 66.9137 760.806 67.1445C760.476 67.3718 760.311 67.6612 760.311 68.0128C760.311 68.3253 760.425 68.5721 760.652 68.7532C760.879 68.9343 761.234 69.0852 761.717 69.206L762.932 69.5043C763.663 69.6818 764.208 69.9535 764.567 70.3192C764.926 70.6815 765.105 71.1484 765.105 71.7202C765.105 72.1889 764.97 72.608 764.7 72.9773C764.434 73.3466 764.061 73.6378 763.581 73.8509C763.102 74.0639 762.545 74.1705 761.909 74.1705C761.074 74.1705 760.384 73.9893 759.837 73.6271C759.29 73.2649 758.944 72.7358 758.798 72.0398L759.991 71.7415C760.105 72.1818 760.32 72.5121 760.636 72.7322C760.955 72.9524 761.373 73.0625 761.888 73.0625C762.474 73.0625 762.939 72.9382 763.283 72.6896C763.631 72.4375 763.805 72.1357 763.805 71.7841C763.805 71.5 763.706 71.2621 763.507 71.0703C763.308 70.875 763.003 70.7294 762.591 70.6335L761.227 70.3139C760.478 70.1364 759.927 69.8612 759.576 69.4883C759.228 69.1119 759.054 68.6413 759.054 68.0767C759.054 67.6151 759.183 67.2067 759.443 66.8516C759.705 66.4964 760.062 66.2177 760.513 66.0153C760.968 65.8129 761.483 65.7116 762.058 65.7116C762.868 65.7116 763.503 65.8892 763.965 66.2443C764.43 66.5994 764.76 67.0682 764.956 67.6506ZM770.555 65.8182V66.8835H766.315V65.8182H770.555ZM767.551 63.858H768.808V71.6562C768.808 72.0114 768.86 72.2777 768.963 72.4553C769.069 72.6293 769.204 72.7464 769.368 72.8068C769.535 72.8636 769.71 72.892 769.895 72.892C770.033 72.892 770.147 72.8849 770.236 72.8707C770.325 72.853 770.396 72.8388 770.449 72.8281L770.705 73.9574C770.619 73.9893 770.5 74.0213 770.348 74.0533C770.195 74.0888 770.002 74.1065 769.767 74.1065C769.412 74.1065 769.064 74.0302 768.723 73.8775C768.386 73.7248 768.105 73.4922 767.881 73.1797C767.661 72.8672 767.551 72.473 767.551 71.9972V63.858ZM775.682 74.1705C774.944 74.1705 774.296 73.9947 773.738 73.6431C773.184 73.2915 772.751 72.7997 772.438 72.1676C772.13 71.5355 771.975 70.7969 771.975 69.9517C771.975 69.0994 772.13 68.3555 772.438 67.7198C772.751 67.0842 773.184 66.5906 773.738 66.239C774.296 65.8874 774.944 65.7116 775.682 65.7116C776.421 65.7116 777.067 65.8874 777.621 66.239C778.179 66.5906 778.612 67.0842 778.921 67.7198C779.234 68.3555 779.39 69.0994 779.39 69.9517C779.39 70.7969 779.234 71.5355 778.921 72.1676C778.612 72.7997 778.179 73.2915 777.621 73.6431C777.067 73.9947 776.421 74.1705 775.682 74.1705ZM775.682 73.0412C776.244 73.0412 776.705 72.8974 777.067 72.6097C777.43 72.3221 777.698 71.9439 777.872 71.4751C778.046 71.0064 778.133 70.4986 778.133 69.9517C778.133 69.4048 778.046 68.8952 777.872 68.4229C777.698 67.9506 777.43 67.5689 777.067 67.2777C776.705 66.9865 776.244 66.8409 775.682 66.8409C775.121 66.8409 774.66 66.9865 774.297 67.2777C773.935 67.5689 773.667 67.9506 773.493 68.4229C773.319 68.8952 773.232 69.4048 773.232 69.9517C773.232 70.4986 773.319 71.0064 773.493 71.4751C773.667 71.9439 773.935 72.3221 774.297 72.6097C774.66 72.8974 775.121 73.0412 775.682 73.0412ZM781.309 77.0682V65.8182H782.523V67.1179H782.672C782.765 66.9759 782.893 66.7947 783.056 66.5746C783.223 66.3509 783.461 66.152 783.77 65.978C784.082 65.8004 784.505 65.7116 785.037 65.7116C785.726 65.7116 786.334 65.8839 786.859 66.2283C787.385 66.5728 787.795 67.0611 788.09 67.6932C788.384 68.3253 788.532 69.071 788.532 69.9304C788.532 70.7969 788.384 71.5479 788.09 72.1836C787.795 72.8157 787.387 73.3058 786.865 73.6538C786.343 73.9982 785.741 74.1705 785.059 74.1705C784.533 74.1705 784.112 74.0835 783.796 73.9094C783.48 73.7319 783.237 73.5312 783.067 73.3075C782.896 73.0803 782.765 72.892 782.672 72.7429H782.566V77.0682H781.309ZM782.545 69.9091C782.545 70.527 782.635 71.0721 782.816 71.5444C782.997 72.0131 783.262 72.3807 783.61 72.647C783.958 72.9098 784.384 73.0412 784.888 73.0412C785.414 73.0412 785.852 72.9027 786.204 72.6257C786.559 72.3452 786.825 71.9687 787.003 71.4964C787.184 71.0206 787.275 70.4915 787.275 69.9091C787.275 69.3338 787.186 68.8153 787.008 68.3537C786.834 67.8885 786.57 67.521 786.215 67.2511C785.863 66.9776 785.421 66.8409 784.888 66.8409C784.377 66.8409 783.947 66.9705 783.599 67.2298C783.251 67.4854 782.988 67.8441 782.811 68.3058C782.633 68.7638 782.545 69.2983 782.545 69.9091Z" fill="black"/>
<rect x="702.234" y="87" width="65" height="18" rx="9" fill="#D9D9D9"/>
<path d="M710.003 101H708.618L712.624 90.0909H713.987L717.993 101H716.608L713.348 91.8168H713.263L710.003 101ZM710.514 96.7386H716.097V97.9105H710.514V96.7386ZM725.317 94.6506L724.188 94.9702C724.117 94.782 724.012 94.5991 723.874 94.4215C723.739 94.2404 723.554 94.0913 723.32 93.9741C723.085 93.8569 722.785 93.7983 722.419 93.7983C721.919 93.7983 721.501 93.9137 721.168 94.1445C720.837 94.3718 720.672 94.6612 720.672 95.0128C720.672 95.3253 720.786 95.5721 721.013 95.7532C721.24 95.9343 721.596 96.0852 722.078 96.206L723.293 96.5043C724.025 96.6818 724.57 96.9535 724.928 97.3192C725.287 97.6815 725.466 98.1484 725.466 98.7202C725.466 99.1889 725.331 99.608 725.061 99.9773C724.795 100.347 724.422 100.638 723.943 100.851C723.463 101.064 722.906 101.17 722.27 101.17C721.436 101.17 720.745 100.989 720.198 100.627C719.651 100.265 719.305 99.7358 719.159 99.0398L720.353 98.7415C720.466 99.1818 720.681 99.5121 720.997 99.7322C721.317 99.9524 721.734 100.062 722.249 100.062C722.835 100.062 723.3 99.9382 723.645 99.6896C723.993 99.4375 724.167 99.1357 724.167 98.7841C724.167 98.5 724.067 98.2621 723.868 98.0703C723.669 97.875 723.364 97.7294 722.952 97.6335L721.588 97.3139C720.839 97.1364 720.289 96.8612 719.937 96.4883C719.589 96.1119 719.415 95.6413 719.415 95.0767C719.415 94.6151 719.545 94.2067 719.804 93.8516C720.067 93.4964 720.424 93.2177 720.875 93.0153C721.329 92.8129 721.844 92.7116 722.419 92.7116C723.229 92.7116 723.865 92.8892 724.326 93.2443C724.792 93.5994 725.122 94.0682 725.317 94.6506ZM733.154 94.6506L732.025 94.9702C731.954 94.782 731.849 94.5991 731.71 94.4215C731.576 94.2404 731.391 94.0913 731.157 93.9741C730.922 93.8569 730.622 93.7983 730.256 93.7983C729.756 93.7983 729.338 93.9137 729.005 94.1445C728.674 94.3718 728.509 94.6612 728.509 95.0128C728.509 95.3253 728.623 95.5721 728.85 95.7532C729.077 95.9343 729.432 96.0852 729.915 96.206L731.13 96.5043C731.861 96.6818 732.407 96.9535 732.765 97.3192C733.124 97.6815 733.303 98.1484 733.303 98.7202C733.303 99.1889 733.168 99.608 732.898 99.9773C732.632 100.347 732.259 100.638 731.78 100.851C731.3 101.064 730.743 101.17 730.107 101.17C729.273 101.17 728.582 100.989 728.035 100.627C727.488 100.265 727.142 99.7358 726.996 99.0398L728.19 98.7415C728.303 99.1818 728.518 99.5121 728.834 99.7322C729.154 99.9524 729.571 100.062 730.086 100.062C730.672 100.062 731.137 99.9382 731.481 99.6896C731.829 99.4375 732.003 99.1357 732.003 98.7841C732.003 98.5 731.904 98.2621 731.705 98.0703C731.506 97.875 731.201 97.7294 730.789 97.6335L729.425 97.3139C728.676 97.1364 728.126 96.8612 727.774 96.4883C727.426 96.1119 727.252 95.6413 727.252 95.0767C727.252 94.6151 727.382 94.2067 727.641 93.8516C727.904 93.4964 728.261 93.2177 728.712 93.0153C729.166 92.8129 729.681 92.7116 730.256 92.7116C731.066 92.7116 731.702 92.8892 732.163 93.2443C732.628 93.5994 732.959 94.0682 733.154 94.6506ZM737.603 101.192C737.085 101.192 736.614 101.094 736.192 100.899C735.769 100.7 735.433 100.414 735.185 100.041C734.936 99.6648 734.812 99.2102 734.812 98.6776C734.812 98.2088 734.904 97.8288 735.089 97.5376C735.274 97.2429 735.52 97.0121 735.829 96.8452C736.138 96.6783 736.479 96.554 736.852 96.4723C737.229 96.3871 737.607 96.3196 737.987 96.2699C738.484 96.206 738.887 96.158 739.196 96.1261C739.508 96.0906 739.736 96.032 739.878 95.9503C740.023 95.8686 740.096 95.7266 740.096 95.5241V95.4815C740.096 94.956 739.952 94.5476 739.665 94.2564C739.381 93.9652 738.949 93.8196 738.37 93.8196C737.77 93.8196 737.3 93.951 736.959 94.2138C736.618 94.4766 736.378 94.7571 736.24 95.0554L735.046 94.6293C735.259 94.1321 735.544 93.745 735.899 93.468C736.257 93.1875 736.648 92.9922 737.07 92.8821C737.497 92.7685 737.916 92.7116 738.328 92.7116C738.59 92.7116 738.892 92.7436 739.233 92.8075C739.578 92.8679 739.91 92.994 740.229 93.1857C740.552 93.3775 740.82 93.6669 741.034 94.054C741.247 94.4411 741.353 94.9595 741.353 95.6094V101H740.096V99.892H740.032C739.947 100.07 739.805 100.26 739.606 100.462C739.407 100.664 739.143 100.837 738.812 100.979C738.482 101.121 738.079 101.192 737.603 101.192ZM737.795 100.062C738.292 100.062 738.711 99.9648 739.052 99.7695C739.396 99.5742 739.656 99.3221 739.83 99.0131C740.007 98.7042 740.096 98.3793 740.096 98.0384V96.8878C740.043 96.9517 739.926 97.0103 739.744 97.0636C739.567 97.1133 739.361 97.1577 739.127 97.1967C738.896 97.2322 738.67 97.2642 738.45 97.2926C738.233 97.3175 738.058 97.3388 737.923 97.3565C737.596 97.3991 737.291 97.4684 737.007 97.5643C736.726 97.6566 736.499 97.7969 736.325 97.9851C736.154 98.1697 736.069 98.4219 736.069 98.7415C736.069 99.1783 736.231 99.5085 736.554 99.7322C736.881 99.9524 737.294 100.062 737.795 100.062ZM748.804 97.6548V92.8182H750.061V101H748.804V99.6151H748.719C748.527 100.031 748.229 100.384 747.824 100.675C747.419 100.963 746.908 101.107 746.29 101.107C745.778 101.107 745.324 100.995 744.926 100.771C744.528 100.544 744.216 100.203 743.989 99.7482C743.761 99.2901 743.648 98.7131 743.648 98.017V92.8182H744.905V97.9318C744.905 98.5284 745.072 99.0043 745.405 99.3594C745.743 99.7145 746.172 99.892 746.695 99.892C747.007 99.892 747.325 99.8121 747.648 99.6523C747.975 99.4925 748.248 99.2475 748.468 98.9173C748.692 98.587 748.804 98.1662 748.804 97.6548ZM753.621 90.0909V101H752.363V90.0909H753.621ZM759.481 92.8182V93.8835H755.241V92.8182H759.481ZM756.477 90.858H757.734V98.6562C757.734 99.0114 757.786 99.2777 757.889 99.4553C757.995 99.6293 758.13 99.7464 758.293 99.8068C758.46 99.8636 758.636 99.892 758.821 99.892C758.959 99.892 759.073 99.8849 759.162 99.8707C759.25 99.853 759.321 99.8388 759.375 99.8281L759.63 100.957C759.545 100.989 759.426 101.021 759.274 101.053C759.121 101.089 758.927 101.107 758.693 101.107C758.338 101.107 757.99 101.03 757.649 100.877C757.312 100.725 757.031 100.492 756.807 100.18C756.587 99.8672 756.477 99.473 756.477 98.9972V90.858Z" fill="black"/>
<rect x="694.734" y="18.5" width="137.766" height="101" rx="2.5" stroke="black" stroke-width="3"/>
<path d="M727.943 143.818V144.884H723.703V143.818H727.943ZM724.939 141.858H726.196V149.656C726.196 150.011 726.248 150.278 726.35 150.455C726.457 150.629 726.592 150.746 726.755 150.807C726.922 150.864 727.098 150.892 727.283 150.892C727.421 150.892 727.535 150.885 727.624 150.871C727.712 150.853 727.783 150.839 727.837 150.828L728.092 151.957C728.007 151.989 727.888 152.021 727.735 152.053C727.583 152.089 727.389 152.107 727.155 152.107C726.8 152.107 726.452 152.03 726.111 151.877C725.773 151.725 725.493 151.492 725.269 151.18C725.049 150.867 724.939 150.473 724.939 149.997V141.858ZM732.242 152.192C731.723 152.192 731.253 152.094 730.83 151.899C730.408 151.7 730.072 151.414 729.824 151.041C729.575 150.665 729.451 150.21 729.451 149.678C729.451 149.209 729.543 148.829 729.728 148.538C729.912 148.243 730.159 148.012 730.468 147.845C730.777 147.678 731.118 147.554 731.491 147.472C731.867 147.387 732.245 147.32 732.625 147.27C733.123 147.206 733.526 147.158 733.835 147.126C734.147 147.091 734.374 147.032 734.516 146.95C734.662 146.869 734.735 146.727 734.735 146.524V146.482C734.735 145.956 734.591 145.548 734.303 145.256C734.019 144.965 733.588 144.82 733.009 144.82C732.409 144.82 731.938 144.951 731.597 145.214C731.256 145.477 731.017 145.757 730.878 146.055L729.685 145.629C729.898 145.132 730.182 144.745 730.537 144.468C730.896 144.187 731.287 143.992 731.709 143.882C732.135 143.768 732.554 143.712 732.966 143.712C733.229 143.712 733.531 143.744 733.872 143.808C734.216 143.868 734.548 143.994 734.868 144.186C735.191 144.377 735.459 144.667 735.672 145.054C735.885 145.441 735.992 145.96 735.992 146.609V152H734.735V150.892H734.671C734.586 151.07 734.444 151.26 734.245 151.462C734.046 151.664 733.781 151.837 733.451 151.979C733.121 152.121 732.718 152.192 732.242 152.192ZM732.434 151.062C732.931 151.062 733.35 150.965 733.691 150.77C734.035 150.574 734.294 150.322 734.468 150.013C734.646 149.704 734.735 149.379 734.735 149.038V147.888C734.681 147.952 734.564 148.01 734.383 148.064C734.206 148.113 734 148.158 733.765 148.197C733.534 148.232 733.309 148.264 733.089 148.293C732.872 148.317 732.696 148.339 732.561 148.357C732.235 148.399 731.929 148.468 731.645 148.564C731.365 148.657 731.137 148.797 730.963 148.985C730.793 149.17 730.708 149.422 730.708 149.741C730.708 150.178 730.869 150.509 731.192 150.732C731.519 150.952 731.933 151.062 732.434 151.062ZM741.589 155.239C740.982 155.239 740.46 155.161 740.023 155.004C739.586 154.852 739.222 154.649 738.931 154.397C738.643 154.148 738.414 153.882 738.244 153.598L739.245 152.895C739.359 153.044 739.503 153.214 739.677 153.406C739.851 153.602 740.089 153.77 740.39 153.912C740.696 154.058 741.095 154.131 741.589 154.131C742.249 154.131 742.794 153.971 743.224 153.651C743.654 153.332 743.869 152.831 743.869 152.149V150.487H743.762C743.67 150.636 743.538 150.821 743.368 151.041C743.201 151.258 742.96 151.451 742.644 151.622C742.331 151.789 741.908 151.872 741.376 151.872C740.715 151.872 740.122 151.716 739.597 151.403C739.075 151.091 738.661 150.636 738.356 150.04C738.054 149.443 737.903 148.719 737.903 147.866C737.903 147.028 738.05 146.299 738.345 145.677C738.64 145.052 739.05 144.569 739.575 144.228C740.101 143.884 740.708 143.712 741.397 143.712C741.93 143.712 742.352 143.8 742.665 143.978C742.981 144.152 743.222 144.351 743.389 144.575C743.56 144.795 743.691 144.976 743.783 145.118H743.911V143.818H745.126V152.234C745.126 152.938 744.966 153.509 744.646 153.95C744.33 154.393 743.904 154.718 743.368 154.924C742.835 155.134 742.242 155.239 741.589 155.239ZM741.546 150.743C742.051 150.743 742.477 150.627 742.825 150.397C743.173 150.166 743.437 149.834 743.618 149.401C743.799 148.967 743.89 148.449 743.89 147.845C743.89 147.256 743.801 146.735 743.624 146.284C743.446 145.833 743.183 145.48 742.835 145.224C742.487 144.969 742.058 144.841 741.546 144.841C741.014 144.841 740.57 144.976 740.215 145.246C739.863 145.516 739.598 145.878 739.421 146.332C739.247 146.787 739.16 147.291 739.16 147.845C739.16 148.413 739.249 148.916 739.426 149.353C739.607 149.786 739.874 150.127 740.225 150.375C740.58 150.62 741.021 150.743 741.546 150.743ZM755.076 152.17C754.288 152.17 753.608 151.996 753.036 151.648C752.468 151.297 752.029 150.807 751.72 150.178C751.415 149.546 751.262 148.811 751.262 147.973C751.262 147.135 751.415 146.396 751.72 145.757C752.029 145.114 752.459 144.614 753.009 144.255C753.563 143.893 754.21 143.712 754.948 143.712C755.374 143.712 755.795 143.783 756.211 143.925C756.626 144.067 757.004 144.298 757.345 144.617C757.686 144.933 757.958 145.352 758.16 145.874C758.363 146.396 758.464 147.039 758.464 147.803V148.335H752.157V147.249H757.185C757.185 146.787 757.093 146.375 756.908 146.013C756.727 145.651 756.468 145.365 756.131 145.155C755.797 144.946 755.403 144.841 754.948 144.841C754.448 144.841 754.014 144.965 753.649 145.214C753.286 145.459 753.008 145.778 752.812 146.173C752.617 146.567 752.519 146.989 752.519 147.44V148.165C752.519 148.783 752.626 149.306 752.839 149.736C753.055 150.162 753.356 150.487 753.739 150.711C754.123 150.931 754.568 151.041 755.076 151.041C755.406 151.041 755.705 150.995 755.971 150.903C756.241 150.807 756.473 150.665 756.669 150.477C756.864 150.285 757.015 150.047 757.122 149.763L758.336 150.104C758.208 150.516 757.993 150.878 757.691 151.19C757.39 151.499 757.017 151.741 756.573 151.915C756.129 152.085 755.63 152.17 755.076 152.17ZM766.817 143.818L763.792 152H762.513L759.488 143.818H760.852L763.11 150.338H763.195L765.454 143.818H766.817ZM768.477 152V143.818H769.734V152H768.477ZM769.116 142.455C768.871 142.455 768.66 142.371 768.482 142.204C768.308 142.037 768.221 141.837 768.221 141.602C768.221 141.368 768.308 141.167 768.482 141C768.66 140.833 768.871 140.75 769.116 140.75C769.361 140.75 769.57 140.833 769.744 141C769.922 141.167 770.011 141.368 770.011 141.602C770.011 141.837 769.922 142.037 769.744 142.204C769.57 142.371 769.361 142.455 769.116 142.455ZM775.126 152.17C774.444 152.17 773.842 151.998 773.32 151.654C772.798 151.306 772.39 150.816 772.095 150.184C771.8 149.548 771.653 148.797 771.653 147.93C771.653 147.071 771.8 146.325 772.095 145.693C772.39 145.061 772.8 144.573 773.325 144.228C773.851 143.884 774.458 143.712 775.147 143.712C775.68 143.712 776.101 143.8 776.41 143.978C776.722 144.152 776.96 144.351 777.123 144.575C777.29 144.795 777.42 144.976 777.512 145.118H777.619V141.091H778.876V152H777.661V150.743H777.512C777.42 150.892 777.288 151.08 777.118 151.308C776.948 151.531 776.704 151.732 776.388 151.909C776.072 152.083 775.651 152.17 775.126 152.17ZM775.296 151.041C775.801 151.041 776.227 150.91 776.575 150.647C776.923 150.381 777.187 150.013 777.368 149.544C777.549 149.072 777.64 148.527 777.64 147.909C777.64 147.298 777.551 146.764 777.374 146.306C777.196 145.844 776.933 145.485 776.585 145.23C776.237 144.971 775.808 144.841 775.296 144.841C774.764 144.841 774.32 144.978 773.965 145.251C773.613 145.521 773.348 145.888 773.171 146.354C772.997 146.815 772.91 147.334 772.91 147.909C772.91 148.491 772.999 149.021 773.176 149.496C773.357 149.969 773.624 150.345 773.975 150.626C774.33 150.903 774.771 151.041 775.296 151.041ZM784.783 152.17C783.995 152.17 783.315 151.996 782.743 151.648C782.175 151.297 781.736 150.807 781.427 150.178C781.122 149.546 780.969 148.811 780.969 147.973C780.969 147.135 781.122 146.396 781.427 145.757C781.736 145.114 782.166 144.614 782.716 144.255C783.27 143.893 783.917 143.712 784.655 143.712C785.081 143.712 785.502 143.783 785.918 143.925C786.333 144.067 786.711 144.298 787.052 144.617C787.393 144.933 787.665 145.352 787.867 145.874C788.07 146.396 788.171 147.039 788.171 147.803V148.335H781.864V147.249H786.892C786.892 146.787 786.8 146.375 786.616 146.013C786.434 145.651 786.175 145.365 785.838 145.155C785.504 144.946 785.11 144.841 784.655 144.841C784.155 144.841 783.721 144.965 783.356 145.214C782.993 145.459 782.715 145.778 782.519 146.173C782.324 146.567 782.226 146.989 782.226 147.44V148.165C782.226 148.783 782.333 149.306 782.546 149.736C782.763 150.162 783.063 150.487 783.446 150.711C783.83 150.931 784.275 151.041 784.783 151.041C785.113 151.041 785.412 150.995 785.678 150.903C785.948 150.807 786.18 150.665 786.376 150.477C786.571 150.285 786.722 150.047 786.829 149.763L788.043 150.104C787.915 150.516 787.7 150.878 787.399 151.19C787.097 151.499 786.724 151.741 786.28 151.915C785.836 152.085 785.337 152.17 784.783 152.17ZM791.34 147.078V152H790.083V143.818H791.298V145.097H791.404C791.596 144.681 791.887 144.347 792.278 144.095C792.668 143.839 793.173 143.712 793.791 143.712C794.345 143.712 794.829 143.825 795.245 144.053C795.66 144.276 795.983 144.617 796.214 145.075C796.445 145.53 796.56 146.105 796.56 146.801V152H795.303V146.886C795.303 146.244 795.136 145.743 794.803 145.384C794.469 145.022 794.011 144.841 793.428 144.841C793.027 144.841 792.668 144.928 792.352 145.102C792.04 145.276 791.793 145.53 791.612 145.864C791.431 146.197 791.34 146.602 791.34 147.078ZM802.181 152.17C801.414 152.17 800.754 151.989 800.2 151.627C799.646 151.265 799.22 150.766 798.922 150.13C798.623 149.495 798.474 148.768 798.474 147.952C798.474 147.121 798.627 146.387 798.932 145.752C799.241 145.113 799.671 144.614 800.221 144.255C800.775 143.893 801.422 143.712 802.16 143.712C802.735 143.712 803.254 143.818 803.716 144.031C804.177 144.244 804.555 144.543 804.85 144.926C805.145 145.31 805.328 145.757 805.399 146.268H804.142C804.046 145.896 803.833 145.565 803.502 145.278C803.176 144.987 802.735 144.841 802.181 144.841C801.691 144.841 801.262 144.969 800.892 145.224C800.527 145.477 800.241 145.833 800.035 146.295C799.832 146.753 799.731 147.291 799.731 147.909C799.731 148.541 799.831 149.092 800.029 149.56C800.232 150.029 800.516 150.393 800.882 150.652C801.251 150.912 801.684 151.041 802.181 151.041C802.508 151.041 802.805 150.984 803.071 150.871C803.337 150.757 803.563 150.594 803.748 150.381C803.932 150.168 804.064 149.912 804.142 149.614H805.399C805.328 150.097 805.152 150.532 804.871 150.919C804.594 151.302 804.227 151.608 803.769 151.835C803.314 152.059 802.785 152.17 802.181 152.17ZM810.667 152.17C809.879 152.17 809.199 151.996 808.627 151.648C808.059 151.297 807.62 150.807 807.311 150.178C807.006 149.546 806.853 148.811 806.853 147.973C806.853 147.135 807.006 146.396 807.311 145.757C807.62 145.114 808.05 144.614 808.6 144.255C809.154 143.893 809.8 143.712 810.539 143.712C810.965 143.712 811.386 143.783 811.801 143.925C812.217 144.067 812.595 144.298 812.936 144.617C813.277 144.933 813.549 145.352 813.751 145.874C813.953 146.396 814.055 147.039 814.055 147.803V148.335H807.748V147.249H812.776C812.776 146.787 812.684 146.375 812.499 146.013C812.318 145.651 812.059 145.365 811.722 145.155C811.388 144.946 810.994 144.841 810.539 144.841C810.038 144.841 809.605 144.965 809.239 145.214C808.877 145.459 808.598 145.778 808.403 146.173C808.208 146.567 808.11 146.989 808.11 147.44V148.165C808.11 148.783 808.217 149.306 808.43 149.736C808.646 150.162 808.946 150.487 809.33 150.711C809.713 150.931 810.159 151.041 810.667 151.041C810.997 151.041 811.295 150.995 811.562 150.903C811.832 150.807 812.064 150.665 812.26 150.477C812.455 150.285 812.606 150.047 812.712 149.763L813.927 150.104C813.799 150.516 813.584 150.878 813.282 151.19C812.98 151.499 812.608 151.741 812.164 151.915C811.72 152.085 811.221 152.17 810.667 152.17Z" fill="black"/>
<rect x="702" y="33" width="40" height="18" rx="9" fill="#D9D9D9"/>
<path d="M712.688 47H709.321V36.0909H712.837C713.895 36.0909 714.8 36.3093 715.553 36.7461C716.306 37.1793 716.883 37.8026 717.284 38.6158C717.686 39.4254 717.886 40.3949 717.886 41.5241C717.886 42.6605 717.684 43.6388 717.279 44.4592C716.874 45.2759 716.285 45.9045 715.511 46.3448C714.737 46.7816 713.795 47 712.688 47ZM710.642 45.8281H712.602C713.504 45.8281 714.252 45.6541 714.845 45.3061C715.438 44.9581 715.88 44.4627 716.171 43.82C716.462 43.1772 716.608 42.4119 716.608 41.5241C716.608 40.6435 716.464 39.8853 716.176 39.2496C715.889 38.6104 715.459 38.1204 714.887 37.7795C714.316 37.435 713.604 37.2628 712.751 37.2628H710.642V45.8281ZM727.261 36.0909H728.582V43.3139C728.582 44.0597 728.407 44.7255 728.055 45.3114C727.707 45.8938 727.215 46.3537 726.58 46.6911C725.944 47.0249 725.198 47.1918 724.342 47.1918C723.487 47.1918 722.741 47.0249 722.105 46.6911C721.469 46.3537 720.976 45.8938 720.624 45.3114C720.276 44.7255 720.102 44.0597 720.102 43.3139V36.0909H721.423V43.2074C721.423 43.7401 721.54 44.2141 721.775 44.6296C722.009 45.0415 722.343 45.3665 722.776 45.6044C723.213 45.8388 723.735 45.956 724.342 45.956C724.95 45.956 725.472 45.8388 725.908 45.6044C726.345 45.3665 726.679 45.0415 726.91 44.6296C727.144 44.2141 727.261 43.7401 727.261 43.2074V36.0909ZM732.541 36.0909V47H731.22V36.0909H732.541Z" fill="black"/>
<path d="M796.113 92.6511V86.2505M796.113 86.2505V77.2897C793.156 72.1692 790.443 75.1561 789.456 77.2897V98.2836L785.36 91.2308C781.519 90.2018 780.495 91.371 780.239 94.1872C780.034 96.4402 786.298 106.732 789.456 111.597V119.021H811.986V111.597C816.595 99.3077 814.546 90.6029 814.546 90.3469C812.089 87.889 809.426 89.3228 808.402 90.3469M796.113 86.2505C797.09 84.5437 799.636 82.1541 802.001 86.2505V87.2746M802.001 94.1872V87.2746M802.001 87.2746C803.248 85.7384 806.273 83.5878 808.402 87.2746V90.3469M808.402 95.4673V90.3469" stroke="black" stroke-width="2" stroke-linecap="round"/>
</svg>
