<?xml version="1.0" encoding="utf-8"?>
<!-- Generator: Adobe Illustrator 24.0.3, SVG Export Plug-In . SVG Version: 6.00 Build 0)  -->
<svg version="1.1" id="Layer_1" xmlns="http://www.w3.org/2000/svg" xmlns:xlink="http://www.w3.org/1999/xlink" x="0px" y="0px"
	 viewBox="0 0 356 315" style="enable-background:new 0 0 356 315;" xml:space="preserve">
<style type="text/css">
	.st0{fill:#FFFFFF;}
	.st1{fill:none;stroke:#000000;stroke-width:2;stroke-miterlimit:10;}
	.st2{fill:#FFFFFF;stroke:#000000;stroke-width:2;stroke-miterlimit:10;}
	.st3{font-family:'Granville-Regular';}
	.st4{font-size:122.6347px;}
</style>
<path class="st0" d="M224.8,242.6c-6.3-4-82.1,3.7-94.1,4.3c-12,0.6-35.5-15.1-64-24.7s-44.3-28.3-44.3-28.3s2.4-3.9,7.7-1.2
	s62,21,74.1,22.9s16.9,2,22.7,0.5"/>
<path class="st0" d="M161.8,226.9l57.4-14.9l104.2,34.5l1.5,1.2l-21.1,50.6c0,0-60.4-48.1-80.6-55.7c-20-7.5-38.4-6.9-38.4-6.9
	L161.8,226.9z"/>
<path class="st1" d="M301.4,300.4c-6.6-15.5-72.1-53.8-78.3-57.8s-81.4,3.7-93.3,4.3s-35.2-15.1-63.5-24.7s-43.9-28.3-43.9-28.3
	s2.4-3.9,7.6-1.2s61.5,21,73.5,22.9s16.8,2,22.5,0.5"/>
<path class="st0" d="M70.9,163.4c0,0,14.3-3.3,28.2,1.3s23.3,16.3,55,19.9s42.7,25.9,42.7,25.9h-76.6l-49.2-42.9V163.4z"/>
<path class="st1" d="M79.1,161.3c0,0,13.9,0.1,20,3.4s14.6,7.5,20.8,10.6s28.8,8.1,34.2,9.3s12.7,2.4,15.9,0.7"/>
<path class="st2" d="M95.1,192.4c0,0-27.5-21.8-31.2-24.5s-9.1-5.9-9.1-5.9s7-6.7,16.8-2.8s22.3,13.4,39,23.5
	c9.6,6.2,20.8,7.9,29.1,10.3s22.6,4,22.6,4"/>
<path class="st2" d="M325.5,247.1c0,0-49-40.3-55.5-52.8s-22.5-27.5-51-28.6s-42.7,3.8-67.1-1.2s-35.9-7.3-38.4-5.4s2.9,6.6,9.2,9.5
	s37.6,13.2,39.3,14.3s-8.7,12.9-11.1,16.5"/>
<path class="st2" d="M262.9,210.2c0,0-12.2-29.1-40.4-26.1s-44.8,15.6-55.4,19.4c-10.6,3.8-22.5,5.1-37.5-1.4
	c-15-6.4-31.9-17.7-45.9-3.5c6.3,4.1,11.4,5.7,22.4,10.3c10.9,4.6,21.7,14.4,25.7,16.6s18.4,1.8,19.6,3.1"/>
<text transform="matrix(1 0 0 1 66.4732 101.8692)" class="st3 st4">tsu</text>
<polyline class="st0" points="302.3,300 303.7,298.3 297.4,293.2 "/>
</svg>
